%TF.GenerationSoftware,KiCad,Pcbnew,6.0.8-f2edbf62ab~116~ubuntu20.04.1*%
%TF.CreationDate,2022-10-23T17:18:19+02:00*%
%TF.ProjectId,TireTempSensor_v2.0,54697265-5465-46d7-9053-656e736f725f,rev?*%
%TF.SameCoordinates,Original*%
%TF.FileFunction,Legend,Bot*%
%TF.FilePolarity,Positive*%
%FSLAX46Y46*%
G04 Gerber Fmt 4.6, Leading zero omitted, Abs format (unit mm)*
G04 Created by KiCad (PCBNEW 6.0.8-f2edbf62ab~116~ubuntu20.04.1) date 2022-10-23 17:18:19*
%MOMM*%
%LPD*%
G01*
G04 APERTURE LIST*
%ADD10C,0.150000*%
G04 APERTURE END LIST*
D10*
X112750000Y-67500000D02*
X112750000Y-67750000D01*
%TO.C,G\u002A\u002A\u002A*%
G36*
X113560586Y-88594853D02*
G01*
X113567709Y-88617054D01*
X113572269Y-88663254D01*
X113574693Y-88737953D01*
X113575406Y-88845649D01*
X113575406Y-89108753D01*
X113186152Y-89006921D01*
X113154778Y-88998713D01*
X113035333Y-88967470D01*
X112925072Y-88938633D01*
X112830772Y-88913976D01*
X112759213Y-88895271D01*
X112717171Y-88884291D01*
X112695105Y-88877887D01*
X112653822Y-88861242D01*
X112637444Y-88846961D01*
X112637532Y-88844643D01*
X112646352Y-88830429D01*
X112662141Y-88826960D01*
X112709040Y-88815258D01*
X112780884Y-88796832D01*
X112871621Y-88773278D01*
X112975198Y-88746193D01*
X113085563Y-88717172D01*
X113196662Y-88687811D01*
X113302444Y-88659707D01*
X113396856Y-88634455D01*
X113473845Y-88613653D01*
X113527359Y-88598895D01*
X113551344Y-88591778D01*
X113560586Y-88594853D01*
G37*
G36*
X112975346Y-98398167D02*
G01*
X113072209Y-98400087D01*
X113150671Y-98403159D01*
X113204361Y-98407120D01*
X113226906Y-98411706D01*
X113227954Y-98413461D01*
X113232459Y-98442872D01*
X113235237Y-98500894D01*
X113236066Y-98580082D01*
X113234723Y-98672991D01*
X113233818Y-98706313D01*
X113230223Y-98801059D01*
X113225113Y-98867689D01*
X113217387Y-98913512D01*
X113205944Y-98945839D01*
X113189682Y-98971979D01*
X113177531Y-98987865D01*
X113124640Y-99044793D01*
X113068127Y-99079361D01*
X112996951Y-99096492D01*
X112900074Y-99101108D01*
X112876175Y-99100919D01*
X112785865Y-99093995D01*
X112718842Y-99073487D01*
X112664057Y-99034471D01*
X112610465Y-98972024D01*
X112601672Y-98959311D01*
X112588358Y-98932054D01*
X112579109Y-98895429D01*
X112572917Y-98842397D01*
X112568776Y-98765922D01*
X112565679Y-98658966D01*
X112559572Y-98397637D01*
X112886149Y-98397637D01*
X112975346Y-98398167D01*
G37*
G36*
X114476444Y-87475681D02*
G01*
X114529064Y-87482476D01*
X114568018Y-87491094D01*
X114596023Y-87501752D01*
X114615792Y-87514666D01*
X114630041Y-87530052D01*
X114641484Y-87548127D01*
X114652835Y-87569106D01*
X114654505Y-87573446D01*
X114660598Y-87612708D01*
X114666017Y-87684592D01*
X114670762Y-87785204D01*
X114674830Y-87910652D01*
X114678220Y-88057043D01*
X114680931Y-88220483D01*
X114682961Y-88397080D01*
X114684310Y-88582941D01*
X114684975Y-88774173D01*
X114684956Y-88966883D01*
X114684251Y-89157177D01*
X114682858Y-89341164D01*
X114680776Y-89514949D01*
X114678005Y-89674640D01*
X114674541Y-89816344D01*
X114670385Y-89936168D01*
X114665534Y-90030219D01*
X114659988Y-90094604D01*
X114653744Y-90125430D01*
X114644171Y-90144152D01*
X114633201Y-90163272D01*
X114619913Y-90179583D01*
X114601599Y-90193309D01*
X114575550Y-90204671D01*
X114539061Y-90213893D01*
X114489422Y-90221199D01*
X114423926Y-90226809D01*
X114339866Y-90230949D01*
X114234533Y-90233840D01*
X114105221Y-90235706D01*
X113949220Y-90236769D01*
X113763825Y-90237252D01*
X113546326Y-90237378D01*
X113294017Y-90237371D01*
X113102041Y-90237317D01*
X112879952Y-90237049D01*
X112690652Y-90236503D01*
X112531450Y-90235620D01*
X112399656Y-90234342D01*
X112292581Y-90232608D01*
X112207535Y-90230360D01*
X112141828Y-90227539D01*
X112092771Y-90224086D01*
X112057673Y-90219941D01*
X112033845Y-90215045D01*
X112018597Y-90209339D01*
X112015646Y-90207827D01*
X111994100Y-90197183D01*
X111975566Y-90186956D01*
X111959820Y-90174438D01*
X111946634Y-90156917D01*
X111935782Y-90131684D01*
X111927038Y-90096030D01*
X111920177Y-90047245D01*
X111914972Y-89982619D01*
X111911196Y-89899442D01*
X111908624Y-89795006D01*
X111907030Y-89666600D01*
X111906187Y-89511514D01*
X111905869Y-89327039D01*
X111905850Y-89110465D01*
X111905898Y-88888678D01*
X112226693Y-88888678D01*
X112227844Y-88983427D01*
X112234365Y-89046703D01*
X112246726Y-89082062D01*
X112265394Y-89093058D01*
X112275897Y-89095328D01*
X112319537Y-89106837D01*
X112393685Y-89127239D01*
X112495021Y-89155594D01*
X112620228Y-89190963D01*
X112765989Y-89232410D01*
X112928987Y-89278995D01*
X113105903Y-89329779D01*
X113293419Y-89383826D01*
X113419112Y-89420075D01*
X113600005Y-89472062D01*
X113768119Y-89520163D01*
X113920130Y-89563440D01*
X114052718Y-89600952D01*
X114162560Y-89631763D01*
X114246336Y-89654932D01*
X114300724Y-89669522D01*
X114322401Y-89674594D01*
X114327814Y-89671974D01*
X114337307Y-89644675D01*
X114342734Y-89585494D01*
X114344426Y-89491691D01*
X114344317Y-89308789D01*
X114133727Y-89255965D01*
X114055627Y-89235377D01*
X113984285Y-89214460D01*
X113934104Y-89197313D01*
X113912763Y-89186354D01*
X113906803Y-89161550D01*
X113906206Y-89117244D01*
X113906812Y-89105818D01*
X113908263Y-89055550D01*
X113909622Y-88979348D01*
X113910760Y-88885369D01*
X113911548Y-88781770D01*
X113913072Y-88498621D01*
X114124113Y-88443457D01*
X114335155Y-88388292D01*
X114340481Y-88198448D01*
X114345807Y-88008603D01*
X114162268Y-88062875D01*
X114114385Y-88076923D01*
X114030443Y-88101373D01*
X113918975Y-88133729D01*
X113784494Y-88172683D01*
X113631514Y-88216931D01*
X113464549Y-88265164D01*
X113288112Y-88316078D01*
X113106716Y-88368366D01*
X112234703Y-88619585D01*
X112228472Y-88812547D01*
X112226693Y-88888678D01*
X111905898Y-88888678D01*
X111905904Y-88859083D01*
X111905926Y-88688979D01*
X111906036Y-88466714D01*
X111906312Y-88277275D01*
X111906835Y-88117861D01*
X111907686Y-87985673D01*
X111908946Y-87877910D01*
X111910694Y-87791770D01*
X111913014Y-87724455D01*
X111915984Y-87673162D01*
X111919686Y-87635092D01*
X111924201Y-87607443D01*
X111929610Y-87587416D01*
X111935993Y-87572209D01*
X111943431Y-87559023D01*
X111947530Y-87552620D01*
X111986956Y-87507567D01*
X112028999Y-87479296D01*
X112041630Y-87477037D01*
X112091677Y-87473509D01*
X112176133Y-87470361D01*
X112293046Y-87467619D01*
X112440465Y-87465313D01*
X112616438Y-87463470D01*
X112819014Y-87462119D01*
X113046242Y-87461288D01*
X113296170Y-87461005D01*
X113497477Y-87460998D01*
X113721757Y-87461087D01*
X113913370Y-87461484D01*
X114075031Y-87462408D01*
X114209454Y-87464073D01*
X114319354Y-87466696D01*
X114345807Y-87467836D01*
X114407446Y-87470493D01*
X114476444Y-87475681D01*
G37*
G36*
X113501317Y-84140672D02*
G01*
X113724902Y-84140754D01*
X113915913Y-84141151D01*
X114077055Y-84142080D01*
X114211039Y-84143753D01*
X114320571Y-84146387D01*
X114408359Y-84150196D01*
X114477112Y-84155394D01*
X114529537Y-84162197D01*
X114568341Y-84170818D01*
X114596233Y-84181473D01*
X114615921Y-84194376D01*
X114630112Y-84209742D01*
X114641514Y-84227786D01*
X114652835Y-84248722D01*
X114654505Y-84253062D01*
X114660598Y-84292324D01*
X114666017Y-84364207D01*
X114670762Y-84464820D01*
X114674830Y-84590268D01*
X114678220Y-84736659D01*
X114680931Y-84900099D01*
X114682961Y-85076696D01*
X114684310Y-85262557D01*
X114684975Y-85453789D01*
X114684956Y-85646499D01*
X114684251Y-85836793D01*
X114682858Y-86020780D01*
X114680776Y-86194565D01*
X114678005Y-86354256D01*
X114674541Y-86495960D01*
X114670385Y-86615784D01*
X114665534Y-86709835D01*
X114659988Y-86774220D01*
X114653744Y-86805046D01*
X114643925Y-86824247D01*
X114632955Y-86843274D01*
X114619611Y-86859506D01*
X114601190Y-86873163D01*
X114574987Y-86884468D01*
X114538300Y-86893641D01*
X114488425Y-86900906D01*
X114422659Y-86906484D01*
X114338299Y-86910596D01*
X114232640Y-86913464D01*
X114102981Y-86915311D01*
X113946616Y-86916358D01*
X113760843Y-86916827D01*
X113542959Y-86916939D01*
X113290259Y-86916917D01*
X113140325Y-86916899D01*
X112916752Y-86916797D01*
X112726203Y-86916533D01*
X112565860Y-86916023D01*
X112432905Y-86915187D01*
X112324520Y-86913942D01*
X112237887Y-86912205D01*
X112170190Y-86909895D01*
X112118610Y-86906930D01*
X112080330Y-86903226D01*
X112052532Y-86898703D01*
X112032398Y-86893277D01*
X112017111Y-86886867D01*
X112003853Y-86879390D01*
X111997450Y-86875291D01*
X111952396Y-86835865D01*
X111924126Y-86793822D01*
X111922899Y-86788574D01*
X111919395Y-86749007D01*
X111916287Y-86677071D01*
X111913575Y-86576647D01*
X111911261Y-86451619D01*
X111909342Y-86305868D01*
X111907821Y-86143279D01*
X111906695Y-85967732D01*
X111905967Y-85783111D01*
X111905821Y-85699791D01*
X112208613Y-85699791D01*
X112219038Y-85848587D01*
X112247220Y-85988689D01*
X112292405Y-86113645D01*
X112353840Y-86217004D01*
X112430770Y-86292314D01*
X112446340Y-86301798D01*
X112466824Y-86305174D01*
X112492867Y-86294030D01*
X112531835Y-86264755D01*
X112591095Y-86213739D01*
X112712023Y-86107570D01*
X112656821Y-86038608D01*
X112590029Y-85935974D01*
X112552083Y-85825178D01*
X112540338Y-85696035D01*
X112546837Y-85607449D01*
X112584997Y-85473295D01*
X112655816Y-85355567D01*
X112757559Y-85256837D01*
X112888491Y-85179678D01*
X112930701Y-85161663D01*
X112984790Y-85143683D01*
X113043573Y-85132081D01*
X113117989Y-85124886D01*
X113218980Y-85120125D01*
X113375074Y-85121064D01*
X113554830Y-85143150D01*
X113705934Y-85189197D01*
X113828747Y-85259499D01*
X113923635Y-85354351D01*
X113990962Y-85474050D01*
X114031091Y-85618889D01*
X114044387Y-85789163D01*
X114044186Y-85814586D01*
X114040016Y-85893853D01*
X114028908Y-85972925D01*
X114008842Y-86063600D01*
X113977795Y-86177671D01*
X113975251Y-86189419D01*
X113979287Y-86206062D01*
X114000196Y-86219417D01*
X114044645Y-86232884D01*
X114119302Y-86249867D01*
X114144760Y-86255260D01*
X114210813Y-86268127D01*
X114258065Y-86275646D01*
X114277625Y-86276332D01*
X114280502Y-86271743D01*
X114294223Y-86236386D01*
X114312184Y-86178096D01*
X114331469Y-86107399D01*
X114349156Y-86034822D01*
X114362328Y-85970890D01*
X114372347Y-85894691D01*
X114379051Y-85763011D01*
X114375833Y-85626962D01*
X114362678Y-85505606D01*
X114328490Y-85359650D01*
X114260314Y-85195504D01*
X114164348Y-85056424D01*
X114040180Y-84941961D01*
X113887400Y-84851664D01*
X113705595Y-84785082D01*
X113663770Y-84774720D01*
X113597529Y-84763567D01*
X113517526Y-84756420D01*
X113415862Y-84752650D01*
X113284638Y-84751630D01*
X113247382Y-84751694D01*
X113140965Y-84752586D01*
X113061002Y-84755278D01*
X112998929Y-84760767D01*
X112946183Y-84770048D01*
X112894200Y-84784117D01*
X112834416Y-84803968D01*
X112660303Y-84878996D01*
X112514471Y-84974877D01*
X112397360Y-85092396D01*
X112306973Y-85233178D01*
X112291424Y-85265762D01*
X112244052Y-85401927D01*
X112216700Y-85548754D01*
X112208613Y-85699791D01*
X111905821Y-85699791D01*
X111905635Y-85593298D01*
X111905699Y-85402176D01*
X111906161Y-85213627D01*
X111907018Y-85031535D01*
X111908272Y-84859780D01*
X111909923Y-84702247D01*
X111911971Y-84562817D01*
X111914415Y-84445374D01*
X111917255Y-84353799D01*
X111920492Y-84291975D01*
X111924126Y-84263785D01*
X111926327Y-84258649D01*
X111957856Y-84215883D01*
X112003853Y-84178218D01*
X112011660Y-84173634D01*
X112025787Y-84166802D01*
X112043620Y-84160987D01*
X112067977Y-84156108D01*
X112101676Y-84152083D01*
X112147534Y-84148829D01*
X112208369Y-84146263D01*
X112286999Y-84144304D01*
X112386242Y-84142870D01*
X112508915Y-84141879D01*
X112657835Y-84141247D01*
X112835821Y-84140893D01*
X113045689Y-84140735D01*
X113284638Y-84140692D01*
X113290259Y-84140691D01*
X113501317Y-84140672D01*
G37*
G36*
X115903049Y-90124845D02*
G01*
X116026647Y-90125337D01*
X116120402Y-90126774D01*
X116189846Y-90129594D01*
X116240513Y-90134233D01*
X116277934Y-90141128D01*
X116307642Y-90150717D01*
X116335170Y-90163435D01*
X116398706Y-90208560D01*
X116446566Y-90280680D01*
X116460023Y-90314587D01*
X116481516Y-90420082D01*
X116477541Y-90527261D01*
X116450119Y-90627392D01*
X116401270Y-90711743D01*
X116333013Y-90771580D01*
X116325856Y-90775597D01*
X116300737Y-90787204D01*
X116270263Y-90796038D01*
X116229075Y-90802589D01*
X116171812Y-90807348D01*
X116093112Y-90810806D01*
X115987616Y-90813452D01*
X115849963Y-90815778D01*
X115432570Y-90822028D01*
X115432570Y-90631315D01*
X115808686Y-90631315D01*
X115900113Y-90631073D01*
X116017048Y-90629565D01*
X116104420Y-90626408D01*
X116167089Y-90621289D01*
X116209916Y-90613899D01*
X116237764Y-90603927D01*
X116242215Y-90601523D01*
X116290956Y-90555010D01*
X116312878Y-90491941D01*
X116306594Y-90422702D01*
X116270713Y-90357677D01*
X116227173Y-90307059D01*
X115862015Y-90310681D01*
X115852978Y-90310767D01*
X115738570Y-90311180D01*
X115636161Y-90310367D01*
X115552130Y-90308468D01*
X115492854Y-90305622D01*
X115464713Y-90301969D01*
X115453922Y-90295835D01*
X115437443Y-90265652D01*
X115432570Y-90207225D01*
X115432570Y-90124816D01*
X115846020Y-90124816D01*
X115903049Y-90124845D01*
G37*
G36*
X116464328Y-92582275D02*
G01*
X116389291Y-92582275D01*
X116380980Y-92582181D01*
X116331649Y-92575343D01*
X116313744Y-92558826D01*
X116313345Y-92534356D01*
X116312551Y-92479676D01*
X116311494Y-92403742D01*
X116310293Y-92314956D01*
X116308691Y-92230394D01*
X116306430Y-92159801D01*
X116303832Y-92112073D01*
X116301199Y-92094535D01*
X116296364Y-92097150D01*
X116265611Y-92116550D01*
X116210461Y-92152386D01*
X116135414Y-92201711D01*
X116044965Y-92261573D01*
X115943612Y-92329025D01*
X115922704Y-92342966D01*
X115811191Y-92416760D01*
X115725116Y-92472214D01*
X115659795Y-92511874D01*
X115610543Y-92538287D01*
X115572678Y-92554001D01*
X115541516Y-92561561D01*
X115512374Y-92563516D01*
X115432570Y-92563516D01*
X115432570Y-91888183D01*
X115512297Y-91888212D01*
X115592023Y-91888241D01*
X115590543Y-92113323D01*
X115590529Y-92115633D01*
X115591066Y-92202223D01*
X115593517Y-92273047D01*
X115597494Y-92320858D01*
X115602608Y-92338405D01*
X115606727Y-92336761D01*
X115636872Y-92319329D01*
X115691614Y-92285266D01*
X115766239Y-92237573D01*
X115856034Y-92179248D01*
X115956284Y-92113294D01*
X115979289Y-92098080D01*
X116087834Y-92026842D01*
X116171158Y-91973675D01*
X116234145Y-91935986D01*
X116281677Y-91911185D01*
X116318636Y-91896678D01*
X116349907Y-91889875D01*
X116380371Y-91888183D01*
X116464328Y-91888183D01*
X116464328Y-92582275D01*
G37*
G36*
X116282452Y-96258789D02*
G01*
X116361616Y-96235750D01*
X116416368Y-96219644D01*
X116440879Y-96212167D01*
X116452167Y-96214410D01*
X116461468Y-96242541D01*
X116464328Y-96303586D01*
X116464328Y-96403188D01*
X116256608Y-96449674D01*
X116261982Y-96621575D01*
X116267356Y-96793477D01*
X116365842Y-96819763D01*
X116464328Y-96846048D01*
X116464328Y-96937131D01*
X116463472Y-96968370D01*
X116458390Y-97011555D01*
X116450258Y-97028716D01*
X116449605Y-97028665D01*
X116424823Y-97022713D01*
X116369281Y-97007797D01*
X116287722Y-96985238D01*
X116184889Y-96956359D01*
X116065527Y-96922482D01*
X115934379Y-96884930D01*
X115432570Y-96740642D01*
X115432570Y-96621026D01*
X115645912Y-96621026D01*
X115647618Y-96623420D01*
X115674012Y-96634007D01*
X115724922Y-96649885D01*
X115791951Y-96668859D01*
X115866706Y-96688732D01*
X115940790Y-96707309D01*
X116005809Y-96722393D01*
X116053369Y-96731788D01*
X116075074Y-96733298D01*
X116081304Y-96718404D01*
X116086962Y-96674979D01*
X116089143Y-96614403D01*
X116087626Y-96564231D01*
X116082526Y-96520038D01*
X116075074Y-96503065D01*
X116074764Y-96503073D01*
X116049413Y-96508128D01*
X115998234Y-96520832D01*
X115930104Y-96538744D01*
X115853902Y-96559424D01*
X115778505Y-96580432D01*
X115712789Y-96599329D01*
X115665632Y-96613673D01*
X115645912Y-96621026D01*
X115432570Y-96621026D01*
X115432570Y-96504543D01*
X115559195Y-96467465D01*
X115560362Y-96467123D01*
X115619480Y-96449924D01*
X115706301Y-96424801D01*
X115812690Y-96394102D01*
X115930510Y-96360175D01*
X116051624Y-96325368D01*
X116074204Y-96318883D01*
X116075074Y-96318632D01*
X116184705Y-96287064D01*
X116282452Y-96258789D01*
G37*
G36*
X113128537Y-81798773D02*
G01*
X113186446Y-81800889D01*
X113213818Y-81804119D01*
X113214841Y-81804542D01*
X113225855Y-81815735D01*
X113232900Y-81841461D01*
X113236443Y-81887452D01*
X113236950Y-81959438D01*
X113234888Y-82063152D01*
X113231305Y-82168145D01*
X113226130Y-82246169D01*
X113218374Y-82301664D01*
X113206968Y-82342219D01*
X113190842Y-82375423D01*
X113178896Y-82393867D01*
X113109565Y-82459813D01*
X113015063Y-82499962D01*
X112898299Y-82512948D01*
X112868700Y-82511981D01*
X112756074Y-82491077D01*
X112668378Y-82442651D01*
X112604634Y-82366215D01*
X112593230Y-82345385D01*
X112579457Y-82312728D01*
X112570912Y-82274818D01*
X112566642Y-82223593D01*
X112565694Y-82150996D01*
X112567115Y-82048966D01*
X112571787Y-81805096D01*
X112879003Y-81799312D01*
X112948976Y-81798282D01*
X113047058Y-81797870D01*
X113128537Y-81798773D01*
G37*
G36*
X111151847Y-91217541D02*
G01*
X111150294Y-91353225D01*
X111148432Y-91480318D01*
X111146136Y-91578964D01*
X111143016Y-91654037D01*
X111138679Y-91710417D01*
X111132733Y-91752978D01*
X111124788Y-91786599D01*
X111114450Y-91816156D01*
X111101329Y-91846527D01*
X111096411Y-91856963D01*
X111040991Y-91943976D01*
X110966828Y-92024737D01*
X110884220Y-92089499D01*
X110803463Y-92128512D01*
X110750152Y-92139755D01*
X110657700Y-92148424D01*
X110555721Y-92149610D01*
X110459640Y-92143280D01*
X110384879Y-92129400D01*
X110302483Y-92092896D01*
X110212862Y-92018868D01*
X110142587Y-91917870D01*
X110094497Y-91794221D01*
X110071432Y-91652244D01*
X110065342Y-91583851D01*
X110055851Y-91532693D01*
X110044684Y-91516568D01*
X110032556Y-91536303D01*
X110020178Y-91592725D01*
X109983238Y-91729995D01*
X109921068Y-91844258D01*
X109836579Y-91930337D01*
X109732129Y-91986469D01*
X109610080Y-92010891D01*
X109472790Y-92001838D01*
X109350187Y-91962719D01*
X109244998Y-91892557D01*
X109163382Y-91793807D01*
X109156410Y-91782246D01*
X109124087Y-91721266D01*
X109099146Y-91656996D01*
X109080708Y-91583741D01*
X109067895Y-91495806D01*
X109059830Y-91387496D01*
X109055634Y-91253118D01*
X109054431Y-91086975D01*
X109054431Y-91053398D01*
X109382718Y-91053398D01*
X109385605Y-91241968D01*
X109389622Y-91336546D01*
X109405811Y-91451074D01*
X109435896Y-91534776D01*
X109481802Y-91590741D01*
X109545456Y-91622055D01*
X109628785Y-91631807D01*
X109714637Y-91618076D01*
X109789622Y-91571996D01*
X109846979Y-91492906D01*
X109859218Y-91463709D01*
X109871376Y-91410775D01*
X109877874Y-91337652D01*
X109879808Y-91235756D01*
X109879837Y-91044018D01*
X110213985Y-91044018D01*
X110220434Y-91311337D01*
X110222833Y-91398418D01*
X110226595Y-91482138D01*
X110232170Y-91541637D01*
X110240669Y-91584380D01*
X110253209Y-91617832D01*
X110270902Y-91649458D01*
X110317964Y-91708972D01*
X110390333Y-91756559D01*
X110487069Y-91781184D01*
X110563592Y-91782089D01*
X110659141Y-91753748D01*
X110738192Y-91694202D01*
X110794840Y-91606795D01*
X110798194Y-91597548D01*
X110808872Y-91548194D01*
X110818463Y-91476709D01*
X110826485Y-91391574D01*
X110832453Y-91301275D01*
X110835884Y-91214293D01*
X110836295Y-91139112D01*
X110833201Y-91084216D01*
X110826120Y-91058087D01*
X110816162Y-91055093D01*
X110773659Y-91050699D01*
X110704453Y-91047188D01*
X110615253Y-91044861D01*
X110512766Y-91044018D01*
X110213985Y-91044018D01*
X109879837Y-91044018D01*
X109879837Y-91042929D01*
X109631277Y-91048163D01*
X109382718Y-91053398D01*
X109054431Y-91053398D01*
X109054431Y-90687593D01*
X111157608Y-90687593D01*
X111151847Y-91217541D01*
G37*
G36*
X116464328Y-93652710D02*
G01*
X116464328Y-93818924D01*
X116302206Y-93824344D01*
X116140085Y-93829764D01*
X116114899Y-93914180D01*
X116106762Y-93941440D01*
X116094415Y-93982750D01*
X116089428Y-93999345D01*
X116101561Y-94005630D01*
X116141185Y-94025423D01*
X116201823Y-94055460D01*
X116276735Y-94092393D01*
X116464328Y-94184693D01*
X116464328Y-94402189D01*
X116221652Y-94280584D01*
X115978977Y-94158979D01*
X115887612Y-94220464D01*
X115804329Y-94267985D01*
X115685108Y-94315087D01*
X115564468Y-94342972D01*
X115456019Y-94347631D01*
X115452045Y-94346526D01*
X115437633Y-94320231D01*
X115432570Y-94262376D01*
X115432570Y-94179109D01*
X115521676Y-94165911D01*
X115583351Y-94154944D01*
X115717892Y-94113603D01*
X115822264Y-94051910D01*
X115898176Y-93968646D01*
X115947336Y-93862593D01*
X115960357Y-93820384D01*
X115432570Y-93820384D01*
X115432546Y-93642172D01*
X116464328Y-93652710D01*
G37*
G36*
X115773801Y-84929246D02*
G01*
X116115031Y-85097341D01*
X116464328Y-85097341D01*
X116464328Y-85284934D01*
X116107507Y-85284934D01*
X115770039Y-85453866D01*
X115432570Y-85622798D01*
X115432570Y-85422508D01*
X115680542Y-85306008D01*
X115928514Y-85189507D01*
X115680542Y-85074852D01*
X115432570Y-84960196D01*
X115432570Y-84761151D01*
X115773801Y-84929246D01*
G37*
G36*
X113695757Y-77499940D02*
G01*
X113889549Y-77500337D01*
X114053245Y-77501258D01*
X114189576Y-77502919D01*
X114301277Y-77505535D01*
X114344534Y-77507360D01*
X114391081Y-77509324D01*
X114461723Y-77514503D01*
X114515935Y-77521286D01*
X114556452Y-77529892D01*
X114586007Y-77540536D01*
X114607334Y-77553435D01*
X114623166Y-77568805D01*
X114636238Y-77586863D01*
X114649282Y-77607824D01*
X114653959Y-77616523D01*
X114659710Y-77632592D01*
X114664601Y-77655716D01*
X114668703Y-77688665D01*
X114672085Y-77734209D01*
X114674819Y-77795117D01*
X114676975Y-77874157D01*
X114678622Y-77974100D01*
X114679832Y-78097715D01*
X114680675Y-78247771D01*
X114681220Y-78427037D01*
X114681539Y-78638283D01*
X114681701Y-78884277D01*
X114681720Y-79109557D01*
X114681518Y-79326780D01*
X114681025Y-79511621D01*
X114680182Y-79666785D01*
X114678930Y-79794978D01*
X114677209Y-79898902D01*
X114674961Y-79981264D01*
X114672127Y-80044766D01*
X114668647Y-80092115D01*
X114664463Y-80126013D01*
X114659515Y-80149166D01*
X114653744Y-80164277D01*
X114642912Y-80185438D01*
X114631927Y-80204082D01*
X114618335Y-80219983D01*
X114599449Y-80233360D01*
X114572584Y-80244430D01*
X114535056Y-80253412D01*
X114484177Y-80260523D01*
X114417264Y-80265982D01*
X114331630Y-80270005D01*
X114224590Y-80272812D01*
X114093459Y-80274619D01*
X113935551Y-80275646D01*
X113748181Y-80276110D01*
X113528664Y-80276228D01*
X113274314Y-80276219D01*
X112033397Y-80276219D01*
X111969616Y-80212437D01*
X111905834Y-80148656D01*
X111905834Y-79544609D01*
X112224255Y-79544609D01*
X112565397Y-79544609D01*
X112559212Y-79310096D01*
X112553028Y-79075583D01*
X113289328Y-79075605D01*
X114025627Y-79075628D01*
X114025627Y-79544609D01*
X114344534Y-79544609D01*
X114344534Y-78231463D01*
X114026748Y-78231463D01*
X114021498Y-78466442D01*
X114016248Y-78701422D01*
X113294017Y-78701441D01*
X112571787Y-78701460D01*
X112562407Y-78471151D01*
X112553028Y-78240842D01*
X112234121Y-78240842D01*
X112229188Y-78892725D01*
X112224255Y-79544609D01*
X111905834Y-79544609D01*
X111905834Y-78907739D01*
X111905825Y-78657930D01*
X111905939Y-78437770D01*
X111906394Y-78249809D01*
X111907407Y-78091362D01*
X111909198Y-77959742D01*
X111911983Y-77852266D01*
X111915982Y-77766247D01*
X111921410Y-77699000D01*
X111928488Y-77647839D01*
X111937432Y-77610079D01*
X111948460Y-77583036D01*
X111961791Y-77564022D01*
X111977641Y-77550353D01*
X111996230Y-77539344D01*
X112017776Y-77528309D01*
X112029812Y-77523461D01*
X112051498Y-77518347D01*
X112083527Y-77514009D01*
X112128614Y-77510387D01*
X112189479Y-77507420D01*
X112268837Y-77505046D01*
X112369408Y-77503205D01*
X112493908Y-77501836D01*
X112645056Y-77500876D01*
X112825569Y-77500267D01*
X113038165Y-77499946D01*
X113285561Y-77499853D01*
X113469133Y-77499850D01*
X113695757Y-77499940D01*
G37*
G36*
X116460052Y-89611840D02*
G01*
X116454948Y-89961788D01*
X116391600Y-89963596D01*
X116385917Y-89963682D01*
X116342923Y-89958838D01*
X116321796Y-89946623D01*
X116321395Y-89945040D01*
X116318529Y-89915028D01*
X116315464Y-89856381D01*
X116312543Y-89776797D01*
X116310107Y-89683974D01*
X116304874Y-89440104D01*
X116168870Y-89434592D01*
X116032865Y-89429080D01*
X116032865Y-89824668D01*
X115864032Y-89824668D01*
X115864032Y-89430724D01*
X115732718Y-89430724D01*
X115727922Y-89430727D01*
X115663658Y-89431422D01*
X115617485Y-89433098D01*
X115599114Y-89435414D01*
X115598733Y-89438077D01*
X115596651Y-89468489D01*
X115593434Y-89527209D01*
X115589444Y-89607362D01*
X115585045Y-89702076D01*
X115573264Y-89964049D01*
X115507607Y-89964693D01*
X115441949Y-89965337D01*
X115436846Y-89613614D01*
X115431742Y-89261891D01*
X116465155Y-89261891D01*
X116460052Y-89611840D01*
G37*
G36*
X109376547Y-94378471D02*
G01*
X109376834Y-94401269D01*
X109378131Y-94497865D01*
X109379384Y-94582084D01*
X109380462Y-94645547D01*
X109381236Y-94679873D01*
X109382718Y-94723335D01*
X110269091Y-94722046D01*
X111155465Y-94720756D01*
X111155465Y-95095645D01*
X110269091Y-95100518D01*
X109382718Y-95105392D01*
X109382718Y-95696337D01*
X109218574Y-95696322D01*
X109054431Y-95696307D01*
X109054431Y-94120532D01*
X109373338Y-94120532D01*
X109376547Y-94378471D01*
G37*
G36*
X116464328Y-86766209D02*
G01*
X116037555Y-86771251D01*
X115927812Y-86772433D01*
X115812353Y-86773772D01*
X115732889Y-86775716D01*
X115688554Y-86779238D01*
X115678483Y-86785314D01*
X115701812Y-86794918D01*
X115757675Y-86809024D01*
X115845209Y-86828608D01*
X115963547Y-86854643D01*
X116091201Y-86882944D01*
X116085482Y-86951121D01*
X116079763Y-87019299D01*
X115845273Y-87068948D01*
X115826933Y-87072882D01*
X115745152Y-87091824D01*
X115682663Y-87108632D01*
X115645305Y-87121603D01*
X115638921Y-87129038D01*
X115643483Y-87130028D01*
X115680530Y-87132790D01*
X115747243Y-87134876D01*
X115837652Y-87136189D01*
X115945784Y-87136629D01*
X116065667Y-87136098D01*
X116464273Y-87132718D01*
X116464300Y-87221824D01*
X116464328Y-87310931D01*
X115430926Y-87310931D01*
X115436438Y-87175686D01*
X115441949Y-87040442D01*
X115644113Y-87000098D01*
X115713312Y-86985837D01*
X115784438Y-86970053D01*
X115834550Y-86957587D01*
X115855730Y-86950302D01*
X115842376Y-86943292D01*
X115798921Y-86931153D01*
X115732155Y-86915600D01*
X115648876Y-86898341D01*
X115432570Y-86855832D01*
X115432570Y-86598080D01*
X116464328Y-86598080D01*
X116464328Y-86766209D01*
G37*
G36*
X113724902Y-90781522D02*
G01*
X113915913Y-90781919D01*
X114077055Y-90782848D01*
X114211039Y-90784521D01*
X114320571Y-90787155D01*
X114408359Y-90790964D01*
X114477112Y-90796162D01*
X114529537Y-90802965D01*
X114568341Y-90811586D01*
X114596233Y-90822241D01*
X114615921Y-90835144D01*
X114630112Y-90850510D01*
X114641514Y-90868554D01*
X114652835Y-90889490D01*
X114654505Y-90893830D01*
X114660598Y-90933092D01*
X114666017Y-91004976D01*
X114670762Y-91105588D01*
X114674830Y-91231036D01*
X114678220Y-91377427D01*
X114680931Y-91540867D01*
X114682961Y-91717465D01*
X114684310Y-91903326D01*
X114684975Y-92094557D01*
X114684956Y-92287267D01*
X114684251Y-92477561D01*
X114682858Y-92661548D01*
X114680776Y-92835333D01*
X114678005Y-92995024D01*
X114674541Y-93136728D01*
X114670385Y-93256552D01*
X114665534Y-93350603D01*
X114659988Y-93414988D01*
X114653744Y-93445814D01*
X114644171Y-93464536D01*
X114633201Y-93483656D01*
X114619913Y-93499967D01*
X114601599Y-93513693D01*
X114575550Y-93525055D01*
X114539061Y-93534277D01*
X114489422Y-93541583D01*
X114423926Y-93547193D01*
X114339866Y-93551333D01*
X114234533Y-93554224D01*
X114105221Y-93556090D01*
X113949220Y-93557153D01*
X113763825Y-93557636D01*
X113546326Y-93557762D01*
X113294017Y-93557755D01*
X113107194Y-93557760D01*
X112881720Y-93557683D01*
X112689027Y-93557321D01*
X112526377Y-93556470D01*
X112391030Y-93554924D01*
X112280248Y-93552479D01*
X112191292Y-93548930D01*
X112121424Y-93544072D01*
X112067906Y-93537700D01*
X112027997Y-93529609D01*
X111998961Y-93519594D01*
X111978057Y-93507451D01*
X111962548Y-93492973D01*
X111949695Y-93475957D01*
X111936759Y-93456198D01*
X111933192Y-93449980D01*
X111927481Y-93434902D01*
X111922616Y-93412480D01*
X111918529Y-93379970D01*
X111915156Y-93334629D01*
X111912428Y-93273715D01*
X111910279Y-93194484D01*
X111908644Y-93094193D01*
X111907455Y-92970099D01*
X111906646Y-92819459D01*
X111906151Y-92639530D01*
X111905902Y-92427569D01*
X111905834Y-92180833D01*
X111905944Y-92021984D01*
X111906567Y-91784866D01*
X111907717Y-91571716D01*
X111908730Y-91456721D01*
X112223123Y-91456721D01*
X112225833Y-91710090D01*
X112225941Y-91720139D01*
X112227360Y-91819119D01*
X112229738Y-91887215D01*
X112234076Y-91930539D01*
X112241374Y-91955207D01*
X112252632Y-91967330D01*
X112268850Y-91973023D01*
X112281982Y-91975906D01*
X112328485Y-91985583D01*
X112400185Y-92000226D01*
X112490884Y-92018596D01*
X112594387Y-92039452D01*
X112704495Y-92061552D01*
X112815012Y-92083656D01*
X112919741Y-92104524D01*
X113012484Y-92122914D01*
X113087046Y-92137586D01*
X113137228Y-92147299D01*
X113156834Y-92150813D01*
X113157531Y-92150927D01*
X113162703Y-92166932D01*
X113152077Y-92172501D01*
X113109394Y-92185055D01*
X113038658Y-92202571D01*
X112944835Y-92223889D01*
X112832891Y-92247847D01*
X112707791Y-92273284D01*
X112611648Y-92292706D01*
X112494634Y-92317375D01*
X112393909Y-92339786D01*
X112314614Y-92358746D01*
X112261890Y-92373064D01*
X112240880Y-92381548D01*
X112240244Y-92382841D01*
X112235822Y-92411939D01*
X112232243Y-92469808D01*
X112229862Y-92548733D01*
X112229030Y-92641001D01*
X112229180Y-92882423D01*
X114344534Y-92882423D01*
X114344534Y-92544756D01*
X113470667Y-92544756D01*
X113348430Y-92544689D01*
X113153159Y-92544196D01*
X112991781Y-92543173D01*
X112861956Y-92541561D01*
X112761342Y-92539299D01*
X112687600Y-92536328D01*
X112638389Y-92532588D01*
X112611369Y-92528018D01*
X112604199Y-92522559D01*
X112606448Y-92519875D01*
X112635736Y-92506597D01*
X112693001Y-92488941D01*
X112771302Y-92468889D01*
X112863701Y-92448424D01*
X113025959Y-92414872D01*
X113182900Y-92382126D01*
X113313856Y-92354461D01*
X113416128Y-92332453D01*
X113487015Y-92316677D01*
X113523818Y-92307709D01*
X113538004Y-92300262D01*
X113549587Y-92278440D01*
X113555188Y-92235389D01*
X113556647Y-92162999D01*
X113556647Y-92027640D01*
X113420642Y-92002614D01*
X113410747Y-92000768D01*
X113344784Y-91987889D01*
X113252726Y-91969338D01*
X113143296Y-91946929D01*
X113025214Y-91922474D01*
X112907202Y-91897787D01*
X112797982Y-91874681D01*
X112706275Y-91854970D01*
X112640801Y-91840467D01*
X112614293Y-91829204D01*
X112604037Y-91810194D01*
X112606347Y-91808282D01*
X112632934Y-91803159D01*
X112689963Y-91798803D01*
X112778611Y-91795182D01*
X112900059Y-91792266D01*
X113055484Y-91790023D01*
X113246066Y-91788424D01*
X113472984Y-91787437D01*
X114335155Y-91785008D01*
X114340575Y-91620864D01*
X114345995Y-91456721D01*
X112223123Y-91456721D01*
X111908730Y-91456721D01*
X111909366Y-91384471D01*
X111911486Y-91225066D01*
X111914050Y-91095437D01*
X111917030Y-90997518D01*
X111920398Y-90933245D01*
X111924126Y-90904554D01*
X111926327Y-90899418D01*
X111957856Y-90856651D01*
X112003853Y-90818986D01*
X112011660Y-90814402D01*
X112025787Y-90807570D01*
X112043620Y-90801755D01*
X112067977Y-90796876D01*
X112101676Y-90792851D01*
X112147534Y-90789597D01*
X112208369Y-90787031D01*
X112223123Y-90786664D01*
X112286999Y-90785073D01*
X112386242Y-90783638D01*
X112508915Y-90782647D01*
X112657835Y-90782015D01*
X112835821Y-90781661D01*
X113045689Y-90781503D01*
X113290259Y-90781459D01*
X113501317Y-90781440D01*
X113724902Y-90781522D01*
G37*
G36*
X116464329Y-83981167D02*
G01*
X116464328Y-84244089D01*
X116464307Y-84266545D01*
X116463237Y-84370768D01*
X116459989Y-84446139D01*
X116453783Y-84499981D01*
X116443839Y-84539619D01*
X116429377Y-84572376D01*
X116429072Y-84572945D01*
X116369365Y-84647144D01*
X116286454Y-84692411D01*
X116182200Y-84707727D01*
X116160772Y-84707204D01*
X116073402Y-84689853D01*
X116006654Y-84645696D01*
X115957280Y-84571698D01*
X115922028Y-84464827D01*
X115916269Y-84442289D01*
X115907438Y-84421273D01*
X115903435Y-84437010D01*
X115902584Y-84447349D01*
X115883868Y-84511563D01*
X115848407Y-84571582D01*
X115805570Y-84610770D01*
X115762537Y-84626062D01*
X115686246Y-84633137D01*
X115609188Y-84623201D01*
X115548907Y-84597183D01*
X115533445Y-84585304D01*
X115490838Y-84542551D01*
X115461913Y-84490669D01*
X115444645Y-84422665D01*
X115437012Y-84331548D01*
X115436990Y-84210323D01*
X115438133Y-84159380D01*
X115589250Y-84159380D01*
X115595259Y-84263663D01*
X115598897Y-84305394D01*
X115608409Y-84364979D01*
X115620054Y-84403047D01*
X115639521Y-84425820D01*
X115686533Y-84444488D01*
X115740948Y-84441666D01*
X115789555Y-84419007D01*
X115819143Y-84378161D01*
X115822615Y-84363914D01*
X115829691Y-84312093D01*
X115833573Y-84249687D01*
X115835893Y-84159380D01*
X116004364Y-84159380D01*
X116009241Y-84293997D01*
X116016010Y-84377477D01*
X116034853Y-84452252D01*
X116067054Y-84498330D01*
X116114554Y-84519875D01*
X116148301Y-84521494D01*
X116206440Y-84508434D01*
X116256370Y-84481539D01*
X116283445Y-84447117D01*
X116288529Y-84425640D01*
X116296700Y-84371165D01*
X116302850Y-84306745D01*
X116306207Y-84244160D01*
X116306003Y-84195186D01*
X116301466Y-84171604D01*
X116299835Y-84170526D01*
X116271013Y-84164870D01*
X116216608Y-84160887D01*
X116146803Y-84159380D01*
X116004364Y-84159380D01*
X115835893Y-84159380D01*
X115835893Y-84159367D01*
X115712572Y-84159373D01*
X115589250Y-84159380D01*
X115438133Y-84159380D01*
X115441949Y-83989257D01*
X115835893Y-83986140D01*
X116004364Y-83984807D01*
X116464329Y-83981167D01*
G37*
G36*
X115554412Y-88325587D02*
G01*
X115574405Y-88335529D01*
X115583639Y-88361049D01*
X115585487Y-88409460D01*
X115583319Y-88488073D01*
X115579600Y-88605318D01*
X115979756Y-88607978D01*
X116017254Y-88608230D01*
X116135889Y-88609069D01*
X116241922Y-88609880D01*
X116329124Y-88610610D01*
X116391266Y-88611208D01*
X116422119Y-88611623D01*
X116433321Y-88612302D01*
X116453570Y-88621151D01*
X116462394Y-88647937D01*
X116464328Y-88702413D01*
X116464328Y-88792219D01*
X116028175Y-88797254D01*
X115592023Y-88802290D01*
X115586283Y-89083678D01*
X115509426Y-89089447D01*
X115432570Y-89095215D01*
X115432570Y-88323929D01*
X115507607Y-88323929D01*
X115520286Y-88323912D01*
X115554412Y-88325587D01*
G37*
G36*
X109786041Y-87161103D02*
G01*
X109831851Y-87192470D01*
X109907987Y-87269800D01*
X109971652Y-87365501D01*
X110013817Y-87467433D01*
X110035752Y-87545421D01*
X110058717Y-87469364D01*
X110071959Y-87429544D01*
X110132969Y-87301820D01*
X110213502Y-87195299D01*
X110308866Y-87115287D01*
X110414371Y-87067090D01*
X110447736Y-87059011D01*
X110539511Y-87050433D01*
X110572898Y-87047312D01*
X110701804Y-87060101D01*
X110824889Y-87094928D01*
X110932585Y-87149344D01*
X111015326Y-87220902D01*
X111043440Y-87258197D01*
X111097982Y-87352113D01*
X111143799Y-87457775D01*
X111172911Y-87558108D01*
X111173333Y-87560263D01*
X111192483Y-87723192D01*
X111188460Y-87885967D01*
X111162890Y-88041743D01*
X111117399Y-88183677D01*
X111053614Y-88304927D01*
X110973160Y-88398650D01*
X110969061Y-88402224D01*
X110861102Y-88474709D01*
X110737985Y-88516704D01*
X110594036Y-88530176D01*
X110492146Y-88525663D01*
X110396643Y-88507021D01*
X110316944Y-88470533D01*
X110242238Y-88412585D01*
X110188398Y-88358691D01*
X110142223Y-88297791D01*
X110104392Y-88225033D01*
X110067221Y-88127919D01*
X110067170Y-88127773D01*
X110047962Y-88074008D01*
X110036641Y-88052092D01*
X110028804Y-88058432D01*
X110020048Y-88089439D01*
X110010644Y-88121548D01*
X109968603Y-88219369D01*
X109912271Y-88309235D01*
X109850350Y-88376429D01*
X109755446Y-88434603D01*
X109636192Y-88466886D01*
X109495658Y-88469383D01*
X109378913Y-88447499D01*
X109264578Y-88393466D01*
X109171576Y-88309060D01*
X109100356Y-88194844D01*
X109051368Y-88051384D01*
X109025061Y-87879242D01*
X109022435Y-87802081D01*
X109404094Y-87802081D01*
X109409368Y-87864941D01*
X109439232Y-87953932D01*
X109492829Y-88017351D01*
X109567161Y-88052223D01*
X109659235Y-88055571D01*
X109719383Y-88040271D01*
X109787209Y-87993963D01*
X109835528Y-87916519D01*
X109847425Y-87883225D01*
X109860543Y-87788190D01*
X110238420Y-87788190D01*
X110244207Y-87883385D01*
X110269992Y-87966835D01*
X110294957Y-88007600D01*
X110361372Y-88069682D01*
X110443431Y-88106557D01*
X110532879Y-88117785D01*
X110621466Y-88102924D01*
X110700940Y-88061534D01*
X110763047Y-87993174D01*
X110764592Y-87990620D01*
X110792965Y-87917914D01*
X110808506Y-87826351D01*
X110809696Y-87732145D01*
X110795020Y-87651505D01*
X110772277Y-87601605D01*
X110711531Y-87530244D01*
X110631351Y-87482996D01*
X110539511Y-87462331D01*
X110443781Y-87470720D01*
X110351936Y-87510636D01*
X110322343Y-87536254D01*
X110279358Y-87604212D01*
X110250760Y-87691661D01*
X110238420Y-87788190D01*
X109860543Y-87788190D01*
X109860674Y-87787244D01*
X109846411Y-87694245D01*
X109807022Y-87613740D01*
X109744894Y-87555240D01*
X109681351Y-87525671D01*
X109612919Y-87520508D01*
X109533435Y-87543943D01*
X109512884Y-87553958D01*
X109452186Y-87609125D01*
X109415756Y-87692165D01*
X109404094Y-87802081D01*
X109022435Y-87802081D01*
X109021198Y-87765734D01*
X109036360Y-87598825D01*
X109076274Y-87450246D01*
X109139469Y-87323524D01*
X109224471Y-87222182D01*
X109329808Y-87149748D01*
X109383990Y-87129833D01*
X109485029Y-87113326D01*
X109595395Y-87113277D01*
X109612919Y-87115951D01*
X109700571Y-87129323D01*
X109786041Y-87161103D01*
G37*
G36*
X109765328Y-92611906D02*
G01*
X110466846Y-92957460D01*
X111155465Y-92957460D01*
X111155465Y-93313885D01*
X110442465Y-93313885D01*
X110315915Y-93379152D01*
X110291992Y-93391374D01*
X110227123Y-93424118D01*
X110136709Y-93469462D01*
X110025865Y-93524851D01*
X109899706Y-93587732D01*
X109763345Y-93655549D01*
X109621898Y-93725749D01*
X109054431Y-94007079D01*
X109054431Y-93602632D01*
X109561455Y-93370615D01*
X109606317Y-93350006D01*
X109729363Y-93292619D01*
X109838428Y-93240494D01*
X109929463Y-93195652D01*
X109998417Y-93160112D01*
X110041241Y-93135894D01*
X110053885Y-93125018D01*
X110053105Y-93124424D01*
X110028802Y-93111537D01*
X109975409Y-93085531D01*
X109897427Y-93048526D01*
X109799354Y-93002644D01*
X109685689Y-92950003D01*
X109560930Y-92892724D01*
X109544620Y-92885262D01*
X109421000Y-92828401D01*
X109309037Y-92776382D01*
X109213235Y-92731336D01*
X109138095Y-92695394D01*
X109088119Y-92670686D01*
X109067810Y-92659343D01*
X109063820Y-92647245D01*
X109059477Y-92603408D01*
X109057546Y-92536587D01*
X109058431Y-92455515D01*
X109063811Y-92266353D01*
X109765328Y-92611906D01*
G37*
G36*
X111155465Y-85727012D02*
G01*
X110930394Y-85854746D01*
X110905818Y-85868752D01*
X110826091Y-85915035D01*
X110760388Y-85954456D01*
X110714957Y-85983210D01*
X110696044Y-85997493D01*
X110697418Y-86001468D01*
X110721458Y-86022484D01*
X110770325Y-86056810D01*
X110838562Y-86100730D01*
X110920715Y-86150529D01*
X111154664Y-86288553D01*
X111155064Y-86527733D01*
X111155071Y-86541802D01*
X111154275Y-86629739D01*
X111152223Y-86701258D01*
X111149195Y-86749327D01*
X111145475Y-86766913D01*
X111136891Y-86761951D01*
X111101811Y-86737795D01*
X111043822Y-86696320D01*
X110967182Y-86640606D01*
X110876149Y-86573735D01*
X110774980Y-86498788D01*
X110707962Y-86448996D01*
X110611299Y-86377374D01*
X110526821Y-86315014D01*
X110459001Y-86265206D01*
X110412312Y-86231243D01*
X110391226Y-86216416D01*
X110389495Y-86215880D01*
X110362176Y-86225903D01*
X110307739Y-86258173D01*
X110227950Y-86311519D01*
X110124572Y-86384768D01*
X109999369Y-86476749D01*
X109924774Y-86532127D01*
X109827462Y-86603771D01*
X109742416Y-86665693D01*
X109674071Y-86714693D01*
X109626862Y-86747571D01*
X109605225Y-86761128D01*
X109595662Y-86760062D01*
X109587809Y-86742611D01*
X109582914Y-86702893D01*
X109580399Y-86635829D01*
X109579689Y-86536343D01*
X109579689Y-86301759D01*
X109826567Y-86156891D01*
X109887744Y-86120571D01*
X109970157Y-86069307D01*
X110022677Y-86032551D01*
X110047541Y-86008670D01*
X110046988Y-85996029D01*
X110044441Y-85994496D01*
X110013695Y-85976161D01*
X109958895Y-85943591D01*
X109886958Y-85900894D01*
X109804800Y-85852180D01*
X109589069Y-85724324D01*
X109583819Y-85485870D01*
X109583541Y-85472317D01*
X109582790Y-85384480D01*
X109583958Y-85313025D01*
X109586827Y-85264991D01*
X109591179Y-85247415D01*
X109595195Y-85249215D01*
X109624407Y-85267894D01*
X109677460Y-85304276D01*
X109749797Y-85355168D01*
X109836861Y-85417379D01*
X109934096Y-85487714D01*
X109966088Y-85510980D01*
X110065605Y-85583236D01*
X110156672Y-85649192D01*
X110233822Y-85704898D01*
X110291587Y-85746405D01*
X110324501Y-85769762D01*
X110384601Y-85811511D01*
X110709065Y-85570778D01*
X110737463Y-85549719D01*
X110836098Y-85476724D01*
X110926616Y-85409960D01*
X111003519Y-85353466D01*
X111061312Y-85311284D01*
X111094497Y-85287453D01*
X111155465Y-85244860D01*
X111155465Y-85727012D01*
G37*
G36*
X116043470Y-94476282D02*
G01*
X116188156Y-94497868D01*
X116303126Y-94540536D01*
X116389575Y-94604810D01*
X116448701Y-94691214D01*
X116467071Y-94746484D01*
X116478663Y-94834644D01*
X116476321Y-94927617D01*
X116460625Y-95011973D01*
X116432156Y-95074278D01*
X116383621Y-95126377D01*
X116296444Y-95187749D01*
X116200271Y-95227711D01*
X116145801Y-95237517D01*
X116058550Y-95244899D01*
X115957978Y-95247824D01*
X115856724Y-95246247D01*
X115767426Y-95240125D01*
X115702722Y-95229416D01*
X115662818Y-95216749D01*
X115557989Y-95160473D01*
X115479686Y-95080175D01*
X115430799Y-94979536D01*
X115416776Y-94880301D01*
X115584245Y-94880301D01*
X115603007Y-94948936D01*
X115613860Y-94965080D01*
X115667647Y-95006831D01*
X115746321Y-95037415D01*
X115841573Y-95056559D01*
X115945095Y-95063989D01*
X116048580Y-95059431D01*
X116143719Y-95042612D01*
X116222205Y-95013258D01*
X116275729Y-94971095D01*
X116305194Y-94910490D01*
X116312220Y-94836818D01*
X116292995Y-94770635D01*
X116265146Y-94739017D01*
X116200294Y-94702832D01*
X116113971Y-94678331D01*
X116014351Y-94665471D01*
X115909610Y-94664209D01*
X115807922Y-94674502D01*
X115717460Y-94696306D01*
X115646400Y-94729579D01*
X115602916Y-94774277D01*
X115590519Y-94806172D01*
X115584245Y-94880301D01*
X115416776Y-94880301D01*
X115414223Y-94862237D01*
X115427939Y-94749482D01*
X115471915Y-94650010D01*
X115546189Y-94572651D01*
X115650766Y-94517400D01*
X115785653Y-94484253D01*
X115909610Y-94475964D01*
X115950856Y-94473206D01*
X116043470Y-94476282D01*
G37*
G36*
X111155465Y-84929916D02*
G01*
X110985415Y-84924522D01*
X110815365Y-84919129D01*
X110814419Y-84698708D01*
X110813474Y-84478287D01*
X109054431Y-84478287D01*
X109054431Y-84265783D01*
X109055038Y-84178872D01*
X109058289Y-84112248D01*
X109066362Y-84054856D01*
X109081436Y-83995640D01*
X109105690Y-83923544D01*
X109141301Y-83827512D01*
X109228172Y-83596603D01*
X109413310Y-83596603D01*
X109465612Y-83597261D01*
X109534082Y-83600527D01*
X109581025Y-83605909D01*
X109598449Y-83612712D01*
X109593297Y-83632451D01*
X109577342Y-83680780D01*
X109553168Y-83749552D01*
X109523412Y-83831093D01*
X109496349Y-83905450D01*
X109471466Y-83976941D01*
X109454589Y-84029144D01*
X109448372Y-84054164D01*
X109457696Y-84059315D01*
X109492985Y-84064163D01*
X109556359Y-84067842D01*
X109649703Y-84070403D01*
X109774900Y-84071894D01*
X109933836Y-84072363D01*
X110128394Y-84071861D01*
X110808419Y-84068760D01*
X110812607Y-83846751D01*
X110814190Y-83762414D01*
X110815668Y-83682749D01*
X110816758Y-83622980D01*
X110817297Y-83591913D01*
X110818394Y-83583022D01*
X110828635Y-83570519D01*
X110855435Y-83563264D01*
X110905773Y-83559904D01*
X110986632Y-83559084D01*
X111155465Y-83559084D01*
X111155465Y-84929916D01*
G37*
G36*
X114485592Y-97433581D02*
G01*
X114545829Y-97437543D01*
X114571882Y-97442113D01*
X114575301Y-97444098D01*
X114611080Y-97476122D01*
X114645616Y-97521840D01*
X114649119Y-97527790D01*
X114655905Y-97541713D01*
X114661691Y-97559411D01*
X114666556Y-97583695D01*
X114670580Y-97617378D01*
X114673842Y-97663272D01*
X114676424Y-97724189D01*
X114678404Y-97802940D01*
X114679863Y-97902338D01*
X114680880Y-98025194D01*
X114681536Y-98174321D01*
X114681909Y-98352531D01*
X114682081Y-98562635D01*
X114682130Y-98807446D01*
X114682132Y-98827161D01*
X114682178Y-99077085D01*
X114682102Y-99292390D01*
X114681658Y-99475777D01*
X114680600Y-99629947D01*
X114678684Y-99757602D01*
X114675663Y-99861443D01*
X114671292Y-99944170D01*
X114665326Y-100008486D01*
X114657518Y-100057092D01*
X114647623Y-100092689D01*
X114635397Y-100117978D01*
X114620592Y-100135660D01*
X114602964Y-100148437D01*
X114582267Y-100159011D01*
X114558255Y-100170081D01*
X114556357Y-100170858D01*
X114520063Y-100177143D01*
X114450753Y-100182725D01*
X114352346Y-100187605D01*
X114228758Y-100191781D01*
X114083909Y-100195254D01*
X113921717Y-100198024D01*
X113746100Y-100200091D01*
X113560976Y-100201455D01*
X113370263Y-100202116D01*
X113177880Y-100202074D01*
X112987745Y-100201329D01*
X112803777Y-100199881D01*
X112629892Y-100197731D01*
X112470010Y-100194877D01*
X112328049Y-100191321D01*
X112207926Y-100187061D01*
X112113561Y-100182099D01*
X112048872Y-100176434D01*
X112017776Y-100170067D01*
X111996615Y-100159234D01*
X111977971Y-100148250D01*
X111962070Y-100134657D01*
X111948693Y-100115772D01*
X111937623Y-100088907D01*
X111928641Y-100051378D01*
X111921530Y-100000500D01*
X111916072Y-99933586D01*
X111912048Y-99847952D01*
X111909241Y-99740913D01*
X111907434Y-99609782D01*
X111906407Y-99451874D01*
X111905944Y-99264504D01*
X111905825Y-99044987D01*
X111905834Y-98790636D01*
X111905834Y-98463464D01*
X112227994Y-98463464D01*
X112229200Y-98660042D01*
X112237153Y-98824826D01*
X112252938Y-98961923D01*
X112277643Y-99075442D01*
X112312352Y-99169493D01*
X112358152Y-99248184D01*
X112416130Y-99315624D01*
X112487370Y-99375922D01*
X112540187Y-99410539D01*
X112649346Y-99456780D01*
X112777092Y-99479868D01*
X112929995Y-99481370D01*
X112966841Y-99478976D01*
X113101860Y-99458931D01*
X113213782Y-99419469D01*
X113312011Y-99356318D01*
X113405955Y-99265206D01*
X113500094Y-99159585D01*
X113823828Y-99315253D01*
X113923243Y-99362937D01*
X114028429Y-99413140D01*
X114122282Y-99457681D01*
X114197316Y-99493011D01*
X114246048Y-99515579D01*
X114344534Y-99560236D01*
X114343889Y-99349431D01*
X114343243Y-99138627D01*
X113949945Y-98971313D01*
X113556647Y-98804000D01*
X113556647Y-98397637D01*
X114344534Y-98397637D01*
X114344534Y-98040899D01*
X113289328Y-98045745D01*
X112234121Y-98050591D01*
X112228786Y-98397637D01*
X112227994Y-98463464D01*
X111905834Y-98463464D01*
X111905834Y-97549720D01*
X112033397Y-97422157D01*
X113283995Y-97422157D01*
X113380831Y-97422186D01*
X113655724Y-97422647D01*
X113893704Y-97423674D01*
X114095226Y-97425273D01*
X114260745Y-97427453D01*
X114344534Y-97429237D01*
X114390716Y-97430220D01*
X114485592Y-97433581D01*
G37*
G36*
X116287119Y-87464858D02*
G01*
X116367319Y-87442775D01*
X116421212Y-87428534D01*
X116443948Y-87423486D01*
X116450479Y-87427691D01*
X116460537Y-87459758D01*
X116464328Y-87515937D01*
X116464328Y-87608388D01*
X116361152Y-87631478D01*
X116257976Y-87654567D01*
X116257976Y-88002332D01*
X116361152Y-88025421D01*
X116464328Y-88048511D01*
X116464328Y-88244752D01*
X116018796Y-88115200D01*
X115932023Y-88089992D01*
X115809695Y-88054538D01*
X115699698Y-88022751D01*
X115607955Y-87996340D01*
X115540387Y-87977012D01*
X115502917Y-87966474D01*
X115432570Y-87947299D01*
X115432570Y-87830516D01*
X115645754Y-87830516D01*
X115645911Y-87830648D01*
X115666800Y-87838160D01*
X115714758Y-87852587D01*
X115780930Y-87871501D01*
X115856461Y-87892471D01*
X115932497Y-87913067D01*
X116000180Y-87930861D01*
X116050658Y-87943421D01*
X116075074Y-87948318D01*
X116082073Y-87932094D01*
X116087189Y-87887924D01*
X116089143Y-87825546D01*
X116088259Y-87764697D01*
X116083920Y-87726148D01*
X116073984Y-87711067D01*
X116056314Y-87712075D01*
X116037329Y-87717414D01*
X115985973Y-87731380D01*
X115914166Y-87750641D01*
X115831163Y-87772703D01*
X115768270Y-87789837D01*
X115702953Y-87808950D01*
X115659739Y-87823251D01*
X115645754Y-87830516D01*
X115432570Y-87830516D01*
X115432570Y-87711077D01*
X115928069Y-87567281D01*
X115937173Y-87564640D01*
X116067196Y-87527142D01*
X116073984Y-87525207D01*
X116185461Y-87493431D01*
X116287119Y-87464858D01*
G37*
G36*
X113884231Y-94104552D02*
G01*
X114069767Y-94105759D01*
X114218277Y-94107862D01*
X114329640Y-94110860D01*
X114403735Y-94114752D01*
X114440443Y-94119536D01*
X114512324Y-94153645D01*
X114588106Y-94223030D01*
X114646955Y-94317504D01*
X114649304Y-94322774D01*
X114656217Y-94341207D01*
X114662064Y-94363893D01*
X114666932Y-94393855D01*
X114670910Y-94434118D01*
X114674088Y-94487706D01*
X114676555Y-94557644D01*
X114678398Y-94646955D01*
X114679707Y-94758663D01*
X114680571Y-94895793D01*
X114681078Y-95061370D01*
X114681317Y-95258416D01*
X114681377Y-95489956D01*
X114681371Y-95573089D01*
X114681262Y-95792433D01*
X114680946Y-95978317D01*
X114680334Y-96133767D01*
X114679337Y-96261807D01*
X114677864Y-96365463D01*
X114675826Y-96447759D01*
X114673135Y-96511722D01*
X114669701Y-96560376D01*
X114665434Y-96596747D01*
X114660245Y-96623859D01*
X114654045Y-96644737D01*
X114646745Y-96662408D01*
X114620944Y-96710485D01*
X114550099Y-96791917D01*
X114452746Y-96849105D01*
X114422107Y-96855385D01*
X114356239Y-96861553D01*
X114260838Y-96866904D01*
X114140097Y-96871438D01*
X113998203Y-96875155D01*
X113839349Y-96878055D01*
X113667723Y-96880137D01*
X113487515Y-96881402D01*
X113302917Y-96881850D01*
X113118117Y-96881481D01*
X112937306Y-96880294D01*
X112764675Y-96878290D01*
X112604412Y-96875469D01*
X112460709Y-96871831D01*
X112337754Y-96867375D01*
X112239740Y-96862102D01*
X112170854Y-96856012D01*
X112135288Y-96849105D01*
X112095979Y-96830388D01*
X112007724Y-96763275D01*
X111941527Y-96667845D01*
X111936762Y-96658038D01*
X111929997Y-96640609D01*
X111924296Y-96618587D01*
X111919566Y-96588979D01*
X111915719Y-96548791D01*
X111912663Y-96495031D01*
X111910308Y-96424705D01*
X111908564Y-96334820D01*
X111907340Y-96222382D01*
X111906546Y-96084400D01*
X111906090Y-95917878D01*
X111905883Y-95719825D01*
X111905834Y-95487246D01*
X111905834Y-95459018D01*
X111905871Y-95231122D01*
X111906041Y-95037373D01*
X111906446Y-94874743D01*
X111906984Y-94777105D01*
X112224290Y-94777105D01*
X112229205Y-95485266D01*
X112234121Y-96193427D01*
X112562407Y-96204267D01*
X112562407Y-95133530D01*
X113124438Y-95133530D01*
X113129501Y-95531238D01*
X113134564Y-95928945D01*
X113294017Y-95928938D01*
X113453471Y-95928931D01*
X113453471Y-95133542D01*
X114025627Y-95133530D01*
X114025627Y-96202807D01*
X114344534Y-96202807D01*
X114344534Y-94777105D01*
X112224290Y-94777105D01*
X111906984Y-94777105D01*
X111907187Y-94740206D01*
X111908365Y-94630735D01*
X111910081Y-94543301D01*
X111912435Y-94474879D01*
X111915529Y-94422440D01*
X111919463Y-94382958D01*
X111924339Y-94353405D01*
X111930257Y-94330754D01*
X111937319Y-94311978D01*
X111945625Y-94294050D01*
X111991950Y-94224541D01*
X112061486Y-94161502D01*
X112137555Y-94111152D01*
X112224290Y-94110712D01*
X113255114Y-94105486D01*
X113402561Y-94104832D01*
X113661789Y-94104242D01*
X113884231Y-94104552D01*
G37*
G36*
X116458128Y-91081536D02*
G01*
X116469078Y-91141488D01*
X116477528Y-91223154D01*
X116481165Y-91306647D01*
X116480201Y-91356257D01*
X116461784Y-91481648D01*
X116420187Y-91577793D01*
X116355498Y-91644538D01*
X116267803Y-91681731D01*
X116200973Y-91689432D01*
X116108859Y-91671870D01*
X116023770Y-91619144D01*
X115944677Y-91530537D01*
X115870553Y-91405336D01*
X115819646Y-91314237D01*
X115767140Y-91247313D01*
X115717192Y-91215432D01*
X115668052Y-91217535D01*
X115617970Y-91252562D01*
X115592588Y-91297182D01*
X115585932Y-91365127D01*
X115601892Y-91441018D01*
X115639561Y-91513898D01*
X115682715Y-91574501D01*
X115618610Y-91627662D01*
X115600630Y-91642187D01*
X115562723Y-91670036D01*
X115541713Y-91681327D01*
X115539582Y-91681094D01*
X115517137Y-91662357D01*
X115487739Y-91621269D01*
X115458226Y-91568543D01*
X115435439Y-91514889D01*
X115420045Y-91443825D01*
X115414675Y-91351318D01*
X115421195Y-91260315D01*
X115439399Y-91187924D01*
X115444501Y-91177053D01*
X115480844Y-91122879D01*
X115527568Y-91074024D01*
X115560448Y-91048534D01*
X115595860Y-91031707D01*
X115640426Y-91026327D01*
X115708198Y-91028883D01*
X115755288Y-91032718D01*
X115809425Y-91043153D01*
X115850553Y-91064014D01*
X115893754Y-91101176D01*
X115894860Y-91102247D01*
X115937739Y-91153049D01*
X115985241Y-91222990D01*
X116027285Y-91297268D01*
X116032403Y-91307374D01*
X116067938Y-91374099D01*
X116100028Y-91429132D01*
X116122272Y-91461411D01*
X116133919Y-91472021D01*
X116182451Y-91491376D01*
X116235920Y-91489577D01*
X116276744Y-91466090D01*
X116300234Y-91413890D01*
X116309931Y-91336393D01*
X116305402Y-91243633D01*
X116286350Y-91145474D01*
X116286313Y-91145334D01*
X116270676Y-91083104D01*
X116261353Y-91036987D01*
X116260360Y-91016959D01*
X116265962Y-91014763D01*
X116299636Y-91009016D01*
X116351772Y-91003711D01*
X116436189Y-90997120D01*
X116458128Y-91081536D01*
G37*
G36*
X112373986Y-80823554D02*
G01*
X112499369Y-80822199D01*
X112651443Y-80821250D01*
X112832915Y-80820647D01*
X113046493Y-80820329D01*
X113294881Y-80820237D01*
X113299928Y-80820237D01*
X113551252Y-80820209D01*
X113767818Y-80820291D01*
X113952336Y-80820725D01*
X114107515Y-80821752D01*
X114236065Y-80823614D01*
X114340696Y-80826551D01*
X114424117Y-80830805D01*
X114489038Y-80836617D01*
X114538169Y-80844229D01*
X114574219Y-80853882D01*
X114599898Y-80865817D01*
X114617916Y-80880276D01*
X114630981Y-80897500D01*
X114641805Y-80917730D01*
X114653096Y-80941208D01*
X114657662Y-80952928D01*
X114662774Y-80975016D01*
X114667119Y-81007568D01*
X114670757Y-81053289D01*
X114673749Y-81114885D01*
X114676156Y-81195061D01*
X114678039Y-81296522D01*
X114679457Y-81421974D01*
X114680472Y-81574122D01*
X114681144Y-81755672D01*
X114681535Y-81969329D01*
X114681703Y-82217799D01*
X114681737Y-82360548D01*
X114681717Y-82584495D01*
X114681523Y-82775350D01*
X114681076Y-82935939D01*
X114680292Y-83069084D01*
X114679090Y-83177613D01*
X114677388Y-83264348D01*
X114675104Y-83332116D01*
X114672157Y-83383740D01*
X114668464Y-83422046D01*
X114663944Y-83449859D01*
X114658516Y-83470003D01*
X114652096Y-83485303D01*
X114644603Y-83498584D01*
X114640505Y-83504987D01*
X114601078Y-83550041D01*
X114559036Y-83578311D01*
X114544330Y-83580790D01*
X114492082Y-83584273D01*
X114405492Y-83587381D01*
X114286479Y-83590085D01*
X114136960Y-83592359D01*
X113958851Y-83594175D01*
X113754070Y-83595506D01*
X113524534Y-83596324D01*
X113272161Y-83596603D01*
X112033397Y-83596603D01*
X111969616Y-83532821D01*
X111905834Y-83469040D01*
X111905834Y-82228123D01*
X111905825Y-81978314D01*
X111905939Y-81758154D01*
X111906043Y-81715239D01*
X112226148Y-81715239D01*
X112227320Y-81828269D01*
X112229684Y-81951905D01*
X112232893Y-82071830D01*
X112238354Y-82206440D01*
X112246047Y-82313701D01*
X112257036Y-82399473D01*
X112272379Y-82469613D01*
X112293138Y-82529980D01*
X112320374Y-82586431D01*
X112355146Y-82644825D01*
X112371961Y-82669078D01*
X112453251Y-82753248D01*
X112555372Y-82822599D01*
X112665295Y-82867767D01*
X112669442Y-82868845D01*
X112728485Y-82878604D01*
X112807538Y-82885314D01*
X112890694Y-82887577D01*
X112907976Y-82887340D01*
X113068841Y-82869832D01*
X113209795Y-82825800D01*
X113327374Y-82756713D01*
X113418112Y-82664040D01*
X113433893Y-82642580D01*
X113464821Y-82601046D01*
X113482881Y-82577546D01*
X113494751Y-82578713D01*
X113536625Y-82593213D01*
X113603927Y-82620657D01*
X113691926Y-82659025D01*
X113795889Y-82706296D01*
X113911086Y-82760449D01*
X113997688Y-82801690D01*
X114104775Y-82852385D01*
X114196876Y-82895640D01*
X114269282Y-82929258D01*
X114317282Y-82951040D01*
X114336167Y-82958789D01*
X114339191Y-82945575D01*
X114341301Y-82901737D01*
X114341776Y-82834478D01*
X114340459Y-82751341D01*
X114335155Y-82543893D01*
X113950590Y-82378165D01*
X113566026Y-82212438D01*
X113560727Y-82015954D01*
X113555428Y-81819471D01*
X113651346Y-81806747D01*
X113659402Y-81805785D01*
X113720286Y-81801358D01*
X113806385Y-81798006D01*
X113907410Y-81796044D01*
X114013071Y-81795781D01*
X114044696Y-81795982D01*
X114140371Y-81796493D01*
X114221975Y-81796785D01*
X114281691Y-81796838D01*
X114311706Y-81796628D01*
X114320500Y-81795441D01*
X114333045Y-81785063D01*
X114340330Y-81758176D01*
X114343709Y-81707781D01*
X114344534Y-81626884D01*
X114344343Y-81580500D01*
X114342384Y-81516489D01*
X114337193Y-81479391D01*
X114327418Y-81462245D01*
X114311706Y-81458092D01*
X114303141Y-81458072D01*
X114260160Y-81457908D01*
X114185103Y-81457593D01*
X114081529Y-81457141D01*
X113952994Y-81456570D01*
X113803053Y-81455894D01*
X113635264Y-81455131D01*
X113453182Y-81454295D01*
X113260364Y-81453403D01*
X112241851Y-81448671D01*
X112230905Y-81492304D01*
X112229635Y-81500797D01*
X112227322Y-81545402D01*
X112226155Y-81618917D01*
X112226148Y-81715239D01*
X111906043Y-81715239D01*
X111906394Y-81570193D01*
X111907407Y-81411746D01*
X111909198Y-81280126D01*
X111911983Y-81172650D01*
X111915982Y-81086631D01*
X111921410Y-81019384D01*
X111928488Y-80968223D01*
X111937432Y-80930463D01*
X111948460Y-80903420D01*
X111961791Y-80884406D01*
X111977641Y-80870737D01*
X111996230Y-80859728D01*
X112017776Y-80848693D01*
X112030642Y-80843590D01*
X112052714Y-80838532D01*
X112085239Y-80834242D01*
X112130921Y-80830659D01*
X112192469Y-80827724D01*
X112241851Y-80826277D01*
X112272589Y-80825376D01*
X112373986Y-80823554D01*
G37*
G36*
X115550533Y-95398277D02*
G01*
X115576509Y-95409138D01*
X115583425Y-95433678D01*
X115583639Y-95448339D01*
X115584097Y-95498795D01*
X115584571Y-95570729D01*
X115584989Y-95653730D01*
X115585489Y-95702231D01*
X115587453Y-95774154D01*
X115590466Y-95826287D01*
X115594116Y-95849767D01*
X115599597Y-95849071D01*
X115631434Y-95833217D01*
X115687533Y-95800614D01*
X115763384Y-95754003D01*
X115854475Y-95696123D01*
X115956296Y-95629715D01*
X115957334Y-95629030D01*
X116074468Y-95552211D01*
X116165322Y-95494086D01*
X116234519Y-95452150D01*
X116286684Y-95423895D01*
X116326442Y-95406816D01*
X116358415Y-95398406D01*
X116387229Y-95396160D01*
X116464328Y-95396160D01*
X116464328Y-96090251D01*
X116304874Y-96090325D01*
X116310743Y-95871984D01*
X116311763Y-95790068D01*
X116310241Y-95715220D01*
X116306360Y-95661668D01*
X116300475Y-95637507D01*
X116296989Y-95636996D01*
X116267716Y-95648727D01*
X116213573Y-95678118D01*
X116139084Y-95722505D01*
X116048773Y-95779223D01*
X115947162Y-95845608D01*
X115869587Y-95896965D01*
X115771419Y-95960705D01*
X115696064Y-96007321D01*
X115638682Y-96039454D01*
X115594432Y-96059744D01*
X115558474Y-96070832D01*
X115525967Y-96075359D01*
X115441949Y-96080872D01*
X115431723Y-95396160D01*
X115507184Y-95396160D01*
X115550533Y-95398277D01*
G37*
G36*
X113569575Y-101869431D02*
G01*
X113571863Y-101895980D01*
X113573714Y-101951372D01*
X113574954Y-102028772D01*
X113575406Y-102121344D01*
X113575303Y-102160745D01*
X113573573Y-102259693D01*
X113569462Y-102325922D01*
X113562651Y-102363025D01*
X113552818Y-102374594D01*
X113531710Y-102370595D01*
X113480167Y-102358513D01*
X113404571Y-102339899D01*
X113310964Y-102316322D01*
X113205392Y-102289350D01*
X113093898Y-102260554D01*
X112982525Y-102231502D01*
X112877317Y-102203764D01*
X112784318Y-102178908D01*
X112709570Y-102158504D01*
X112659119Y-102144122D01*
X112639008Y-102137330D01*
X112637747Y-102135846D01*
X112643591Y-102118325D01*
X112643799Y-102118163D01*
X112665347Y-102110736D01*
X112716867Y-102095496D01*
X112792397Y-102074055D01*
X112885975Y-102048027D01*
X112991640Y-102019022D01*
X113103429Y-101988654D01*
X113215381Y-101958534D01*
X113321533Y-101930275D01*
X113415924Y-101905490D01*
X113492592Y-101885790D01*
X113545573Y-101872787D01*
X113568908Y-101868095D01*
X113569575Y-101869431D01*
G37*
G36*
X114434647Y-100740001D02*
G01*
X114499823Y-100744007D01*
X114531477Y-100748438D01*
X114532027Y-100748627D01*
X114590591Y-100782846D01*
X114639730Y-100834996D01*
X114682975Y-100899312D01*
X114672821Y-103386886D01*
X114611500Y-103448207D01*
X114550180Y-103509528D01*
X113320785Y-103514614D01*
X113174818Y-103515197D01*
X112948009Y-103515972D01*
X112754328Y-103516391D01*
X112590988Y-103516396D01*
X112455198Y-103515933D01*
X112344168Y-103514945D01*
X112255109Y-103513376D01*
X112185232Y-103511171D01*
X112131746Y-103508273D01*
X112091862Y-103504626D01*
X112062790Y-103500175D01*
X112041741Y-103494864D01*
X112025925Y-103488636D01*
X112024052Y-103487751D01*
X112001150Y-103477122D01*
X111981411Y-103466567D01*
X111964600Y-103453401D01*
X111950482Y-103434939D01*
X111938822Y-103408495D01*
X111929387Y-103371384D01*
X111921941Y-103320922D01*
X111916250Y-103254422D01*
X111912079Y-103169200D01*
X111909193Y-103062571D01*
X111907358Y-102931850D01*
X111906339Y-102774351D01*
X111905902Y-102587389D01*
X111905812Y-102368279D01*
X111905824Y-102227590D01*
X112226074Y-102227590D01*
X112227416Y-102285494D01*
X112232369Y-102321107D01*
X112241740Y-102341228D01*
X112256334Y-102352656D01*
X112264585Y-102355952D01*
X112306113Y-102369658D01*
X112377784Y-102391899D01*
X112475650Y-102421497D01*
X112595767Y-102457271D01*
X112734186Y-102498044D01*
X112886962Y-102542635D01*
X113050147Y-102589865D01*
X113094580Y-102602672D01*
X113268849Y-102652908D01*
X113440530Y-102702403D01*
X113604044Y-102749550D01*
X113753816Y-102792740D01*
X113884268Y-102830366D01*
X113989823Y-102860819D01*
X114064903Y-102882490D01*
X114098219Y-102892081D01*
X114186854Y-102917282D01*
X114259950Y-102937611D01*
X114310681Y-102951187D01*
X114332222Y-102956130D01*
X114335675Y-102948702D01*
X114340241Y-102911351D01*
X114343372Y-102849651D01*
X114344534Y-102771607D01*
X114344534Y-102587084D01*
X113913072Y-102478582D01*
X113913072Y-101775745D01*
X113992799Y-101755207D01*
X114007046Y-101751506D01*
X114073299Y-101733712D01*
X114128803Y-101718021D01*
X114139433Y-101714920D01*
X114199736Y-101698112D01*
X114264808Y-101680835D01*
X114344534Y-101660297D01*
X114344534Y-101473428D01*
X114344334Y-101419521D01*
X114343379Y-101351097D01*
X114341816Y-101304349D01*
X114339845Y-101287198D01*
X114325874Y-101291131D01*
X114278827Y-101304633D01*
X114201679Y-101326863D01*
X114097608Y-101356903D01*
X113969791Y-101393834D01*
X113821408Y-101436739D01*
X113655636Y-101484697D01*
X113475654Y-101536793D01*
X113284638Y-101592106D01*
X112234121Y-101896374D01*
X112228195Y-102115403D01*
X112227537Y-102140596D01*
X112226074Y-102227590D01*
X111905824Y-102227590D01*
X111905834Y-102114336D01*
X111905834Y-100876734D01*
X111953938Y-100819566D01*
X111958561Y-100814328D01*
X112011668Y-100771340D01*
X112070902Y-100743384D01*
X112091671Y-100740291D01*
X112150057Y-100736394D01*
X112238821Y-100733052D01*
X112353968Y-100730258D01*
X112491505Y-100728002D01*
X112647439Y-100726278D01*
X112817775Y-100725076D01*
X112998520Y-100724389D01*
X113185679Y-100724208D01*
X113375260Y-100724525D01*
X113563269Y-100725332D01*
X113745711Y-100726620D01*
X113918593Y-100728382D01*
X114077921Y-100730609D01*
X114219702Y-100733294D01*
X114339845Y-100736424D01*
X114339942Y-100736427D01*
X114434647Y-100740001D01*
G37*
G36*
X110090874Y-96029363D02*
G01*
X110212845Y-96029924D01*
X110400023Y-96030779D01*
X110573765Y-96031569D01*
X110730630Y-96032277D01*
X110867178Y-96032887D01*
X110979969Y-96033386D01*
X111065562Y-96033756D01*
X111120518Y-96033984D01*
X111141396Y-96034053D01*
X111141932Y-96034565D01*
X111145040Y-96058468D01*
X111147891Y-96115141D01*
X111150404Y-96200512D01*
X111152498Y-96310511D01*
X111154093Y-96441065D01*
X111155108Y-96588104D01*
X111155465Y-96747555D01*
X111155465Y-97461136D01*
X110992682Y-97455716D01*
X110829900Y-97450296D01*
X110828539Y-96925037D01*
X110827178Y-96399779D01*
X110550480Y-96394587D01*
X110273781Y-96389396D01*
X110273781Y-97192040D01*
X109936115Y-97188368D01*
X109936115Y-96389396D01*
X109659416Y-96394587D01*
X109382718Y-96399779D01*
X109379447Y-96906278D01*
X109379442Y-96907154D01*
X109378525Y-97042047D01*
X109377602Y-97165102D01*
X109376718Y-97271183D01*
X109375919Y-97355155D01*
X109375250Y-97411882D01*
X109374757Y-97436226D01*
X109373173Y-97440847D01*
X109350827Y-97451692D01*
X109299050Y-97457775D01*
X109213884Y-97459675D01*
X109054431Y-97459675D01*
X109054426Y-96742135D01*
X109054421Y-96024594D01*
X110090874Y-96029363D01*
G37*
%TD*%
M02*
