%TF.GenerationSoftware,KiCad,Pcbnew,6.0.8-f2edbf62ab~116~ubuntu20.04.1*%
%TF.CreationDate,2022-10-23T17:18:19+02:00*%
%TF.ProjectId,TireTempSensor_v2.0,54697265-5465-46d7-9053-656e736f725f,rev?*%
%TF.SameCoordinates,Original*%
%TF.FileFunction,Soldermask,Top*%
%TF.FilePolarity,Negative*%
%FSLAX46Y46*%
G04 Gerber Fmt 4.6, Leading zero omitted, Abs format (unit mm)*
G04 Created by KiCad (PCBNEW 6.0.8-f2edbf62ab~116~ubuntu20.04.1) date 2022-10-23 17:18:19*
%MOMM*%
%LPD*%
G01*
G04 APERTURE LIST*
G04 Aperture macros list*
%AMRoundRect*
0 Rectangle with rounded corners*
0 $1 Rounding radius*
0 $2 $3 $4 $5 $6 $7 $8 $9 X,Y pos of 4 corners*
0 Add a 4 corners polygon primitive as box body*
4,1,4,$2,$3,$4,$5,$6,$7,$8,$9,$2,$3,0*
0 Add four circle primitives for the rounded corners*
1,1,$1+$1,$2,$3*
1,1,$1+$1,$4,$5*
1,1,$1+$1,$6,$7*
1,1,$1+$1,$8,$9*
0 Add four rect primitives between the rounded corners*
20,1,$1+$1,$2,$3,$4,$5,0*
20,1,$1+$1,$4,$5,$6,$7,0*
20,1,$1+$1,$6,$7,$8,$9,0*
20,1,$1+$1,$8,$9,$2,$3,0*%
%AMRotRect*
0 Rectangle, with rotation*
0 The origin of the aperture is its center*
0 $1 length*
0 $2 width*
0 $3 Rotation angle, in degrees counterclockwise*
0 Add horizontal line*
21,1,$1,$2,0,0,$3*%
%AMFreePoly0*
4,1,6,1.000000,0.000000,0.500000,-0.750000,-0.500000,-0.750000,-0.500000,0.750000,0.500000,0.750000,1.000000,0.000000,1.000000,0.000000,$1*%
%AMFreePoly1*
4,1,6,0.500000,-0.750000,-0.650000,-0.750000,-0.150000,0.000000,-0.650000,0.750000,0.500000,0.750000,0.500000,-0.750000,0.500000,-0.750000,$1*%
G04 Aperture macros list end*
%ADD10RoundRect,0.200000X0.200000X0.275000X-0.200000X0.275000X-0.200000X-0.275000X0.200000X-0.275000X0*%
%ADD11C,4.500000*%
%ADD12RoundRect,0.218750X-0.218750X-0.256250X0.218750X-0.256250X0.218750X0.256250X-0.218750X0.256250X0*%
%ADD13RoundRect,0.050000X-1.750000X-1.100000X1.750000X-1.100000X1.750000X1.100000X-1.750000X1.100000X0*%
%ADD14RoundRect,0.050000X-0.600000X-1.100000X0.600000X-1.100000X0.600000X1.100000X-0.600000X1.100000X0*%
%ADD15RoundRect,0.225000X-0.250000X0.225000X-0.250000X-0.225000X0.250000X-0.225000X0.250000X0.225000X0*%
%ADD16RoundRect,0.150000X0.512500X0.150000X-0.512500X0.150000X-0.512500X-0.150000X0.512500X-0.150000X0*%
%ADD17RoundRect,0.218750X0.256250X-0.218750X0.256250X0.218750X-0.256250X0.218750X-0.256250X-0.218750X0*%
%ADD18RoundRect,0.062500X-0.325000X-0.062500X0.325000X-0.062500X0.325000X0.062500X-0.325000X0.062500X0*%
%ADD19FreePoly0,0.000000*%
%ADD20FreePoly1,0.000000*%
%ADD21RoundRect,0.225000X-0.225000X-0.250000X0.225000X-0.250000X0.225000X0.250000X-0.225000X0.250000X0*%
%ADD22RoundRect,0.250000X0.325000X0.650000X-0.325000X0.650000X-0.325000X-0.650000X0.325000X-0.650000X0*%
%ADD23RoundRect,0.150000X-0.150000X0.825000X-0.150000X-0.825000X0.150000X-0.825000X0.150000X0.825000X0*%
%ADD24RoundRect,0.225000X0.250000X-0.225000X0.250000X0.225000X-0.250000X0.225000X-0.250000X-0.225000X0*%
%ADD25R,1.150000X1.400000*%
%ADD26C,1.500000*%
%ADD27C,1.600000*%
%ADD28RoundRect,0.225000X0.225000X0.250000X-0.225000X0.250000X-0.225000X-0.250000X0.225000X-0.250000X0*%
%ADD29R,1.150000X3.600000*%
%ADD30RoundRect,0.250000X0.375000X1.075000X-0.375000X1.075000X-0.375000X-1.075000X0.375000X-1.075000X0*%
%ADD31RoundRect,0.200000X-0.200000X-0.275000X0.200000X-0.275000X0.200000X0.275000X-0.200000X0.275000X0*%
%ADD32R,1.000000X0.700000*%
%ADD33RoundRect,0.200000X-0.275000X0.200000X-0.275000X-0.200000X0.275000X-0.200000X0.275000X0.200000X0*%
%ADD34R,0.800000X0.900000*%
%ADD35RoundRect,0.075000X-0.700000X-0.075000X0.700000X-0.075000X0.700000X0.075000X-0.700000X0.075000X0*%
%ADD36RoundRect,0.075000X-0.075000X-0.700000X0.075000X-0.700000X0.075000X0.700000X-0.075000X0.700000X0*%
%ADD37RoundRect,0.200000X0.275000X-0.200000X0.275000X0.200000X-0.275000X0.200000X-0.275000X-0.200000X0*%
%ADD38RoundRect,0.218750X0.218750X0.256250X-0.218750X0.256250X-0.218750X-0.256250X0.218750X-0.256250X0*%
%ADD39RotRect,1.192000X1.192000X45.000000*%
%ADD40C,1.192000*%
%ADD41R,1.700000X1.700000*%
%ADD42O,1.700000X1.700000*%
G04 APERTURE END LIST*
%TO.C,G\u002A\u002A\u002A*%
G36*
X102439283Y-71564806D02*
G01*
X102466964Y-71565481D01*
X102491413Y-71566775D01*
X102514010Y-71568815D01*
X102536133Y-71571728D01*
X102559162Y-71575641D01*
X102584475Y-71580681D01*
X102587007Y-71581215D01*
X102654025Y-71598354D01*
X102718599Y-71620861D01*
X102780486Y-71648603D01*
X102839441Y-71681446D01*
X102895221Y-71719256D01*
X102947584Y-71761900D01*
X102989062Y-71801684D01*
X103029875Y-71847451D01*
X103066116Y-71895818D01*
X103097921Y-71947095D01*
X103125429Y-72001590D01*
X103148776Y-72059614D01*
X103168102Y-72121475D01*
X103183542Y-72187484D01*
X103195236Y-72257948D01*
X103196543Y-72267884D01*
X103196819Y-72271345D01*
X103197084Y-72277392D01*
X103197337Y-72286145D01*
X103197580Y-72297721D01*
X103197812Y-72312239D01*
X103198035Y-72329817D01*
X103198247Y-72350573D01*
X103198450Y-72374627D01*
X103198643Y-72402096D01*
X103198828Y-72433098D01*
X103199005Y-72467753D01*
X103199173Y-72506178D01*
X103199333Y-72548493D01*
X103199486Y-72594815D01*
X103199631Y-72645262D01*
X103199770Y-72699954D01*
X103199902Y-72759008D01*
X103200028Y-72822544D01*
X103200148Y-72890678D01*
X103200262Y-72963531D01*
X103200371Y-73041220D01*
X103200475Y-73123863D01*
X103200575Y-73211579D01*
X103200670Y-73304487D01*
X103200761Y-73402704D01*
X103200848Y-73506350D01*
X103200932Y-73615543D01*
X103201014Y-73730400D01*
X103201092Y-73851041D01*
X103201156Y-73956065D01*
X103202129Y-75615744D01*
X103217843Y-75621518D01*
X103224810Y-75624032D01*
X103236528Y-75628209D01*
X103252088Y-75633726D01*
X103270580Y-75640262D01*
X103291092Y-75647494D01*
X103312715Y-75655100D01*
X103313775Y-75655472D01*
X103393992Y-75683653D01*
X103394031Y-75810733D01*
X103394029Y-75841684D01*
X103393988Y-75867154D01*
X103393885Y-75887663D01*
X103393699Y-75903729D01*
X103393410Y-75915874D01*
X103392994Y-75924616D01*
X103392430Y-75930475D01*
X103391697Y-75933971D01*
X103390773Y-75935623D01*
X103389636Y-75935950D01*
X103388820Y-75935719D01*
X103384966Y-75934307D01*
X103375808Y-75931024D01*
X103361703Y-75925993D01*
X103343003Y-75919341D01*
X103320064Y-75911193D01*
X103293241Y-75901676D01*
X103262887Y-75890914D01*
X103229359Y-75879035D01*
X103193010Y-75866163D01*
X103154195Y-75852424D01*
X103113270Y-75837944D01*
X103070587Y-75822849D01*
X103032542Y-75809399D01*
X103013717Y-75802645D01*
X102996795Y-75796382D01*
X102982597Y-75790931D01*
X102971947Y-75786610D01*
X102965665Y-75783741D01*
X102964344Y-75782864D01*
X102964215Y-75779703D01*
X102964088Y-75770708D01*
X102963963Y-75756047D01*
X102963840Y-75735888D01*
X102963719Y-75710398D01*
X102963601Y-75679743D01*
X102963485Y-75644091D01*
X102963372Y-75603610D01*
X102963262Y-75558467D01*
X102963156Y-75508828D01*
X102963053Y-75454862D01*
X102962954Y-75396735D01*
X102962859Y-75334615D01*
X102962768Y-75268669D01*
X102962682Y-75199064D01*
X102962600Y-75125967D01*
X102962524Y-75049547D01*
X102962452Y-74969970D01*
X102962386Y-74887403D01*
X102962325Y-74802013D01*
X102962270Y-74713969D01*
X102962221Y-74623436D01*
X102962178Y-74530583D01*
X102962141Y-74435577D01*
X102962111Y-74338585D01*
X102962088Y-74239774D01*
X102962073Y-74139311D01*
X102962064Y-74041023D01*
X102962052Y-73900387D01*
X102962029Y-73765505D01*
X102961996Y-73636388D01*
X102961953Y-73513046D01*
X102961899Y-73395491D01*
X102961836Y-73283732D01*
X102961762Y-73177782D01*
X102961677Y-73077649D01*
X102961583Y-72983345D01*
X102961479Y-72894882D01*
X102961364Y-72812268D01*
X102961239Y-72735515D01*
X102961104Y-72664634D01*
X102960959Y-72599636D01*
X102960804Y-72540530D01*
X102960639Y-72487328D01*
X102960464Y-72440041D01*
X102960279Y-72398679D01*
X102960084Y-72363252D01*
X102959879Y-72333772D01*
X102959664Y-72310249D01*
X102959439Y-72292694D01*
X102959204Y-72281117D01*
X102958959Y-72275529D01*
X102958944Y-72275384D01*
X102956947Y-72258154D01*
X102955152Y-72244735D01*
X102953186Y-72233118D01*
X102950675Y-72221291D01*
X102947245Y-72207245D01*
X102943718Y-72193557D01*
X102927275Y-72141531D01*
X102905909Y-72092417D01*
X102879891Y-72046518D01*
X102849490Y-72004134D01*
X102814976Y-71965569D01*
X102776620Y-71931125D01*
X102734692Y-71901102D01*
X102689460Y-71875804D01*
X102641629Y-71855685D01*
X102591421Y-71840492D01*
X102537722Y-71829241D01*
X102481609Y-71821986D01*
X102424157Y-71818778D01*
X102366444Y-71819669D01*
X102309547Y-71824713D01*
X102254543Y-71833960D01*
X102243480Y-71836407D01*
X102204002Y-71847253D01*
X102163878Y-71861480D01*
X102125135Y-71878270D01*
X102089798Y-71896806D01*
X102081467Y-71901780D01*
X102038794Y-71931480D01*
X101999906Y-71965699D01*
X101964958Y-72004174D01*
X101934109Y-72046646D01*
X101907515Y-72092851D01*
X101885333Y-72142530D01*
X101867720Y-72195420D01*
X101854833Y-72251260D01*
X101849091Y-72288807D01*
X101848824Y-72293559D01*
X101848570Y-72303429D01*
X101848328Y-72318456D01*
X101848099Y-72338678D01*
X101847881Y-72364136D01*
X101847676Y-72394866D01*
X101847482Y-72430909D01*
X101847300Y-72472303D01*
X101847131Y-72519088D01*
X101846973Y-72571302D01*
X101846826Y-72628983D01*
X101846691Y-72692172D01*
X101846568Y-72760907D01*
X101846456Y-72835226D01*
X101846356Y-72915169D01*
X101846266Y-73000775D01*
X101846188Y-73092083D01*
X101846121Y-73189131D01*
X101846066Y-73291958D01*
X101846021Y-73400604D01*
X101845987Y-73515106D01*
X101845963Y-73635506D01*
X101845951Y-73761840D01*
X101845948Y-73851180D01*
X101845944Y-73946915D01*
X101845931Y-74041139D01*
X101845910Y-74133675D01*
X101845881Y-74224344D01*
X101845844Y-74312970D01*
X101845799Y-74399375D01*
X101845748Y-74483381D01*
X101845689Y-74564811D01*
X101845624Y-74643488D01*
X101845552Y-74719234D01*
X101845474Y-74791871D01*
X101845391Y-74861223D01*
X101845301Y-74927112D01*
X101845206Y-74989359D01*
X101845106Y-75047789D01*
X101845001Y-75102223D01*
X101844892Y-75152484D01*
X101844778Y-75198394D01*
X101844660Y-75239777D01*
X101844538Y-75276454D01*
X101844412Y-75308248D01*
X101844283Y-75334982D01*
X101844152Y-75356478D01*
X101844017Y-75372559D01*
X101843880Y-75383047D01*
X101843740Y-75387765D01*
X101843698Y-75388028D01*
X101840474Y-75387037D01*
X101832199Y-75384246D01*
X101819477Y-75379866D01*
X101802911Y-75374108D01*
X101783105Y-75367181D01*
X101760663Y-75359296D01*
X101736187Y-75350663D01*
X101724439Y-75346508D01*
X101607429Y-75305088D01*
X101606549Y-73838240D01*
X101606476Y-73706670D01*
X101606421Y-73581094D01*
X101606381Y-73461505D01*
X101606358Y-73347897D01*
X101606352Y-73240261D01*
X101606363Y-73138593D01*
X101606390Y-73042884D01*
X101606433Y-72953129D01*
X101606493Y-72869320D01*
X101606570Y-72791451D01*
X101606664Y-72719514D01*
X101606774Y-72653504D01*
X101606901Y-72593414D01*
X101607045Y-72539236D01*
X101607205Y-72490964D01*
X101607382Y-72448591D01*
X101607575Y-72412111D01*
X101607786Y-72381516D01*
X101608013Y-72356800D01*
X101608257Y-72337957D01*
X101608517Y-72324979D01*
X101608762Y-72318379D01*
X101614508Y-72250870D01*
X101623684Y-72187913D01*
X101636441Y-72129037D01*
X101652932Y-72073768D01*
X101673307Y-72021633D01*
X101697720Y-71972160D01*
X101726320Y-71924876D01*
X101742447Y-71901619D01*
X101786510Y-71845585D01*
X101834102Y-71794291D01*
X101885073Y-71747839D01*
X101939273Y-71706331D01*
X101996554Y-71669869D01*
X102056766Y-71638555D01*
X102119759Y-71612490D01*
X102185385Y-71591777D01*
X102203614Y-71587096D01*
X102234087Y-71580056D01*
X102262144Y-71574563D01*
X102289247Y-71570454D01*
X102316855Y-71567568D01*
X102346428Y-71565744D01*
X102379426Y-71564821D01*
X102406992Y-71564623D01*
X102439283Y-71564806D01*
G37*
G36*
X102439691Y-72029945D02*
G01*
X102488891Y-72036403D01*
X102490999Y-72036803D01*
X102531902Y-72046823D01*
X102568592Y-72060563D01*
X102601874Y-72078454D01*
X102632552Y-72100928D01*
X102660698Y-72127633D01*
X102686892Y-72159538D01*
X102708850Y-72195252D01*
X102726655Y-72234961D01*
X102740390Y-72278850D01*
X102750137Y-72327103D01*
X102750485Y-72329388D01*
X102750810Y-72332059D01*
X102751120Y-72335721D01*
X102751414Y-72340518D01*
X102751693Y-72346595D01*
X102751958Y-72354098D01*
X102752209Y-72363171D01*
X102752445Y-72373958D01*
X102752668Y-72386605D01*
X102752878Y-72401256D01*
X102753075Y-72418056D01*
X102753260Y-72437149D01*
X102753434Y-72458681D01*
X102753595Y-72482796D01*
X102753745Y-72509639D01*
X102753885Y-72539355D01*
X102754014Y-72572088D01*
X102754133Y-72607983D01*
X102754243Y-72647185D01*
X102754343Y-72689838D01*
X102754434Y-72736088D01*
X102754517Y-72786080D01*
X102754592Y-72839957D01*
X102754659Y-72897864D01*
X102754719Y-72959948D01*
X102754771Y-73026351D01*
X102754817Y-73097219D01*
X102754857Y-73172697D01*
X102754892Y-73252929D01*
X102754920Y-73338060D01*
X102754944Y-73428235D01*
X102754963Y-73523599D01*
X102754978Y-73624296D01*
X102754989Y-73730472D01*
X102754997Y-73842270D01*
X102755001Y-73959836D01*
X102755002Y-74034273D01*
X102754999Y-74147308D01*
X102754985Y-74257443D01*
X102754963Y-74364554D01*
X102754931Y-74468517D01*
X102754891Y-74569209D01*
X102754841Y-74666506D01*
X102754783Y-74760285D01*
X102754717Y-74850421D01*
X102754643Y-74936791D01*
X102754561Y-75019272D01*
X102754470Y-75097740D01*
X102754373Y-75172072D01*
X102754268Y-75242143D01*
X102754156Y-75307830D01*
X102754037Y-75369010D01*
X102753911Y-75425558D01*
X102753778Y-75477352D01*
X102753640Y-75524268D01*
X102753495Y-75566181D01*
X102753344Y-75602969D01*
X102753187Y-75634508D01*
X102753025Y-75660674D01*
X102752857Y-75681343D01*
X102752685Y-75696392D01*
X102752507Y-75705698D01*
X102752325Y-75709137D01*
X102752310Y-75709155D01*
X102748536Y-75708133D01*
X102739172Y-75705081D01*
X102724266Y-75700014D01*
X102703869Y-75692951D01*
X102678030Y-75683909D01*
X102646798Y-75672904D01*
X102610223Y-75659955D01*
X102569005Y-75645309D01*
X102516501Y-75626626D01*
X102515001Y-73987008D01*
X102514892Y-73868388D01*
X102514787Y-73755620D01*
X102514685Y-73648554D01*
X102514587Y-73547041D01*
X102514490Y-73450931D01*
X102514395Y-73360076D01*
X102514301Y-73274327D01*
X102514207Y-73193533D01*
X102514113Y-73117547D01*
X102514017Y-73046218D01*
X102513921Y-72979398D01*
X102513822Y-72916938D01*
X102513720Y-72858687D01*
X102513614Y-72804498D01*
X102513505Y-72754220D01*
X102513390Y-72707706D01*
X102513270Y-72664804D01*
X102513145Y-72625367D01*
X102513012Y-72589246D01*
X102512873Y-72556290D01*
X102512725Y-72526351D01*
X102512569Y-72499279D01*
X102512404Y-72474926D01*
X102512229Y-72453142D01*
X102512043Y-72433778D01*
X102511846Y-72416685D01*
X102511638Y-72401713D01*
X102511418Y-72388714D01*
X102511184Y-72377538D01*
X102510937Y-72368036D01*
X102510676Y-72360059D01*
X102510400Y-72353458D01*
X102510108Y-72348084D01*
X102509800Y-72343786D01*
X102509476Y-72340417D01*
X102509134Y-72337827D01*
X102508775Y-72335866D01*
X102508396Y-72334387D01*
X102508025Y-72333305D01*
X102498431Y-72315687D01*
X102484769Y-72300114D01*
X102468637Y-72288294D01*
X102463360Y-72285647D01*
X102455580Y-72282520D01*
X102447932Y-72280454D01*
X102438857Y-72279235D01*
X102426797Y-72278648D01*
X102411493Y-72278479D01*
X102388419Y-72279008D01*
X102370010Y-72280994D01*
X102355025Y-72284832D01*
X102342224Y-72290917D01*
X102330366Y-72299645D01*
X102322763Y-72306735D01*
X102310236Y-72321136D01*
X102301657Y-72335131D01*
X102300262Y-72338389D01*
X102299821Y-72339616D01*
X102299403Y-72341054D01*
X102299008Y-72342862D01*
X102298634Y-72345197D01*
X102298280Y-72348217D01*
X102297947Y-72352081D01*
X102297633Y-72356946D01*
X102297338Y-72362971D01*
X102297060Y-72370313D01*
X102296800Y-72379131D01*
X102296556Y-72389583D01*
X102296329Y-72401827D01*
X102296116Y-72416020D01*
X102295918Y-72432321D01*
X102295734Y-72450888D01*
X102295563Y-72471879D01*
X102295404Y-72495451D01*
X102295257Y-72521764D01*
X102295120Y-72550975D01*
X102294995Y-72583241D01*
X102294878Y-72618722D01*
X102294771Y-72657575D01*
X102294672Y-72699958D01*
X102294580Y-72746030D01*
X102294495Y-72795947D01*
X102294417Y-72849869D01*
X102294343Y-72907953D01*
X102294275Y-72970358D01*
X102294210Y-73037241D01*
X102294149Y-73108761D01*
X102294091Y-73185075D01*
X102294034Y-73266342D01*
X102293979Y-73352719D01*
X102293924Y-73444365D01*
X102293869Y-73541438D01*
X102293813Y-73644095D01*
X102293756Y-73752496D01*
X102293718Y-73823865D01*
X102292953Y-75294341D01*
X102344722Y-75312680D01*
X102362840Y-75319080D01*
X102380452Y-75325270D01*
X102396193Y-75330772D01*
X102408695Y-75335108D01*
X102415243Y-75337347D01*
X102433995Y-75343677D01*
X102433995Y-75597924D01*
X102409243Y-75588992D01*
X102402532Y-75586590D01*
X102390648Y-75582361D01*
X102374078Y-75576475D01*
X102353305Y-75569105D01*
X102328815Y-75560422D01*
X102301093Y-75550599D01*
X102270624Y-75539807D01*
X102237892Y-75528219D01*
X102203384Y-75516005D01*
X102167583Y-75503339D01*
X102156473Y-75499409D01*
X101928455Y-75418758D01*
X101927672Y-75292435D01*
X101927547Y-75265559D01*
X101927510Y-75240636D01*
X101927556Y-75218284D01*
X101927681Y-75199122D01*
X101927880Y-75183770D01*
X101928147Y-75172845D01*
X101928478Y-75166969D01*
X101928681Y-75166112D01*
X101931922Y-75167068D01*
X101939958Y-75169739D01*
X101951931Y-75173831D01*
X101966982Y-75179050D01*
X101984253Y-75185102D01*
X101989960Y-75187113D01*
X102007742Y-75193364D01*
X102023568Y-75198874D01*
X102036580Y-75203349D01*
X102045921Y-75206495D01*
X102050732Y-75208018D01*
X102051172Y-75208115D01*
X102051285Y-75205145D01*
X102051399Y-75196359D01*
X102051516Y-75181939D01*
X102051633Y-75162068D01*
X102051752Y-75136932D01*
X102051870Y-75106712D01*
X102051989Y-75071593D01*
X102052108Y-75031757D01*
X102052227Y-74987389D01*
X102052344Y-74938672D01*
X102052460Y-74885789D01*
X102052575Y-74828924D01*
X102052688Y-74768260D01*
X102052799Y-74703981D01*
X102052907Y-74636270D01*
X102053012Y-74565312D01*
X102053115Y-74491288D01*
X102053213Y-74414383D01*
X102053308Y-74334780D01*
X102053399Y-74252663D01*
X102053485Y-74168215D01*
X102053566Y-74081620D01*
X102053642Y-73993061D01*
X102053712Y-73902721D01*
X102053777Y-73810785D01*
X102053803Y-73770252D01*
X102053874Y-73659105D01*
X102053943Y-73553800D01*
X102054012Y-73454175D01*
X102054081Y-73360072D01*
X102054149Y-73271330D01*
X102054220Y-73187791D01*
X102054291Y-73109295D01*
X102054366Y-73035681D01*
X102054443Y-72966790D01*
X102054524Y-72902463D01*
X102054610Y-72842540D01*
X102054701Y-72786861D01*
X102054797Y-72735266D01*
X102054900Y-72687596D01*
X102055010Y-72643692D01*
X102055128Y-72603393D01*
X102055254Y-72566540D01*
X102055390Y-72532973D01*
X102055534Y-72502532D01*
X102055690Y-72475059D01*
X102055856Y-72450393D01*
X102056034Y-72428374D01*
X102056224Y-72408843D01*
X102056428Y-72391640D01*
X102056644Y-72376606D01*
X102056876Y-72363581D01*
X102057122Y-72352405D01*
X102057384Y-72342919D01*
X102057662Y-72334963D01*
X102057957Y-72328377D01*
X102058270Y-72323001D01*
X102058601Y-72318677D01*
X102058951Y-72315243D01*
X102059320Y-72312542D01*
X102059710Y-72310412D01*
X102059825Y-72309887D01*
X102071250Y-72268298D01*
X102085698Y-72231256D01*
X102103534Y-72197928D01*
X102118469Y-72176042D01*
X102149460Y-72139347D01*
X102183524Y-72107748D01*
X102220433Y-72081331D01*
X102259960Y-72060181D01*
X102301877Y-72044382D01*
X102345956Y-72034019D01*
X102391970Y-72029179D01*
X102439691Y-72029945D01*
G37*
%TD*%
D10*
%TO.C,R8*%
X106825000Y-90250000D03*
X105175000Y-90250000D03*
%TD*%
D11*
%TO.C,H4*%
X103250000Y-67500000D03*
%TD*%
%TO.C,H2*%
X103250000Y-113500000D03*
%TD*%
D12*
%TO.C,D2*%
X101712500Y-86750000D03*
X103287500Y-86750000D03*
%TD*%
D13*
%TO.C,Q1*%
X111250000Y-99150000D03*
D14*
X111250000Y-105350000D03*
X113550000Y-105350000D03*
X108950000Y-105350000D03*
%TD*%
D12*
%TO.C,D4*%
X101712500Y-88500000D03*
X103287500Y-88500000D03*
%TD*%
D15*
%TO.C,C4*%
X120750000Y-78975000D03*
X120750000Y-80525000D03*
%TD*%
D10*
%TO.C,R9*%
X106825000Y-93750000D03*
X105175000Y-93750000D03*
%TD*%
D16*
%TO.C,U2*%
X122637500Y-75950000D03*
X122637500Y-75000000D03*
X122637500Y-74050000D03*
X120362500Y-74050000D03*
X120362500Y-75950000D03*
%TD*%
D17*
%TO.C,FB3*%
X108750000Y-73037500D03*
X108750000Y-71462500D03*
%TD*%
D10*
%TO.C,R4*%
X106825000Y-88500000D03*
X105175000Y-88500000D03*
%TD*%
D12*
%TO.C,FB4*%
X101712500Y-95500000D03*
X103287500Y-95500000D03*
%TD*%
D18*
%TO.C,IC1*%
X117262500Y-104500000D03*
X117262500Y-105000000D03*
X117262500Y-105500000D03*
X117262500Y-106000000D03*
X119237500Y-106000000D03*
X119237500Y-105500000D03*
X119237500Y-105000000D03*
X119237500Y-104500000D03*
%TD*%
D19*
%TO.C,JP1*%
X110525000Y-102250000D03*
D20*
X111975000Y-102250000D03*
%TD*%
D21*
%TO.C,C2*%
X108725000Y-75500000D03*
X110275000Y-75500000D03*
%TD*%
D22*
%TO.C,C16*%
X124425000Y-105250000D03*
X121475000Y-105250000D03*
%TD*%
D12*
%TO.C,D3*%
X101712500Y-90250000D03*
X103287500Y-90250000D03*
%TD*%
D23*
%TO.C,U3*%
X105655000Y-98275000D03*
X104385000Y-98275000D03*
X103115000Y-98275000D03*
X101845000Y-98275000D03*
X101845000Y-103225000D03*
X103115000Y-103225000D03*
X104385000Y-103225000D03*
X105655000Y-103225000D03*
%TD*%
D21*
%TO.C,C1*%
X105225000Y-74750000D03*
X106775000Y-74750000D03*
%TD*%
D24*
%TO.C,C17*%
X108750000Y-69775000D03*
X108750000Y-68225000D03*
%TD*%
D21*
%TO.C,C12*%
X116700000Y-103000000D03*
X118250000Y-103000000D03*
%TD*%
D25*
%TO.C,Y1*%
X101700000Y-80650000D03*
X101700000Y-82850000D03*
X103300000Y-82850000D03*
X103300000Y-80650000D03*
%TD*%
D17*
%TO.C,FB2*%
X122750000Y-79287500D03*
X122750000Y-77712500D03*
%TD*%
D12*
%TO.C,D5*%
X101712500Y-92000000D03*
X103287500Y-92000000D03*
%TD*%
D21*
%TO.C,C13*%
X117950000Y-107500000D03*
X119500000Y-107500000D03*
%TD*%
D15*
%TO.C,C14*%
X124500000Y-75225000D03*
X124500000Y-76775000D03*
%TD*%
D26*
%TO.C,J2*%
X114125000Y-111500000D03*
X116875000Y-111500000D03*
X108625000Y-111500000D03*
X111375000Y-111500000D03*
D27*
X116875000Y-115500000D03*
X114125000Y-115500000D03*
X111375000Y-115500000D03*
X108625000Y-115500000D03*
%TD*%
D28*
%TO.C,C10*%
X103350000Y-84850000D03*
X101800000Y-84850000D03*
%TD*%
D29*
%TO.C,L1*%
X120000000Y-101500000D03*
X122950000Y-101500000D03*
%TD*%
D30*
%TO.C,F1*%
X115400000Y-108500000D03*
X112600000Y-108500000D03*
%TD*%
D31*
%TO.C,R1*%
X111925000Y-75500000D03*
X113575000Y-75500000D03*
%TD*%
D28*
%TO.C,C7*%
X117025000Y-91000000D03*
X115475000Y-91000000D03*
%TD*%
D32*
%TO.C,SW1*%
X115000000Y-96075000D03*
X110500000Y-96075000D03*
X115000000Y-93925000D03*
X110500000Y-93925000D03*
%TD*%
D10*
%TO.C,R10*%
X106825000Y-95500000D03*
X105175000Y-95500000D03*
%TD*%
D33*
%TO.C,R2*%
X105250000Y-81175000D03*
X105250000Y-82825000D03*
%TD*%
D11*
%TO.C,H3*%
X122250000Y-67500000D03*
%TD*%
D24*
%TO.C,C3*%
X105250000Y-86275000D03*
X105250000Y-84725000D03*
%TD*%
D10*
%TO.C,R11*%
X119900000Y-93500000D03*
X118250000Y-93500000D03*
%TD*%
D34*
%TO.C,D1*%
X102800000Y-107500000D03*
X104700000Y-107500000D03*
X103750000Y-105500000D03*
%TD*%
D12*
%TO.C,D6*%
X101712500Y-93750000D03*
X103287500Y-93750000D03*
%TD*%
D35*
%TO.C,U1*%
X107325000Y-79500000D03*
X107325000Y-80000000D03*
X107325000Y-80500000D03*
X107325000Y-81000000D03*
X107325000Y-81500000D03*
X107325000Y-82000000D03*
X107325000Y-82500000D03*
X107325000Y-83000000D03*
X107325000Y-83500000D03*
X107325000Y-84000000D03*
X107325000Y-84500000D03*
X107325000Y-85000000D03*
X107325000Y-85500000D03*
X107325000Y-86000000D03*
X107325000Y-86500000D03*
X107325000Y-87000000D03*
D36*
X109250000Y-88925000D03*
X109750000Y-88925000D03*
X110250000Y-88925000D03*
X110750000Y-88925000D03*
X111250000Y-88925000D03*
X111750000Y-88925000D03*
X112250000Y-88925000D03*
X112750000Y-88925000D03*
X113250000Y-88925000D03*
X113750000Y-88925000D03*
X114250000Y-88925000D03*
X114750000Y-88925000D03*
X115250000Y-88925000D03*
X115750000Y-88925000D03*
X116250000Y-88925000D03*
X116750000Y-88925000D03*
D35*
X118675000Y-87000000D03*
X118675000Y-86500000D03*
X118675000Y-86000000D03*
X118675000Y-85500000D03*
X118675000Y-85000000D03*
X118675000Y-84500000D03*
X118675000Y-84000000D03*
X118675000Y-83500000D03*
X118675000Y-83000000D03*
X118675000Y-82500000D03*
X118675000Y-82000000D03*
X118675000Y-81500000D03*
X118675000Y-81000000D03*
X118675000Y-80500000D03*
X118675000Y-80000000D03*
X118675000Y-79500000D03*
D36*
X116750000Y-77575000D03*
X116250000Y-77575000D03*
X115750000Y-77575000D03*
X115250000Y-77575000D03*
X114750000Y-77575000D03*
X114250000Y-77575000D03*
X113750000Y-77575000D03*
X113250000Y-77575000D03*
X112750000Y-77575000D03*
X112250000Y-77575000D03*
X111750000Y-77575000D03*
X111250000Y-77575000D03*
X110750000Y-77575000D03*
X110250000Y-77575000D03*
X109750000Y-77575000D03*
X109250000Y-77575000D03*
%TD*%
D24*
%TO.C,C15*%
X118500000Y-76025000D03*
X118500000Y-74475000D03*
%TD*%
D37*
%TO.C,R6*%
X116756052Y-69825000D03*
X116756052Y-68175000D03*
%TD*%
D10*
%TO.C,R7*%
X106825000Y-92000000D03*
X105175000Y-92000000D03*
%TD*%
D24*
%TO.C,C5*%
X106750000Y-78025000D03*
X106750000Y-76475000D03*
%TD*%
D11*
%TO.C,H1*%
X122250000Y-113500000D03*
%TD*%
D15*
%TO.C,C11*%
X119825000Y-95225000D03*
X119825000Y-96775000D03*
%TD*%
D21*
%TO.C,C9*%
X101775000Y-78600000D03*
X103325000Y-78600000D03*
%TD*%
D33*
%TO.C,R3*%
X118075000Y-95175000D03*
X118075000Y-96825000D03*
%TD*%
%TO.C,R5*%
X116750000Y-71425000D03*
X116750000Y-73075000D03*
%TD*%
D28*
%TO.C,C6*%
X110775000Y-91000000D03*
X109225000Y-91000000D03*
%TD*%
D38*
%TO.C,FB1*%
X120537500Y-89250000D03*
X118962500Y-89250000D03*
%TD*%
D39*
%TO.C,IC2*%
X114546052Y-68703950D03*
D40*
X114546052Y-72296052D03*
X110953950Y-72296052D03*
X110953950Y-68703950D03*
%TD*%
D41*
%TO.C,J1*%
X123500000Y-82750000D03*
D42*
X123500000Y-85290000D03*
X123500000Y-87830000D03*
X123500000Y-90370000D03*
X123500000Y-92910000D03*
X123500000Y-95450000D03*
%TD*%
M02*
