%TF.GenerationSoftware,KiCad,Pcbnew,6.0.8-f2edbf62ab~116~ubuntu20.04.1*%
%TF.CreationDate,2022-10-23T17:18:19+02:00*%
%TF.ProjectId,TireTempSensor_v2.0,54697265-5465-46d7-9053-656e736f725f,rev?*%
%TF.SameCoordinates,Original*%
%TF.FileFunction,Copper,L2,Inr*%
%TF.FilePolarity,Positive*%
%FSLAX46Y46*%
G04 Gerber Fmt 4.6, Leading zero omitted, Abs format (unit mm)*
G04 Created by KiCad (PCBNEW 6.0.8-f2edbf62ab~116~ubuntu20.04.1) date 2022-10-23 17:18:19*
%MOMM*%
%LPD*%
G01*
G04 APERTURE LIST*
G04 Aperture macros list*
%AMRotRect*
0 Rectangle, with rotation*
0 The origin of the aperture is its center*
0 $1 length*
0 $2 width*
0 $3 Rotation angle, in degrees counterclockwise*
0 Add horizontal line*
21,1,$1,$2,0,0,$3*%
G04 Aperture macros list end*
%TA.AperFunction,ComponentPad*%
%ADD10C,4.500000*%
%TD*%
%TA.AperFunction,ComponentPad*%
%ADD11C,1.600000*%
%TD*%
%TA.AperFunction,ComponentPad*%
%ADD12RotRect,1.192000X1.192000X45.000000*%
%TD*%
%TA.AperFunction,ComponentPad*%
%ADD13C,1.192000*%
%TD*%
%TA.AperFunction,ComponentPad*%
%ADD14R,1.700000X1.700000*%
%TD*%
%TA.AperFunction,ComponentPad*%
%ADD15O,1.700000X1.700000*%
%TD*%
%TA.AperFunction,ViaPad*%
%ADD16C,0.800000*%
%TD*%
G04 APERTURE END LIST*
D10*
%TO.N,GND*%
%TO.C,H4*%
X103250000Y-67500000D03*
%TD*%
%TO.N,GND*%
%TO.C,H2*%
X103250000Y-113500000D03*
%TD*%
D11*
%TO.N,+24V*%
%TO.C,J2*%
X116875000Y-115500000D03*
%TO.N,GND*%
X114125000Y-115500000D03*
%TO.N,/CAN +*%
X111375000Y-115500000D03*
%TO.N,/CAN -*%
X108625000Y-115500000D03*
%TD*%
D10*
%TO.N,GND*%
%TO.C,H3*%
X122250000Y-67500000D03*
%TD*%
%TO.N,GND*%
%TO.C,H1*%
X122250000Y-113500000D03*
%TD*%
D12*
%TO.N,/SCL*%
%TO.C,IC2*%
X114546052Y-68703950D03*
D13*
%TO.N,/SDA*%
X114546052Y-72296052D03*
%TO.N,Net-(C17-Pad1)*%
X110953950Y-72296052D03*
%TO.N,GND*%
X110953950Y-68703950D03*
%TD*%
D14*
%TO.N,+3V3*%
%TO.C,J1*%
X123500000Y-82750000D03*
D15*
%TO.N,/SWCLK*%
X123500000Y-85290000D03*
%TO.N,GND*%
X123500000Y-87830000D03*
%TO.N,/SWDIO*%
X123500000Y-90370000D03*
%TO.N,/NRST*%
X123500000Y-92910000D03*
%TO.N,/SWO*%
X123500000Y-95450000D03*
%TD*%
D16*
%TO.N,/+3V3_uC*%
X118950000Y-88350000D03*
X105850000Y-78000000D03*
X119850000Y-78850000D03*
X111650000Y-91000000D03*
X108700000Y-74600000D03*
X105200000Y-75650000D03*
X117900000Y-91000000D03*
X105250000Y-87150000D03*
%TO.N,GND*%
X114400000Y-75500000D03*
X103750000Y-106400000D03*
X118500000Y-73600000D03*
X100750000Y-92000000D03*
X110500000Y-95300000D03*
X108350000Y-91000000D03*
X100750000Y-93750000D03*
X107850000Y-104250000D03*
X100750000Y-84850000D03*
X100750000Y-88500000D03*
X118250000Y-104050000D03*
X106800000Y-73800000D03*
X104400000Y-99700000D03*
X110300000Y-74600000D03*
X115000000Y-96850000D03*
X120750000Y-81400000D03*
X115000000Y-95300000D03*
X104400000Y-96850000D03*
X107800000Y-68300000D03*
X120450000Y-106650000D03*
X100750000Y-86750000D03*
X124500000Y-77700000D03*
X100300000Y-83850000D03*
X100300000Y-79650000D03*
X100750000Y-90250000D03*
X103300000Y-77500000D03*
X115500000Y-91900000D03*
X104200000Y-78600000D03*
X119400000Y-75000000D03*
X108950000Y-103750000D03*
X104350000Y-85500000D03*
X121500000Y-75000000D03*
X107700000Y-76500000D03*
X105800000Y-76500000D03*
X107850000Y-105350000D03*
X120450000Y-107500000D03*
X100300000Y-81750000D03*
X108950000Y-106950000D03*
X110500000Y-96850000D03*
X107850000Y-106450000D03*
X119800000Y-97650000D03*
X120750000Y-96750000D03*
%TO.N,+3V3*%
X117650000Y-71400000D03*
X123950000Y-103000000D03*
X123950000Y-101000000D03*
X117700000Y-69850000D03*
X117000000Y-106550000D03*
X122750000Y-80150000D03*
X121400000Y-89250000D03*
X100850000Y-95500000D03*
X108250000Y-95500000D03*
X123950000Y-102000000D03*
X124750000Y-103000000D03*
X117450000Y-93500000D03*
X116300000Y-106050000D03*
X123650000Y-79300000D03*
X120550000Y-90150000D03*
X124750000Y-102000000D03*
X123950000Y-100000000D03*
X124750000Y-100000000D03*
X124750000Y-101000000D03*
%TO.N,/SCL*%
X111750000Y-70500000D03*
X114700000Y-87500000D03*
%TO.N,/SDA*%
X113779978Y-70529978D03*
X116199503Y-87500000D03*
%TO.N,/SWCLK*%
X121800000Y-85300000D03*
X116200000Y-79000000D03*
%TO.N,/CAN RX*%
X109250000Y-81750000D03*
X101900000Y-96700000D03*
%TO.N,/CAN TX*%
X110000000Y-81000500D03*
X105700000Y-96700000D03*
%TD*%
%TA.AperFunction,Conductor*%
%TO.N,GND*%
G36*
X122220018Y-64010000D02*
G01*
X122234852Y-64012310D01*
X122234855Y-64012310D01*
X122243724Y-64013691D01*
X122252627Y-64012527D01*
X122252628Y-64012527D01*
X122263076Y-64011161D01*
X122285594Y-64010249D01*
X122586051Y-64025010D01*
X122598345Y-64026221D01*
X122925034Y-64074680D01*
X122937156Y-64077090D01*
X123031196Y-64100646D01*
X123257523Y-64157339D01*
X123269355Y-64160928D01*
X123580311Y-64272190D01*
X123591735Y-64276922D01*
X123659500Y-64308972D01*
X123890292Y-64418128D01*
X123901188Y-64423953D01*
X124042101Y-64508412D01*
X124184467Y-64593744D01*
X124194748Y-64600614D01*
X124460017Y-64797350D01*
X124469556Y-64805177D01*
X124714282Y-65026985D01*
X124723015Y-65035718D01*
X124944823Y-65280444D01*
X124952650Y-65289983D01*
X125017770Y-65377787D01*
X125149386Y-65555252D01*
X125156256Y-65565533D01*
X125241588Y-65707899D01*
X125267435Y-65751022D01*
X125326045Y-65848807D01*
X125331874Y-65859712D01*
X125473078Y-66158265D01*
X125477810Y-66169689D01*
X125589072Y-66480645D01*
X125592661Y-66492477D01*
X125672909Y-66812841D01*
X125675320Y-66824966D01*
X125721378Y-67135461D01*
X125723779Y-67151650D01*
X125724990Y-67163949D01*
X125738221Y-67433235D01*
X125739390Y-67457034D01*
X125738042Y-67482598D01*
X125736309Y-67493724D01*
X125738771Y-67512552D01*
X125740436Y-67525283D01*
X125741500Y-67541621D01*
X125741500Y-99430091D01*
X125721498Y-99498212D01*
X125667842Y-99544705D01*
X125597568Y-99554809D01*
X125532988Y-99525315D01*
X125506381Y-99493092D01*
X125492341Y-99468774D01*
X125489040Y-99463056D01*
X125361253Y-99321134D01*
X125206752Y-99208882D01*
X125200724Y-99206198D01*
X125200722Y-99206197D01*
X125038319Y-99133891D01*
X125038318Y-99133891D01*
X125032288Y-99131206D01*
X124938888Y-99111353D01*
X124851944Y-99092872D01*
X124851939Y-99092872D01*
X124845487Y-99091500D01*
X124654513Y-99091500D01*
X124648061Y-99092872D01*
X124648056Y-99092872D01*
X124561112Y-99111353D01*
X124467712Y-99131206D01*
X124461685Y-99133889D01*
X124461677Y-99133892D01*
X124401248Y-99160797D01*
X124330881Y-99170231D01*
X124298752Y-99160797D01*
X124238323Y-99133892D01*
X124238315Y-99133889D01*
X124232288Y-99131206D01*
X124138888Y-99111353D01*
X124051944Y-99092872D01*
X124051939Y-99092872D01*
X124045487Y-99091500D01*
X123854513Y-99091500D01*
X123848061Y-99092872D01*
X123848056Y-99092872D01*
X123761112Y-99111353D01*
X123667712Y-99131206D01*
X123661682Y-99133891D01*
X123661681Y-99133891D01*
X123499278Y-99206197D01*
X123499276Y-99206198D01*
X123493248Y-99208882D01*
X123338747Y-99321134D01*
X123210960Y-99463056D01*
X123115473Y-99628444D01*
X123056458Y-99810072D01*
X123036496Y-100000000D01*
X123056458Y-100189928D01*
X123115473Y-100371556D01*
X123118776Y-100377278D01*
X123118777Y-100377279D01*
X123153257Y-100437000D01*
X123169995Y-100505995D01*
X123153257Y-100563000D01*
X123115473Y-100628444D01*
X123056458Y-100810072D01*
X123036496Y-101000000D01*
X123056458Y-101189928D01*
X123115473Y-101371556D01*
X123118776Y-101377278D01*
X123118777Y-101377279D01*
X123153257Y-101437000D01*
X123169995Y-101505995D01*
X123153257Y-101563000D01*
X123115473Y-101628444D01*
X123056458Y-101810072D01*
X123036496Y-102000000D01*
X123056458Y-102189928D01*
X123115473Y-102371556D01*
X123118776Y-102377278D01*
X123118777Y-102377279D01*
X123153257Y-102437000D01*
X123169995Y-102505995D01*
X123153257Y-102563000D01*
X123115473Y-102628444D01*
X123056458Y-102810072D01*
X123036496Y-103000000D01*
X123056458Y-103189928D01*
X123115473Y-103371556D01*
X123210960Y-103536944D01*
X123338747Y-103678866D01*
X123493248Y-103791118D01*
X123499276Y-103793802D01*
X123499278Y-103793803D01*
X123601249Y-103839203D01*
X123667712Y-103868794D01*
X123761112Y-103888647D01*
X123848056Y-103907128D01*
X123848061Y-103907128D01*
X123854513Y-103908500D01*
X124045487Y-103908500D01*
X124051939Y-103907128D01*
X124051944Y-103907128D01*
X124138887Y-103888647D01*
X124232288Y-103868794D01*
X124238315Y-103866111D01*
X124238323Y-103866108D01*
X124298752Y-103839203D01*
X124369119Y-103829769D01*
X124401248Y-103839203D01*
X124461677Y-103866108D01*
X124461685Y-103866111D01*
X124467712Y-103868794D01*
X124561112Y-103888647D01*
X124648056Y-103907128D01*
X124648061Y-103907128D01*
X124654513Y-103908500D01*
X124845487Y-103908500D01*
X124851939Y-103907128D01*
X124851944Y-103907128D01*
X124938887Y-103888647D01*
X125032288Y-103868794D01*
X125098751Y-103839203D01*
X125200722Y-103793803D01*
X125200724Y-103793802D01*
X125206752Y-103791118D01*
X125361253Y-103678866D01*
X125489040Y-103536944D01*
X125506382Y-103506907D01*
X125557764Y-103457915D01*
X125627478Y-103444480D01*
X125693389Y-103470867D01*
X125734570Y-103528699D01*
X125741500Y-103569909D01*
X125741500Y-113450633D01*
X125740000Y-113470018D01*
X125739247Y-113474858D01*
X125736309Y-113493724D01*
X125737473Y-113502627D01*
X125737473Y-113502628D01*
X125738839Y-113513076D01*
X125739751Y-113535594D01*
X125726791Y-113799410D01*
X125724991Y-113836045D01*
X125723779Y-113848345D01*
X125675321Y-114175031D01*
X125672910Y-114187156D01*
X125653588Y-114264293D01*
X125592661Y-114507523D01*
X125589072Y-114519355D01*
X125477810Y-114830311D01*
X125473078Y-114841735D01*
X125469884Y-114848489D01*
X125336168Y-115131210D01*
X125331874Y-115140288D01*
X125326047Y-115151188D01*
X125288793Y-115213343D01*
X125156256Y-115434467D01*
X125149386Y-115444748D01*
X124952650Y-115710017D01*
X124944823Y-115719556D01*
X124723020Y-115964277D01*
X124714282Y-115973015D01*
X124469556Y-116194823D01*
X124460017Y-116202650D01*
X124275106Y-116339789D01*
X124194748Y-116399386D01*
X124184467Y-116406256D01*
X124042101Y-116491588D01*
X123901188Y-116576047D01*
X123890292Y-116581872D01*
X123857268Y-116597491D01*
X123591735Y-116723078D01*
X123580311Y-116727810D01*
X123269355Y-116839072D01*
X123257523Y-116842661D01*
X123031196Y-116899354D01*
X122937156Y-116922910D01*
X122925034Y-116925320D01*
X122598345Y-116973779D01*
X122586051Y-116974990D01*
X122292961Y-116989390D01*
X122267402Y-116988042D01*
X122256276Y-116986309D01*
X122224714Y-116990436D01*
X122208379Y-116991500D01*
X117321366Y-116991500D01*
X117253245Y-116971498D01*
X117206752Y-116917842D01*
X117196648Y-116847568D01*
X117226142Y-116782988D01*
X117288755Y-116743793D01*
X117318933Y-116735707D01*
X117318935Y-116735706D01*
X117324243Y-116734284D01*
X117348275Y-116723078D01*
X117526762Y-116639849D01*
X117526767Y-116639846D01*
X117531749Y-116637523D01*
X117636611Y-116564098D01*
X117714789Y-116509357D01*
X117714792Y-116509355D01*
X117719300Y-116506198D01*
X117881198Y-116344300D01*
X118012523Y-116156749D01*
X118014846Y-116151767D01*
X118014849Y-116151762D01*
X118106961Y-115954225D01*
X118106961Y-115954224D01*
X118109284Y-115949243D01*
X118129976Y-115872022D01*
X118167119Y-115733402D01*
X118167119Y-115733400D01*
X118168543Y-115728087D01*
X118177826Y-115621982D01*
X120493142Y-115621982D01*
X120500668Y-115632415D01*
X120646463Y-115749848D01*
X120652648Y-115754244D01*
X120928363Y-115926195D01*
X120935034Y-115929817D01*
X121229414Y-116067402D01*
X121236468Y-116070195D01*
X121545257Y-116171420D01*
X121552570Y-116173339D01*
X121871298Y-116236738D01*
X121878789Y-116237764D01*
X122202823Y-116262413D01*
X122210386Y-116262531D01*
X122535021Y-116248074D01*
X122542562Y-116247282D01*
X122863115Y-116193926D01*
X122870479Y-116192240D01*
X123182315Y-116100757D01*
X123189424Y-116098198D01*
X123488003Y-115969919D01*
X123494770Y-115966515D01*
X123775764Y-115803301D01*
X123782071Y-115799111D01*
X124000005Y-115634588D01*
X124008461Y-115623197D01*
X124001743Y-115610953D01*
X122262812Y-113872022D01*
X122248868Y-113864408D01*
X122247035Y-113864539D01*
X122240420Y-113868790D01*
X120500257Y-115608953D01*
X120493142Y-115621982D01*
X118177826Y-115621982D01*
X118188498Y-115500000D01*
X118168543Y-115271913D01*
X118167119Y-115266598D01*
X118110707Y-115056067D01*
X118110706Y-115056065D01*
X118109284Y-115050757D01*
X118105885Y-115043467D01*
X118014849Y-114848238D01*
X118014846Y-114848233D01*
X118012523Y-114843251D01*
X117939098Y-114738389D01*
X117884357Y-114660211D01*
X117884355Y-114660208D01*
X117881198Y-114655700D01*
X117719300Y-114493802D01*
X117714792Y-114490645D01*
X117714789Y-114490643D01*
X117588920Y-114402509D01*
X117531749Y-114362477D01*
X117526767Y-114360154D01*
X117526762Y-114360151D01*
X117329225Y-114268039D01*
X117329224Y-114268039D01*
X117324243Y-114265716D01*
X117318935Y-114264294D01*
X117318933Y-114264293D01*
X117108402Y-114207881D01*
X117108400Y-114207881D01*
X117103087Y-114206457D01*
X116875000Y-114186502D01*
X116646913Y-114206457D01*
X116641600Y-114207881D01*
X116641598Y-114207881D01*
X116431067Y-114264293D01*
X116431065Y-114264294D01*
X116425757Y-114265716D01*
X116420776Y-114268039D01*
X116420775Y-114268039D01*
X116223238Y-114360151D01*
X116223233Y-114360154D01*
X116218251Y-114362477D01*
X116161080Y-114402509D01*
X116035211Y-114490643D01*
X116035208Y-114490645D01*
X116030700Y-114493802D01*
X115868802Y-114655700D01*
X115865645Y-114660208D01*
X115865643Y-114660211D01*
X115810902Y-114738389D01*
X115737477Y-114843251D01*
X115735154Y-114848233D01*
X115735151Y-114848238D01*
X115644115Y-115043467D01*
X115640716Y-115050757D01*
X115639294Y-115056064D01*
X115639290Y-115056075D01*
X115621447Y-115122665D01*
X115584496Y-115183288D01*
X115520635Y-115214309D01*
X115450140Y-115205879D01*
X115395394Y-115160676D01*
X115378034Y-115122664D01*
X115360236Y-115056239D01*
X115356490Y-115045947D01*
X115264414Y-114848489D01*
X115258931Y-114838994D01*
X115222491Y-114786952D01*
X115212012Y-114778576D01*
X115198566Y-114785644D01*
X114497022Y-115487188D01*
X114489408Y-115501132D01*
X114489539Y-115502965D01*
X114493790Y-115509580D01*
X115199287Y-116215077D01*
X115211062Y-116221507D01*
X115223077Y-116212211D01*
X115258931Y-116161006D01*
X115264414Y-116151511D01*
X115356490Y-115954053D01*
X115360236Y-115943761D01*
X115378034Y-115877336D01*
X115414985Y-115816713D01*
X115478846Y-115785692D01*
X115549340Y-115794120D01*
X115604088Y-115839323D01*
X115621447Y-115877335D01*
X115639290Y-115943925D01*
X115639293Y-115943933D01*
X115640716Y-115949243D01*
X115643039Y-115954224D01*
X115643039Y-115954225D01*
X115735151Y-116151762D01*
X115735154Y-116151767D01*
X115737477Y-116156749D01*
X115868802Y-116344300D01*
X116030700Y-116506198D01*
X116035208Y-116509355D01*
X116035211Y-116509357D01*
X116113389Y-116564098D01*
X116218251Y-116637523D01*
X116223233Y-116639846D01*
X116223238Y-116639849D01*
X116401725Y-116723078D01*
X116425757Y-116734284D01*
X116431065Y-116735706D01*
X116431067Y-116735707D01*
X116461245Y-116743793D01*
X116521868Y-116780745D01*
X116552889Y-116844605D01*
X116544461Y-116915100D01*
X116499258Y-116969847D01*
X116428634Y-116991500D01*
X114569436Y-116991500D01*
X114501315Y-116971498D01*
X114454822Y-116917842D01*
X114444718Y-116847568D01*
X114474212Y-116782988D01*
X114536825Y-116743793D01*
X114568761Y-116735236D01*
X114579053Y-116731490D01*
X114776511Y-116639414D01*
X114786006Y-116633931D01*
X114838048Y-116597491D01*
X114846424Y-116587012D01*
X114839356Y-116573566D01*
X114137812Y-115872022D01*
X114123868Y-115864408D01*
X114122035Y-115864539D01*
X114115420Y-115868790D01*
X113409923Y-116574287D01*
X113403493Y-116586062D01*
X113412789Y-116598077D01*
X113463994Y-116633931D01*
X113473489Y-116639414D01*
X113670947Y-116731490D01*
X113681239Y-116735236D01*
X113713175Y-116743793D01*
X113773798Y-116780745D01*
X113804819Y-116844605D01*
X113796391Y-116915100D01*
X113751188Y-116969847D01*
X113680564Y-116991500D01*
X111821366Y-116991500D01*
X111753245Y-116971498D01*
X111706752Y-116917842D01*
X111696648Y-116847568D01*
X111726142Y-116782988D01*
X111788755Y-116743793D01*
X111818933Y-116735707D01*
X111818935Y-116735706D01*
X111824243Y-116734284D01*
X111848275Y-116723078D01*
X112026762Y-116639849D01*
X112026767Y-116639846D01*
X112031749Y-116637523D01*
X112136611Y-116564098D01*
X112214789Y-116509357D01*
X112214792Y-116509355D01*
X112219300Y-116506198D01*
X112381198Y-116344300D01*
X112512523Y-116156749D01*
X112514846Y-116151767D01*
X112514849Y-116151762D01*
X112606961Y-115954225D01*
X112606961Y-115954224D01*
X112609284Y-115949243D01*
X112610707Y-115943933D01*
X112610710Y-115943925D01*
X112628553Y-115877335D01*
X112665504Y-115816712D01*
X112729365Y-115785691D01*
X112799860Y-115794121D01*
X112854606Y-115839324D01*
X112871966Y-115877336D01*
X112889764Y-115943761D01*
X112893510Y-115954053D01*
X112985586Y-116151511D01*
X112991069Y-116161006D01*
X113027509Y-116213048D01*
X113037988Y-116221424D01*
X113051434Y-116214356D01*
X113752978Y-115512812D01*
X113760592Y-115498868D01*
X113760461Y-115497035D01*
X113756210Y-115490420D01*
X113050713Y-114784923D01*
X113038938Y-114778493D01*
X113026923Y-114787789D01*
X112991069Y-114838994D01*
X112985586Y-114848489D01*
X112893510Y-115045947D01*
X112889764Y-115056239D01*
X112871966Y-115122664D01*
X112835015Y-115183287D01*
X112771154Y-115214308D01*
X112700660Y-115205880D01*
X112645912Y-115160677D01*
X112628553Y-115122665D01*
X112610710Y-115056075D01*
X112610706Y-115056064D01*
X112609284Y-115050757D01*
X112605885Y-115043467D01*
X112514849Y-114848238D01*
X112514846Y-114848233D01*
X112512523Y-114843251D01*
X112439098Y-114738389D01*
X112384357Y-114660211D01*
X112384355Y-114660208D01*
X112381198Y-114655700D01*
X112219300Y-114493802D01*
X112214792Y-114490645D01*
X112214789Y-114490643D01*
X112103886Y-114412988D01*
X113403576Y-114412988D01*
X113410644Y-114426434D01*
X114112188Y-115127978D01*
X114126132Y-115135592D01*
X114127965Y-115135461D01*
X114134580Y-115131210D01*
X114840077Y-114425713D01*
X114846507Y-114413938D01*
X114837211Y-114401923D01*
X114786006Y-114366069D01*
X114776511Y-114360586D01*
X114579053Y-114268510D01*
X114568761Y-114264764D01*
X114358312Y-114208375D01*
X114347519Y-114206472D01*
X114130475Y-114187483D01*
X114119525Y-114187483D01*
X113902481Y-114206472D01*
X113891688Y-114208375D01*
X113681239Y-114264764D01*
X113670947Y-114268510D01*
X113473489Y-114360586D01*
X113463994Y-114366069D01*
X113411952Y-114402509D01*
X113403576Y-114412988D01*
X112103886Y-114412988D01*
X112088920Y-114402509D01*
X112031749Y-114362477D01*
X112026767Y-114360154D01*
X112026762Y-114360151D01*
X111829225Y-114268039D01*
X111829224Y-114268039D01*
X111824243Y-114265716D01*
X111818935Y-114264294D01*
X111818933Y-114264293D01*
X111608402Y-114207881D01*
X111608400Y-114207881D01*
X111603087Y-114206457D01*
X111375000Y-114186502D01*
X111146913Y-114206457D01*
X111141600Y-114207881D01*
X111141598Y-114207881D01*
X110931067Y-114264293D01*
X110931065Y-114264294D01*
X110925757Y-114265716D01*
X110920776Y-114268039D01*
X110920775Y-114268039D01*
X110723238Y-114360151D01*
X110723233Y-114360154D01*
X110718251Y-114362477D01*
X110661080Y-114402509D01*
X110535211Y-114490643D01*
X110535208Y-114490645D01*
X110530700Y-114493802D01*
X110368802Y-114655700D01*
X110365645Y-114660208D01*
X110365643Y-114660211D01*
X110310902Y-114738389D01*
X110237477Y-114843251D01*
X110235154Y-114848233D01*
X110235151Y-114848238D01*
X110144115Y-115043467D01*
X110140716Y-115050757D01*
X110139294Y-115056065D01*
X110139293Y-115056067D01*
X110121707Y-115121699D01*
X110084755Y-115182322D01*
X110020894Y-115213343D01*
X109950400Y-115204915D01*
X109895653Y-115159712D01*
X109878293Y-115121699D01*
X109860707Y-115056067D01*
X109860706Y-115056065D01*
X109859284Y-115050757D01*
X109855885Y-115043467D01*
X109764849Y-114848238D01*
X109764846Y-114848233D01*
X109762523Y-114843251D01*
X109689098Y-114738389D01*
X109634357Y-114660211D01*
X109634355Y-114660208D01*
X109631198Y-114655700D01*
X109469300Y-114493802D01*
X109464792Y-114490645D01*
X109464789Y-114490643D01*
X109338920Y-114402509D01*
X109281749Y-114362477D01*
X109276767Y-114360154D01*
X109276762Y-114360151D01*
X109079225Y-114268039D01*
X109079224Y-114268039D01*
X109074243Y-114265716D01*
X109068935Y-114264294D01*
X109068933Y-114264293D01*
X108858402Y-114207881D01*
X108858400Y-114207881D01*
X108853087Y-114206457D01*
X108625000Y-114186502D01*
X108396913Y-114206457D01*
X108391600Y-114207881D01*
X108391598Y-114207881D01*
X108181067Y-114264293D01*
X108181065Y-114264294D01*
X108175757Y-114265716D01*
X108170776Y-114268039D01*
X108170775Y-114268039D01*
X107973238Y-114360151D01*
X107973233Y-114360154D01*
X107968251Y-114362477D01*
X107911080Y-114402509D01*
X107785211Y-114490643D01*
X107785208Y-114490645D01*
X107780700Y-114493802D01*
X107618802Y-114655700D01*
X107615645Y-114660208D01*
X107615643Y-114660211D01*
X107560902Y-114738389D01*
X107487477Y-114843251D01*
X107485154Y-114848233D01*
X107485151Y-114848238D01*
X107394115Y-115043467D01*
X107390716Y-115050757D01*
X107389294Y-115056065D01*
X107389293Y-115056067D01*
X107332881Y-115266598D01*
X107331457Y-115271913D01*
X107311502Y-115500000D01*
X107331457Y-115728087D01*
X107332881Y-115733400D01*
X107332881Y-115733402D01*
X107370025Y-115872022D01*
X107390716Y-115949243D01*
X107393039Y-115954224D01*
X107393039Y-115954225D01*
X107485151Y-116151762D01*
X107485154Y-116151767D01*
X107487477Y-116156749D01*
X107618802Y-116344300D01*
X107780700Y-116506198D01*
X107785208Y-116509355D01*
X107785211Y-116509357D01*
X107863389Y-116564098D01*
X107968251Y-116637523D01*
X107973233Y-116639846D01*
X107973238Y-116639849D01*
X108151725Y-116723078D01*
X108175757Y-116734284D01*
X108181065Y-116735706D01*
X108181067Y-116735707D01*
X108211245Y-116743793D01*
X108271868Y-116780745D01*
X108302889Y-116844605D01*
X108294461Y-116915100D01*
X108249258Y-116969847D01*
X108178634Y-116991500D01*
X103299367Y-116991500D01*
X103279982Y-116990000D01*
X103265148Y-116987690D01*
X103265145Y-116987690D01*
X103256276Y-116986309D01*
X103247373Y-116987473D01*
X103247372Y-116987473D01*
X103236924Y-116988839D01*
X103214406Y-116989751D01*
X102913949Y-116974990D01*
X102901655Y-116973779D01*
X102574966Y-116925320D01*
X102562844Y-116922910D01*
X102468804Y-116899354D01*
X102242477Y-116842661D01*
X102230645Y-116839072D01*
X101919689Y-116727810D01*
X101908265Y-116723078D01*
X101642732Y-116597491D01*
X101609708Y-116581872D01*
X101598812Y-116576047D01*
X101457899Y-116491588D01*
X101315533Y-116406256D01*
X101305252Y-116399386D01*
X101224894Y-116339789D01*
X101039983Y-116202650D01*
X101030444Y-116194823D01*
X100785718Y-115973015D01*
X100776980Y-115964277D01*
X100555177Y-115719556D01*
X100547350Y-115710017D01*
X100482059Y-115621982D01*
X101493142Y-115621982D01*
X101500668Y-115632415D01*
X101646463Y-115749848D01*
X101652648Y-115754244D01*
X101928363Y-115926195D01*
X101935034Y-115929817D01*
X102229414Y-116067402D01*
X102236468Y-116070195D01*
X102545257Y-116171420D01*
X102552570Y-116173339D01*
X102871298Y-116236738D01*
X102878789Y-116237764D01*
X103202823Y-116262413D01*
X103210386Y-116262531D01*
X103535021Y-116248074D01*
X103542562Y-116247282D01*
X103863115Y-116193926D01*
X103870479Y-116192240D01*
X104182315Y-116100757D01*
X104189424Y-116098198D01*
X104488003Y-115969919D01*
X104494770Y-115966515D01*
X104775764Y-115803301D01*
X104782071Y-115799111D01*
X105000005Y-115634588D01*
X105008461Y-115623197D01*
X105001743Y-115610953D01*
X103262812Y-113872022D01*
X103248868Y-113864408D01*
X103247035Y-113864539D01*
X103240420Y-113868790D01*
X101500257Y-115608953D01*
X101493142Y-115621982D01*
X100482059Y-115621982D01*
X100350614Y-115444748D01*
X100343744Y-115434467D01*
X100211207Y-115213343D01*
X100173953Y-115151188D01*
X100168126Y-115140288D01*
X100163833Y-115131210D01*
X100030116Y-114848489D01*
X100026922Y-114841735D01*
X100022190Y-114830311D01*
X99910928Y-114519355D01*
X99907339Y-114507523D01*
X99846412Y-114264293D01*
X99827090Y-114187156D01*
X99824679Y-114175031D01*
X99776220Y-113848343D01*
X99775009Y-113836045D01*
X99773210Y-113799410D01*
X99769702Y-113728019D01*
X99760795Y-113546695D01*
X99762387Y-113519619D01*
X99763576Y-113512552D01*
X99763729Y-113500000D01*
X99760128Y-113474858D01*
X100487299Y-113474858D01*
X100503456Y-113799410D01*
X100504287Y-113806939D01*
X100559318Y-114127198D01*
X100561051Y-114134585D01*
X100654156Y-114445909D01*
X100656759Y-114453022D01*
X100786595Y-114750913D01*
X100790037Y-114757669D01*
X100954720Y-115037803D01*
X100958943Y-115044088D01*
X101115792Y-115249608D01*
X101127316Y-115258069D01*
X101139382Y-115251408D01*
X102877978Y-113512812D01*
X102884356Y-113501132D01*
X103614408Y-113501132D01*
X103614539Y-113502965D01*
X103618790Y-113509580D01*
X105358825Y-115249615D01*
X105371948Y-115256781D01*
X105382250Y-115249391D01*
X105491429Y-115115285D01*
X105495842Y-115109144D01*
X105669248Y-114834312D01*
X105672895Y-114827677D01*
X105812025Y-114534011D01*
X105814850Y-114526984D01*
X105917696Y-114218715D01*
X105919650Y-114211424D01*
X105984716Y-113893033D01*
X105985784Y-113885529D01*
X106012253Y-113560100D01*
X106012458Y-113555625D01*
X106013018Y-113502221D01*
X106012908Y-113497789D01*
X106011526Y-113474858D01*
X119487299Y-113474858D01*
X119503456Y-113799410D01*
X119504287Y-113806939D01*
X119559318Y-114127198D01*
X119561051Y-114134585D01*
X119654156Y-114445909D01*
X119656759Y-114453022D01*
X119786595Y-114750913D01*
X119790037Y-114757669D01*
X119954720Y-115037803D01*
X119958943Y-115044088D01*
X120115792Y-115249608D01*
X120127316Y-115258069D01*
X120139382Y-115251408D01*
X121877978Y-113512812D01*
X121884356Y-113501132D01*
X122614408Y-113501132D01*
X122614539Y-113502965D01*
X122618790Y-113509580D01*
X124358825Y-115249615D01*
X124371948Y-115256781D01*
X124382250Y-115249391D01*
X124491429Y-115115285D01*
X124495842Y-115109144D01*
X124669248Y-114834312D01*
X124672895Y-114827677D01*
X124812025Y-114534011D01*
X124814850Y-114526984D01*
X124917696Y-114218715D01*
X124919650Y-114211424D01*
X124984716Y-113893033D01*
X124985784Y-113885529D01*
X125012253Y-113560100D01*
X125012458Y-113555625D01*
X125013018Y-113502221D01*
X125012908Y-113497789D01*
X124993257Y-113171835D01*
X124992349Y-113164333D01*
X124933967Y-112844663D01*
X124932154Y-112837284D01*
X124835797Y-112526966D01*
X124833116Y-112519869D01*
X124700172Y-112223363D01*
X124696655Y-112216636D01*
X124529054Y-111938252D01*
X124524757Y-111931999D01*
X124383617Y-111751022D01*
X124371823Y-111742551D01*
X124360113Y-111749097D01*
X122622022Y-113487188D01*
X122614408Y-113501132D01*
X121884356Y-113501132D01*
X121885592Y-113498868D01*
X121885461Y-113497035D01*
X121881210Y-113490420D01*
X120140864Y-111750074D01*
X120127929Y-111743011D01*
X120117367Y-111750671D01*
X119991785Y-111908268D01*
X119987428Y-111914467D01*
X119816913Y-112191094D01*
X119813333Y-112197770D01*
X119677287Y-112492878D01*
X119674537Y-112499929D01*
X119574927Y-112809251D01*
X119573044Y-112816584D01*
X119511316Y-113135632D01*
X119510329Y-113143132D01*
X119487378Y-113467277D01*
X119487299Y-113474858D01*
X106011526Y-113474858D01*
X105993257Y-113171835D01*
X105992349Y-113164333D01*
X105933967Y-112844663D01*
X105932154Y-112837284D01*
X105835797Y-112526966D01*
X105833116Y-112519869D01*
X105700172Y-112223363D01*
X105696655Y-112216636D01*
X105529054Y-111938252D01*
X105524757Y-111931999D01*
X105383617Y-111751022D01*
X105371823Y-111742551D01*
X105360113Y-111749097D01*
X103622022Y-113487188D01*
X103614408Y-113501132D01*
X102884356Y-113501132D01*
X102885592Y-113498868D01*
X102885461Y-113497035D01*
X102881210Y-113490420D01*
X101140864Y-111750074D01*
X101127929Y-111743011D01*
X101117367Y-111750671D01*
X100991785Y-111908268D01*
X100987428Y-111914467D01*
X100816913Y-112191094D01*
X100813333Y-112197770D01*
X100677287Y-112492878D01*
X100674537Y-112499929D01*
X100574927Y-112809251D01*
X100573044Y-112816584D01*
X100511316Y-113135632D01*
X100510329Y-113143132D01*
X100487378Y-113467277D01*
X100487299Y-113474858D01*
X99760128Y-113474858D01*
X99759773Y-113472376D01*
X99758500Y-113454514D01*
X99758500Y-111377773D01*
X101492267Y-111377773D01*
X101498871Y-111389661D01*
X103237188Y-113127978D01*
X103251132Y-113135592D01*
X103252965Y-113135461D01*
X103259580Y-113131210D01*
X104851100Y-111539690D01*
X107362037Y-111539690D01*
X107389025Y-111762715D01*
X107455082Y-111977435D01*
X107457652Y-111982415D01*
X107457654Y-111982419D01*
X107522852Y-112108738D01*
X107558118Y-112177064D01*
X107694877Y-112355292D01*
X107861036Y-112506485D01*
X107865783Y-112509463D01*
X107865786Y-112509465D01*
X107994229Y-112590036D01*
X108051344Y-112625864D01*
X108259783Y-112709656D01*
X108479767Y-112755213D01*
X108484378Y-112755479D01*
X108484379Y-112755479D01*
X108534952Y-112758395D01*
X108534956Y-112758395D01*
X108536775Y-112758500D01*
X108681999Y-112758500D01*
X108684786Y-112758251D01*
X108684792Y-112758251D01*
X108754929Y-112751991D01*
X108848762Y-112743617D01*
X108854176Y-112742136D01*
X108854181Y-112742135D01*
X108981912Y-112707191D01*
X109065451Y-112684337D01*
X109070509Y-112681925D01*
X109070513Y-112681923D01*
X109188042Y-112625864D01*
X109268218Y-112587622D01*
X109450654Y-112456529D01*
X109606992Y-112295201D01*
X109732290Y-112108738D01*
X109822588Y-111903033D01*
X109859311Y-111750074D01*
X109873722Y-111690046D01*
X109873722Y-111690045D01*
X109875032Y-111684589D01*
X109875906Y-111669435D01*
X109899798Y-111602579D01*
X109956042Y-111559253D01*
X110026781Y-111553213D01*
X110089557Y-111586377D01*
X110124437Y-111648214D01*
X110126781Y-111661532D01*
X110139025Y-111762715D01*
X110205082Y-111977435D01*
X110207652Y-111982415D01*
X110207654Y-111982419D01*
X110272852Y-112108738D01*
X110308118Y-112177064D01*
X110444877Y-112355292D01*
X110611036Y-112506485D01*
X110615783Y-112509463D01*
X110615786Y-112509465D01*
X110744229Y-112590036D01*
X110801344Y-112625864D01*
X111009783Y-112709656D01*
X111229767Y-112755213D01*
X111234378Y-112755479D01*
X111234379Y-112755479D01*
X111284952Y-112758395D01*
X111284956Y-112758395D01*
X111286775Y-112758500D01*
X111431999Y-112758500D01*
X111434786Y-112758251D01*
X111434792Y-112758251D01*
X111504929Y-112751991D01*
X111598762Y-112743617D01*
X111604176Y-112742136D01*
X111604181Y-112742135D01*
X111731912Y-112707191D01*
X111815451Y-112684337D01*
X111820509Y-112681925D01*
X111820513Y-112681923D01*
X111938042Y-112625864D01*
X112018218Y-112587622D01*
X112200654Y-112456529D01*
X112356992Y-112295201D01*
X112482290Y-112108738D01*
X112572588Y-111903033D01*
X112609311Y-111750074D01*
X112623722Y-111690046D01*
X112623722Y-111690045D01*
X112625032Y-111684589D01*
X112625906Y-111669435D01*
X112649798Y-111602579D01*
X112706042Y-111559253D01*
X112776781Y-111553213D01*
X112839557Y-111586377D01*
X112874437Y-111648214D01*
X112876781Y-111661532D01*
X112889025Y-111762715D01*
X112955082Y-111977435D01*
X112957652Y-111982415D01*
X112957654Y-111982419D01*
X113022852Y-112108738D01*
X113058118Y-112177064D01*
X113194877Y-112355292D01*
X113361036Y-112506485D01*
X113365783Y-112509463D01*
X113365786Y-112509465D01*
X113494229Y-112590036D01*
X113551344Y-112625864D01*
X113759783Y-112709656D01*
X113979767Y-112755213D01*
X113984378Y-112755479D01*
X113984379Y-112755479D01*
X114034952Y-112758395D01*
X114034956Y-112758395D01*
X114036775Y-112758500D01*
X114181999Y-112758500D01*
X114184786Y-112758251D01*
X114184792Y-112758251D01*
X114254929Y-112751991D01*
X114348762Y-112743617D01*
X114354176Y-112742136D01*
X114354181Y-112742135D01*
X114481912Y-112707191D01*
X114565451Y-112684337D01*
X114570509Y-112681925D01*
X114570513Y-112681923D01*
X114688042Y-112625864D01*
X114768218Y-112587622D01*
X114950654Y-112456529D01*
X115106992Y-112295201D01*
X115232290Y-112108738D01*
X115322588Y-111903033D01*
X115359311Y-111750074D01*
X115373722Y-111690046D01*
X115373722Y-111690045D01*
X115375032Y-111684589D01*
X115375906Y-111669435D01*
X115399798Y-111602579D01*
X115456042Y-111559253D01*
X115526781Y-111553213D01*
X115589557Y-111586377D01*
X115624437Y-111648214D01*
X115626781Y-111661532D01*
X115639025Y-111762715D01*
X115705082Y-111977435D01*
X115707652Y-111982415D01*
X115707654Y-111982419D01*
X115772852Y-112108738D01*
X115808118Y-112177064D01*
X115944877Y-112355292D01*
X116111036Y-112506485D01*
X116115783Y-112509463D01*
X116115786Y-112509465D01*
X116244229Y-112590036D01*
X116301344Y-112625864D01*
X116509783Y-112709656D01*
X116729767Y-112755213D01*
X116734378Y-112755479D01*
X116734379Y-112755479D01*
X116784952Y-112758395D01*
X116784956Y-112758395D01*
X116786775Y-112758500D01*
X116931999Y-112758500D01*
X116934786Y-112758251D01*
X116934792Y-112758251D01*
X117004929Y-112751991D01*
X117098762Y-112743617D01*
X117104176Y-112742136D01*
X117104181Y-112742135D01*
X117231912Y-112707191D01*
X117315451Y-112684337D01*
X117320509Y-112681925D01*
X117320513Y-112681923D01*
X117438042Y-112625864D01*
X117518218Y-112587622D01*
X117700654Y-112456529D01*
X117856992Y-112295201D01*
X117982290Y-112108738D01*
X118072588Y-111903033D01*
X118109311Y-111750074D01*
X118123722Y-111690046D01*
X118123722Y-111690045D01*
X118125032Y-111684589D01*
X118129879Y-111600525D01*
X118137640Y-111465917D01*
X118137640Y-111465914D01*
X118137963Y-111460310D01*
X118127975Y-111377773D01*
X120492267Y-111377773D01*
X120498871Y-111389661D01*
X122237188Y-113127978D01*
X122251132Y-113135592D01*
X122252965Y-113135461D01*
X122259580Y-113131210D01*
X124000162Y-111390628D01*
X124007174Y-111377787D01*
X123999379Y-111367098D01*
X123829886Y-111233481D01*
X123823663Y-111229156D01*
X123546140Y-111060088D01*
X123539465Y-111056553D01*
X123243637Y-110922049D01*
X123236567Y-110919335D01*
X122926740Y-110821350D01*
X122919389Y-110819503D01*
X122600024Y-110759446D01*
X122592515Y-110758498D01*
X122268251Y-110737245D01*
X122260686Y-110737205D01*
X121936207Y-110755062D01*
X121928693Y-110755931D01*
X121608713Y-110812641D01*
X121601357Y-110814406D01*
X121290503Y-110909147D01*
X121283409Y-110911786D01*
X120986207Y-111043178D01*
X120979470Y-111046655D01*
X120700196Y-111212805D01*
X120693945Y-111217053D01*
X120500733Y-111366115D01*
X120492267Y-111377773D01*
X118127975Y-111377773D01*
X118110975Y-111237285D01*
X118044918Y-111022565D01*
X117979798Y-110896396D01*
X117944454Y-110827919D01*
X117944454Y-110827918D01*
X117941882Y-110822936D01*
X117805123Y-110644708D01*
X117638964Y-110493515D01*
X117634217Y-110490537D01*
X117634214Y-110490535D01*
X117453405Y-110377115D01*
X117448656Y-110374136D01*
X117240217Y-110290344D01*
X117020233Y-110244787D01*
X117015622Y-110244521D01*
X117015621Y-110244521D01*
X116965048Y-110241605D01*
X116965044Y-110241605D01*
X116963225Y-110241500D01*
X116818001Y-110241500D01*
X116815214Y-110241749D01*
X116815208Y-110241749D01*
X116745071Y-110248009D01*
X116651238Y-110256383D01*
X116645824Y-110257864D01*
X116645819Y-110257865D01*
X116531262Y-110289205D01*
X116434549Y-110315663D01*
X116429491Y-110318075D01*
X116429487Y-110318077D01*
X116333166Y-110364020D01*
X116231782Y-110412378D01*
X116049346Y-110543471D01*
X115893008Y-110704799D01*
X115767710Y-110891262D01*
X115677412Y-111096967D01*
X115676103Y-111102418D01*
X115676102Y-111102422D01*
X115648582Y-111217053D01*
X115624968Y-111315411D01*
X115624645Y-111321016D01*
X115624094Y-111330565D01*
X115600202Y-111397421D01*
X115543958Y-111440747D01*
X115473219Y-111446787D01*
X115410443Y-111413623D01*
X115375563Y-111351786D01*
X115373219Y-111338468D01*
X115360975Y-111237285D01*
X115294918Y-111022565D01*
X115229798Y-110896396D01*
X115194454Y-110827919D01*
X115194454Y-110827918D01*
X115191882Y-110822936D01*
X115055123Y-110644708D01*
X114888964Y-110493515D01*
X114884217Y-110490537D01*
X114884214Y-110490535D01*
X114703405Y-110377115D01*
X114698656Y-110374136D01*
X114490217Y-110290344D01*
X114270233Y-110244787D01*
X114265622Y-110244521D01*
X114265621Y-110244521D01*
X114215048Y-110241605D01*
X114215044Y-110241605D01*
X114213225Y-110241500D01*
X114068001Y-110241500D01*
X114065214Y-110241749D01*
X114065208Y-110241749D01*
X113995071Y-110248009D01*
X113901238Y-110256383D01*
X113895824Y-110257864D01*
X113895819Y-110257865D01*
X113781262Y-110289205D01*
X113684549Y-110315663D01*
X113679491Y-110318075D01*
X113679487Y-110318077D01*
X113583166Y-110364020D01*
X113481782Y-110412378D01*
X113299346Y-110543471D01*
X113143008Y-110704799D01*
X113017710Y-110891262D01*
X112927412Y-111096967D01*
X112926103Y-111102418D01*
X112926102Y-111102422D01*
X112898582Y-111217053D01*
X112874968Y-111315411D01*
X112874645Y-111321016D01*
X112874094Y-111330565D01*
X112850202Y-111397421D01*
X112793958Y-111440747D01*
X112723219Y-111446787D01*
X112660443Y-111413623D01*
X112625563Y-111351786D01*
X112623219Y-111338468D01*
X112610975Y-111237285D01*
X112544918Y-111022565D01*
X112479798Y-110896396D01*
X112444454Y-110827919D01*
X112444454Y-110827918D01*
X112441882Y-110822936D01*
X112305123Y-110644708D01*
X112138964Y-110493515D01*
X112134217Y-110490537D01*
X112134214Y-110490535D01*
X111953405Y-110377115D01*
X111948656Y-110374136D01*
X111740217Y-110290344D01*
X111520233Y-110244787D01*
X111515622Y-110244521D01*
X111515621Y-110244521D01*
X111465048Y-110241605D01*
X111465044Y-110241605D01*
X111463225Y-110241500D01*
X111318001Y-110241500D01*
X111315214Y-110241749D01*
X111315208Y-110241749D01*
X111245071Y-110248009D01*
X111151238Y-110256383D01*
X111145824Y-110257864D01*
X111145819Y-110257865D01*
X111031262Y-110289205D01*
X110934549Y-110315663D01*
X110929491Y-110318075D01*
X110929487Y-110318077D01*
X110833166Y-110364020D01*
X110731782Y-110412378D01*
X110549346Y-110543471D01*
X110393008Y-110704799D01*
X110267710Y-110891262D01*
X110177412Y-111096967D01*
X110176103Y-111102418D01*
X110176102Y-111102422D01*
X110148582Y-111217053D01*
X110124968Y-111315411D01*
X110124645Y-111321016D01*
X110124094Y-111330565D01*
X110100202Y-111397421D01*
X110043958Y-111440747D01*
X109973219Y-111446787D01*
X109910443Y-111413623D01*
X109875563Y-111351786D01*
X109873219Y-111338468D01*
X109860975Y-111237285D01*
X109794918Y-111022565D01*
X109729798Y-110896396D01*
X109694454Y-110827919D01*
X109694454Y-110827918D01*
X109691882Y-110822936D01*
X109555123Y-110644708D01*
X109388964Y-110493515D01*
X109384217Y-110490537D01*
X109384214Y-110490535D01*
X109203405Y-110377115D01*
X109198656Y-110374136D01*
X108990217Y-110290344D01*
X108770233Y-110244787D01*
X108765622Y-110244521D01*
X108765621Y-110244521D01*
X108715048Y-110241605D01*
X108715044Y-110241605D01*
X108713225Y-110241500D01*
X108568001Y-110241500D01*
X108565214Y-110241749D01*
X108565208Y-110241749D01*
X108495071Y-110248009D01*
X108401238Y-110256383D01*
X108395824Y-110257864D01*
X108395819Y-110257865D01*
X108281262Y-110289205D01*
X108184549Y-110315663D01*
X108179491Y-110318075D01*
X108179487Y-110318077D01*
X108083166Y-110364020D01*
X107981782Y-110412378D01*
X107799346Y-110543471D01*
X107643008Y-110704799D01*
X107517710Y-110891262D01*
X107427412Y-111096967D01*
X107426103Y-111102418D01*
X107426102Y-111102422D01*
X107398582Y-111217053D01*
X107374968Y-111315411D01*
X107371372Y-111377787D01*
X107369306Y-111413623D01*
X107362037Y-111539690D01*
X104851100Y-111539690D01*
X105000162Y-111390628D01*
X105007174Y-111377787D01*
X104999379Y-111367098D01*
X104829886Y-111233481D01*
X104823663Y-111229156D01*
X104546140Y-111060088D01*
X104539465Y-111056553D01*
X104243637Y-110922049D01*
X104236567Y-110919335D01*
X103926740Y-110821350D01*
X103919389Y-110819503D01*
X103600024Y-110759446D01*
X103592515Y-110758498D01*
X103268251Y-110737245D01*
X103260686Y-110737205D01*
X102936207Y-110755062D01*
X102928693Y-110755931D01*
X102608713Y-110812641D01*
X102601357Y-110814406D01*
X102290503Y-110909147D01*
X102283409Y-110911786D01*
X101986207Y-111043178D01*
X101979470Y-111046655D01*
X101700196Y-111212805D01*
X101693945Y-111217053D01*
X101500733Y-111366115D01*
X101492267Y-111377773D01*
X99758500Y-111377773D01*
X99758500Y-106050000D01*
X115386496Y-106050000D01*
X115406458Y-106239928D01*
X115465473Y-106421556D01*
X115560960Y-106586944D01*
X115688747Y-106728866D01*
X115843248Y-106841118D01*
X115849276Y-106843802D01*
X115849278Y-106843803D01*
X116009799Y-106915271D01*
X116017712Y-106918794D01*
X116129455Y-106942546D01*
X116191926Y-106976273D01*
X116212373Y-107002790D01*
X116260960Y-107086944D01*
X116388747Y-107228866D01*
X116543248Y-107341118D01*
X116549276Y-107343802D01*
X116549278Y-107343803D01*
X116711681Y-107416109D01*
X116717712Y-107418794D01*
X116811113Y-107438647D01*
X116898056Y-107457128D01*
X116898061Y-107457128D01*
X116904513Y-107458500D01*
X117095487Y-107458500D01*
X117101939Y-107457128D01*
X117101944Y-107457128D01*
X117188888Y-107438647D01*
X117282288Y-107418794D01*
X117288319Y-107416109D01*
X117450722Y-107343803D01*
X117450724Y-107343802D01*
X117456752Y-107341118D01*
X117611253Y-107228866D01*
X117739040Y-107086944D01*
X117834527Y-106921556D01*
X117893542Y-106739928D01*
X117913504Y-106550000D01*
X117893542Y-106360072D01*
X117834527Y-106178444D01*
X117739040Y-106013056D01*
X117611253Y-105871134D01*
X117456752Y-105758882D01*
X117450724Y-105756198D01*
X117450722Y-105756197D01*
X117288319Y-105683891D01*
X117288318Y-105683891D01*
X117282288Y-105681206D01*
X117170545Y-105657454D01*
X117108074Y-105623727D01*
X117087625Y-105597208D01*
X117042341Y-105518774D01*
X117039040Y-105513056D01*
X116911253Y-105371134D01*
X116756752Y-105258882D01*
X116750724Y-105256198D01*
X116750722Y-105256197D01*
X116588319Y-105183891D01*
X116588318Y-105183891D01*
X116582288Y-105181206D01*
X116488887Y-105161353D01*
X116401944Y-105142872D01*
X116401939Y-105142872D01*
X116395487Y-105141500D01*
X116204513Y-105141500D01*
X116198061Y-105142872D01*
X116198056Y-105142872D01*
X116111113Y-105161353D01*
X116017712Y-105181206D01*
X116011682Y-105183891D01*
X116011681Y-105183891D01*
X115849278Y-105256197D01*
X115849276Y-105256198D01*
X115843248Y-105258882D01*
X115688747Y-105371134D01*
X115560960Y-105513056D01*
X115465473Y-105678444D01*
X115406458Y-105860072D01*
X115386496Y-106050000D01*
X99758500Y-106050000D01*
X99758500Y-95876207D01*
X99778502Y-95808086D01*
X99832158Y-95761593D01*
X99902432Y-95751489D01*
X99967012Y-95780983D01*
X100004332Y-95837269D01*
X100015473Y-95871556D01*
X100110960Y-96036944D01*
X100238747Y-96178866D01*
X100393248Y-96291118D01*
X100399276Y-96293802D01*
X100399278Y-96293803D01*
X100561681Y-96366109D01*
X100567712Y-96368794D01*
X100661113Y-96388647D01*
X100748056Y-96407128D01*
X100748061Y-96407128D01*
X100754513Y-96408500D01*
X100877196Y-96408500D01*
X100945317Y-96428502D01*
X100991810Y-96482158D01*
X101002506Y-96547670D01*
X101000513Y-96566632D01*
X100986496Y-96700000D01*
X100987186Y-96706565D01*
X100998242Y-96811753D01*
X101006458Y-96889928D01*
X101065473Y-97071556D01*
X101160960Y-97236944D01*
X101288747Y-97378866D01*
X101443248Y-97491118D01*
X101449276Y-97493802D01*
X101449278Y-97493803D01*
X101611681Y-97566109D01*
X101617712Y-97568794D01*
X101711112Y-97588647D01*
X101798056Y-97607128D01*
X101798061Y-97607128D01*
X101804513Y-97608500D01*
X101995487Y-97608500D01*
X102001939Y-97607128D01*
X102001944Y-97607128D01*
X102088888Y-97588647D01*
X102182288Y-97568794D01*
X102188319Y-97566109D01*
X102350722Y-97493803D01*
X102350724Y-97493802D01*
X102356752Y-97491118D01*
X102511253Y-97378866D01*
X102639040Y-97236944D01*
X102734527Y-97071556D01*
X102793542Y-96889928D01*
X102801759Y-96811753D01*
X102812814Y-96706565D01*
X102813504Y-96700000D01*
X104786496Y-96700000D01*
X104787186Y-96706565D01*
X104798242Y-96811753D01*
X104806458Y-96889928D01*
X104865473Y-97071556D01*
X104960960Y-97236944D01*
X105088747Y-97378866D01*
X105243248Y-97491118D01*
X105249276Y-97493802D01*
X105249278Y-97493803D01*
X105411681Y-97566109D01*
X105417712Y-97568794D01*
X105511112Y-97588647D01*
X105598056Y-97607128D01*
X105598061Y-97607128D01*
X105604513Y-97608500D01*
X105795487Y-97608500D01*
X105801939Y-97607128D01*
X105801944Y-97607128D01*
X105888888Y-97588647D01*
X105982288Y-97568794D01*
X105988319Y-97566109D01*
X106150722Y-97493803D01*
X106150724Y-97493802D01*
X106156752Y-97491118D01*
X106311253Y-97378866D01*
X106439040Y-97236944D01*
X106534527Y-97071556D01*
X106593542Y-96889928D01*
X106601759Y-96811753D01*
X106612814Y-96706565D01*
X106613504Y-96700000D01*
X106593542Y-96510072D01*
X106534527Y-96328444D01*
X106439040Y-96163056D01*
X106429155Y-96152077D01*
X106315675Y-96026045D01*
X106315674Y-96026044D01*
X106311253Y-96021134D01*
X106156752Y-95908882D01*
X106150724Y-95906198D01*
X106150722Y-95906197D01*
X105988319Y-95833891D01*
X105988318Y-95833891D01*
X105982288Y-95831206D01*
X105873518Y-95808086D01*
X105801944Y-95792872D01*
X105801939Y-95792872D01*
X105795487Y-95791500D01*
X105604513Y-95791500D01*
X105598061Y-95792872D01*
X105598056Y-95792872D01*
X105526482Y-95808086D01*
X105417712Y-95831206D01*
X105411682Y-95833891D01*
X105411681Y-95833891D01*
X105249278Y-95906197D01*
X105249276Y-95906198D01*
X105243248Y-95908882D01*
X105088747Y-96021134D01*
X105084326Y-96026044D01*
X105084325Y-96026045D01*
X104970846Y-96152077D01*
X104960960Y-96163056D01*
X104865473Y-96328444D01*
X104806458Y-96510072D01*
X104786496Y-96700000D01*
X102813504Y-96700000D01*
X102793542Y-96510072D01*
X102734527Y-96328444D01*
X102639040Y-96163056D01*
X102629155Y-96152077D01*
X102515675Y-96026045D01*
X102515674Y-96026044D01*
X102511253Y-96021134D01*
X102356752Y-95908882D01*
X102350724Y-95906198D01*
X102350722Y-95906197D01*
X102188319Y-95833891D01*
X102188318Y-95833891D01*
X102182288Y-95831206D01*
X102073518Y-95808086D01*
X102001944Y-95792872D01*
X102001939Y-95792872D01*
X101995487Y-95791500D01*
X101872804Y-95791500D01*
X101804683Y-95771498D01*
X101758190Y-95717842D01*
X101747494Y-95652330D01*
X101762814Y-95506565D01*
X101763504Y-95500000D01*
X107336496Y-95500000D01*
X107356458Y-95689928D01*
X107415473Y-95871556D01*
X107510960Y-96036944D01*
X107638747Y-96178866D01*
X107793248Y-96291118D01*
X107799276Y-96293802D01*
X107799278Y-96293803D01*
X107961681Y-96366109D01*
X107967712Y-96368794D01*
X108061113Y-96388647D01*
X108148056Y-96407128D01*
X108148061Y-96407128D01*
X108154513Y-96408500D01*
X108345487Y-96408500D01*
X108351939Y-96407128D01*
X108351944Y-96407128D01*
X108438887Y-96388647D01*
X108532288Y-96368794D01*
X108538319Y-96366109D01*
X108700722Y-96293803D01*
X108700724Y-96293802D01*
X108706752Y-96291118D01*
X108861253Y-96178866D01*
X108989040Y-96036944D01*
X109084527Y-95871556D01*
X109143542Y-95689928D01*
X109163504Y-95500000D01*
X109143542Y-95310072D01*
X109084527Y-95128444D01*
X108989040Y-94963056D01*
X108861253Y-94821134D01*
X108706752Y-94708882D01*
X108700724Y-94706198D01*
X108700722Y-94706197D01*
X108538319Y-94633891D01*
X108538318Y-94633891D01*
X108532288Y-94631206D01*
X108438888Y-94611353D01*
X108351944Y-94592872D01*
X108351939Y-94592872D01*
X108345487Y-94591500D01*
X108154513Y-94591500D01*
X108148061Y-94592872D01*
X108148056Y-94592872D01*
X108061113Y-94611353D01*
X107967712Y-94631206D01*
X107961682Y-94633891D01*
X107961681Y-94633891D01*
X107799278Y-94706197D01*
X107799276Y-94706198D01*
X107793248Y-94708882D01*
X107638747Y-94821134D01*
X107510960Y-94963056D01*
X107415473Y-95128444D01*
X107356458Y-95310072D01*
X107336496Y-95500000D01*
X101763504Y-95500000D01*
X101743542Y-95310072D01*
X101684527Y-95128444D01*
X101589040Y-94963056D01*
X101461253Y-94821134D01*
X101306752Y-94708882D01*
X101300724Y-94706198D01*
X101300722Y-94706197D01*
X101138319Y-94633891D01*
X101138318Y-94633891D01*
X101132288Y-94631206D01*
X101038888Y-94611353D01*
X100951944Y-94592872D01*
X100951939Y-94592872D01*
X100945487Y-94591500D01*
X100754513Y-94591500D01*
X100748061Y-94592872D01*
X100748056Y-94592872D01*
X100661113Y-94611353D01*
X100567712Y-94631206D01*
X100561682Y-94633891D01*
X100561681Y-94633891D01*
X100399278Y-94706197D01*
X100399276Y-94706198D01*
X100393248Y-94708882D01*
X100238747Y-94821134D01*
X100110960Y-94963056D01*
X100015473Y-95128444D01*
X100013432Y-95134726D01*
X100004333Y-95162730D01*
X99964259Y-95221335D01*
X99898862Y-95248972D01*
X99828906Y-95236865D01*
X99776600Y-95188859D01*
X99758500Y-95123793D01*
X99758500Y-93500000D01*
X116536496Y-93500000D01*
X116556458Y-93689928D01*
X116615473Y-93871556D01*
X116710960Y-94036944D01*
X116715378Y-94041851D01*
X116715379Y-94041852D01*
X116772702Y-94105516D01*
X116838747Y-94178866D01*
X116993248Y-94291118D01*
X116999276Y-94293802D01*
X116999278Y-94293803D01*
X117161681Y-94366109D01*
X117167712Y-94368794D01*
X117261113Y-94388647D01*
X117348056Y-94407128D01*
X117348061Y-94407128D01*
X117354513Y-94408500D01*
X117545487Y-94408500D01*
X117551939Y-94407128D01*
X117551944Y-94407128D01*
X117638887Y-94388647D01*
X117732288Y-94368794D01*
X117738319Y-94366109D01*
X117900722Y-94293803D01*
X117900724Y-94293802D01*
X117906752Y-94291118D01*
X118061253Y-94178866D01*
X118127298Y-94105516D01*
X118184621Y-94041852D01*
X118184622Y-94041851D01*
X118189040Y-94036944D01*
X118284527Y-93871556D01*
X118343542Y-93689928D01*
X118363504Y-93500000D01*
X118353714Y-93406857D01*
X118344232Y-93316635D01*
X118344232Y-93316633D01*
X118343542Y-93310072D01*
X118284527Y-93128444D01*
X118189040Y-92963056D01*
X118061253Y-92821134D01*
X117906752Y-92708882D01*
X117900724Y-92706198D01*
X117900722Y-92706197D01*
X117738319Y-92633891D01*
X117738318Y-92633891D01*
X117732288Y-92631206D01*
X117638888Y-92611353D01*
X117551944Y-92592872D01*
X117551939Y-92592872D01*
X117545487Y-92591500D01*
X117354513Y-92591500D01*
X117348061Y-92592872D01*
X117348056Y-92592872D01*
X117261113Y-92611353D01*
X117167712Y-92631206D01*
X117161682Y-92633891D01*
X117161681Y-92633891D01*
X116999278Y-92706197D01*
X116999276Y-92706198D01*
X116993248Y-92708882D01*
X116838747Y-92821134D01*
X116710960Y-92963056D01*
X116615473Y-93128444D01*
X116556458Y-93310072D01*
X116555768Y-93316633D01*
X116555768Y-93316635D01*
X116546286Y-93406857D01*
X116536496Y-93500000D01*
X99758500Y-93500000D01*
X99758500Y-91000000D01*
X110736496Y-91000000D01*
X110737186Y-91006565D01*
X110744072Y-91072077D01*
X110756458Y-91189928D01*
X110815473Y-91371556D01*
X110910960Y-91536944D01*
X110915378Y-91541851D01*
X110915379Y-91541852D01*
X111027737Y-91666638D01*
X111038747Y-91678866D01*
X111069713Y-91701364D01*
X111167078Y-91772104D01*
X111193248Y-91791118D01*
X111199276Y-91793802D01*
X111199278Y-91793803D01*
X111361681Y-91866109D01*
X111367712Y-91868794D01*
X111461113Y-91888647D01*
X111548056Y-91907128D01*
X111548061Y-91907128D01*
X111554513Y-91908500D01*
X111745487Y-91908500D01*
X111751939Y-91907128D01*
X111751944Y-91907128D01*
X111838888Y-91888647D01*
X111932288Y-91868794D01*
X111938319Y-91866109D01*
X112100722Y-91793803D01*
X112100724Y-91793802D01*
X112106752Y-91791118D01*
X112132923Y-91772104D01*
X112230287Y-91701364D01*
X112261253Y-91678866D01*
X112272263Y-91666638D01*
X112384621Y-91541852D01*
X112384622Y-91541851D01*
X112389040Y-91536944D01*
X112484527Y-91371556D01*
X112543542Y-91189928D01*
X112555929Y-91072077D01*
X112562814Y-91006565D01*
X112563504Y-91000000D01*
X116986496Y-91000000D01*
X116987186Y-91006565D01*
X116994072Y-91072077D01*
X117006458Y-91189928D01*
X117065473Y-91371556D01*
X117160960Y-91536944D01*
X117165378Y-91541851D01*
X117165379Y-91541852D01*
X117277737Y-91666638D01*
X117288747Y-91678866D01*
X117319713Y-91701364D01*
X117417078Y-91772104D01*
X117443248Y-91791118D01*
X117449276Y-91793802D01*
X117449278Y-91793803D01*
X117611681Y-91866109D01*
X117617712Y-91868794D01*
X117711113Y-91888647D01*
X117798056Y-91907128D01*
X117798061Y-91907128D01*
X117804513Y-91908500D01*
X117995487Y-91908500D01*
X118001939Y-91907128D01*
X118001944Y-91907128D01*
X118088888Y-91888647D01*
X118182288Y-91868794D01*
X118188319Y-91866109D01*
X118350722Y-91793803D01*
X118350724Y-91793802D01*
X118356752Y-91791118D01*
X118382923Y-91772104D01*
X118480287Y-91701364D01*
X118511253Y-91678866D01*
X118522263Y-91666638D01*
X118634621Y-91541852D01*
X118634622Y-91541851D01*
X118639040Y-91536944D01*
X118734527Y-91371556D01*
X118793542Y-91189928D01*
X118805929Y-91072077D01*
X118812814Y-91006565D01*
X118813504Y-91000000D01*
X118799510Y-90866857D01*
X118794232Y-90816635D01*
X118794232Y-90816633D01*
X118793542Y-90810072D01*
X118734527Y-90628444D01*
X118639040Y-90463056D01*
X118618198Y-90439908D01*
X118515675Y-90326045D01*
X118515674Y-90326044D01*
X118511253Y-90321134D01*
X118356752Y-90208882D01*
X118350724Y-90206198D01*
X118350722Y-90206197D01*
X118224501Y-90150000D01*
X119636496Y-90150000D01*
X119637186Y-90156565D01*
X119654483Y-90321134D01*
X119656458Y-90339928D01*
X119715473Y-90521556D01*
X119810960Y-90686944D01*
X119938747Y-90828866D01*
X120093248Y-90941118D01*
X120099276Y-90943802D01*
X120099278Y-90943803D01*
X120240245Y-91006565D01*
X120267712Y-91018794D01*
X120361112Y-91038647D01*
X120448056Y-91057128D01*
X120448061Y-91057128D01*
X120454513Y-91058500D01*
X120645487Y-91058500D01*
X120651939Y-91057128D01*
X120651944Y-91057128D01*
X120738888Y-91038647D01*
X120832288Y-91018794D01*
X120859755Y-91006565D01*
X121000722Y-90943803D01*
X121000724Y-90943802D01*
X121006752Y-90941118D01*
X121161253Y-90828866D01*
X121289040Y-90686944D01*
X121384527Y-90521556D01*
X121443542Y-90339928D01*
X121445517Y-90321134D01*
X121452291Y-90256690D01*
X121479305Y-90191033D01*
X121537526Y-90150404D01*
X121551397Y-90146616D01*
X121682288Y-90118794D01*
X121688319Y-90116109D01*
X121850722Y-90043803D01*
X121850724Y-90043802D01*
X121856752Y-90041118D01*
X121971367Y-89957845D01*
X122038235Y-89933987D01*
X122107386Y-89950067D01*
X122156866Y-90000981D01*
X122170966Y-90070563D01*
X122166847Y-90093448D01*
X122160989Y-90114570D01*
X122137251Y-90336695D01*
X122137548Y-90341848D01*
X122137548Y-90341851D01*
X122143011Y-90436590D01*
X122150110Y-90559715D01*
X122151247Y-90564761D01*
X122151248Y-90564767D01*
X122164309Y-90622721D01*
X122199222Y-90777639D01*
X122237461Y-90871811D01*
X122264028Y-90937237D01*
X122283266Y-90984616D01*
X122399987Y-91175088D01*
X122546250Y-91343938D01*
X122718126Y-91486632D01*
X122788595Y-91527811D01*
X122791445Y-91529476D01*
X122840169Y-91581114D01*
X122853240Y-91650897D01*
X122826509Y-91716669D01*
X122786055Y-91750027D01*
X122773607Y-91756507D01*
X122769474Y-91759610D01*
X122769471Y-91759612D01*
X122622227Y-91870166D01*
X122594965Y-91890635D01*
X122440629Y-92052138D01*
X122314743Y-92236680D01*
X122220688Y-92439305D01*
X122160989Y-92654570D01*
X122137251Y-92876695D01*
X122137548Y-92881848D01*
X122137548Y-92881851D01*
X122143011Y-92976590D01*
X122150110Y-93099715D01*
X122151247Y-93104761D01*
X122151248Y-93104767D01*
X122171119Y-93192939D01*
X122199222Y-93317639D01*
X122237461Y-93411811D01*
X122273271Y-93500000D01*
X122283266Y-93524616D01*
X122399987Y-93715088D01*
X122546250Y-93883938D01*
X122718126Y-94026632D01*
X122725988Y-94031226D01*
X122791445Y-94069476D01*
X122840169Y-94121114D01*
X122853240Y-94190897D01*
X122826509Y-94256669D01*
X122786055Y-94290027D01*
X122773607Y-94296507D01*
X122769474Y-94299610D01*
X122769471Y-94299612D01*
X122675502Y-94370166D01*
X122594965Y-94430635D01*
X122440629Y-94592138D01*
X122437715Y-94596410D01*
X122437714Y-94596411D01*
X122413979Y-94631206D01*
X122314743Y-94776680D01*
X122299003Y-94810590D01*
X122228231Y-94963056D01*
X122220688Y-94979305D01*
X122160989Y-95194570D01*
X122137251Y-95416695D01*
X122137548Y-95421848D01*
X122137548Y-95421851D01*
X122143011Y-95516590D01*
X122150110Y-95639715D01*
X122151247Y-95644761D01*
X122151248Y-95644767D01*
X122159947Y-95683365D01*
X122199222Y-95857639D01*
X122237461Y-95951811D01*
X122274023Y-96041852D01*
X122283266Y-96064616D01*
X122399987Y-96255088D01*
X122546250Y-96423938D01*
X122718126Y-96566632D01*
X122911000Y-96679338D01*
X123119692Y-96759030D01*
X123124760Y-96760061D01*
X123124763Y-96760062D01*
X123232017Y-96781883D01*
X123338597Y-96803567D01*
X123343772Y-96803757D01*
X123343774Y-96803757D01*
X123556673Y-96811564D01*
X123556677Y-96811564D01*
X123561837Y-96811753D01*
X123566957Y-96811097D01*
X123566959Y-96811097D01*
X123778288Y-96784025D01*
X123778289Y-96784025D01*
X123783416Y-96783368D01*
X123788366Y-96781883D01*
X123992429Y-96720661D01*
X123992434Y-96720659D01*
X123997384Y-96719174D01*
X124197994Y-96620896D01*
X124379860Y-96491173D01*
X124538096Y-96333489D01*
X124568543Y-96291118D01*
X124665435Y-96156277D01*
X124668453Y-96152077D01*
X124767430Y-95951811D01*
X124819332Y-95780983D01*
X124830865Y-95743023D01*
X124830865Y-95743021D01*
X124832370Y-95738069D01*
X124861529Y-95516590D01*
X124861774Y-95506565D01*
X124863074Y-95453365D01*
X124863074Y-95453361D01*
X124863156Y-95450000D01*
X124844852Y-95227361D01*
X124790431Y-95010702D01*
X124701354Y-94805840D01*
X124580014Y-94618277D01*
X124429670Y-94453051D01*
X124425619Y-94449852D01*
X124425615Y-94449848D01*
X124258414Y-94317800D01*
X124258410Y-94317798D01*
X124254359Y-94314598D01*
X124213053Y-94291796D01*
X124163084Y-94241364D01*
X124148312Y-94171921D01*
X124173428Y-94105516D01*
X124200780Y-94078909D01*
X124267629Y-94031226D01*
X124379860Y-93951173D01*
X124538096Y-93793489D01*
X124597594Y-93710689D01*
X124665435Y-93616277D01*
X124668453Y-93612077D01*
X124767430Y-93411811D01*
X124832370Y-93198069D01*
X124861529Y-92976590D01*
X124863156Y-92910000D01*
X124844852Y-92687361D01*
X124790431Y-92470702D01*
X124701354Y-92265840D01*
X124580014Y-92078277D01*
X124429670Y-91913051D01*
X124425619Y-91909852D01*
X124425615Y-91909848D01*
X124258414Y-91777800D01*
X124258410Y-91777798D01*
X124254359Y-91774598D01*
X124213053Y-91751796D01*
X124163084Y-91701364D01*
X124148312Y-91631921D01*
X124173428Y-91565516D01*
X124200780Y-91538909D01*
X124244603Y-91507650D01*
X124379860Y-91411173D01*
X124538096Y-91253489D01*
X124597594Y-91170689D01*
X124665435Y-91076277D01*
X124668453Y-91072077D01*
X124704076Y-91000000D01*
X124765136Y-90876453D01*
X124765137Y-90876451D01*
X124767430Y-90871811D01*
X124832370Y-90658069D01*
X124861529Y-90436590D01*
X124863156Y-90370000D01*
X124844852Y-90147361D01*
X124790431Y-89930702D01*
X124701354Y-89725840D01*
X124580014Y-89538277D01*
X124429670Y-89373051D01*
X124425619Y-89369852D01*
X124425615Y-89369848D01*
X124258414Y-89237800D01*
X124258410Y-89237798D01*
X124254359Y-89234598D01*
X124212569Y-89211529D01*
X124162598Y-89161097D01*
X124147826Y-89091654D01*
X124172942Y-89025248D01*
X124200294Y-88998641D01*
X124375328Y-88873792D01*
X124383200Y-88867139D01*
X124534052Y-88716812D01*
X124540730Y-88708965D01*
X124665003Y-88536020D01*
X124670313Y-88527183D01*
X124764670Y-88336267D01*
X124768469Y-88326672D01*
X124830377Y-88122910D01*
X124832555Y-88112837D01*
X124833986Y-88101962D01*
X124831775Y-88087778D01*
X124818617Y-88084000D01*
X122183225Y-88084000D01*
X122169694Y-88087973D01*
X122168257Y-88097966D01*
X122198565Y-88232446D01*
X122201645Y-88242275D01*
X122281770Y-88439603D01*
X122286413Y-88448794D01*
X122397694Y-88630388D01*
X122403777Y-88638699D01*
X122543213Y-88799667D01*
X122550580Y-88806883D01*
X122714434Y-88942916D01*
X122722881Y-88948831D01*
X122791969Y-88989203D01*
X122840693Y-89040842D01*
X122853764Y-89110625D01*
X122827033Y-89176396D01*
X122786584Y-89209752D01*
X122773607Y-89216507D01*
X122769474Y-89219610D01*
X122769471Y-89219612D01*
X122599100Y-89347530D01*
X122594965Y-89350635D01*
X122591393Y-89354373D01*
X122521820Y-89427177D01*
X122460296Y-89462607D01*
X122389383Y-89459150D01*
X122331597Y-89417904D01*
X122305283Y-89351964D01*
X122305416Y-89326956D01*
X122312814Y-89256565D01*
X122313504Y-89250000D01*
X122300538Y-89126638D01*
X122294232Y-89066635D01*
X122294232Y-89066633D01*
X122293542Y-89060072D01*
X122234527Y-88878444D01*
X122139040Y-88713056D01*
X122064606Y-88630388D01*
X122015675Y-88576045D01*
X122015674Y-88576044D01*
X122011253Y-88571134D01*
X121856752Y-88458882D01*
X121850724Y-88456198D01*
X121850722Y-88456197D01*
X121688319Y-88383891D01*
X121688318Y-88383891D01*
X121682288Y-88381206D01*
X121566362Y-88356565D01*
X121501944Y-88342872D01*
X121501939Y-88342872D01*
X121495487Y-88341500D01*
X121304513Y-88341500D01*
X121298061Y-88342872D01*
X121298056Y-88342872D01*
X121233638Y-88356565D01*
X121117712Y-88381206D01*
X121111682Y-88383891D01*
X121111681Y-88383891D01*
X120949278Y-88456197D01*
X120949276Y-88456198D01*
X120943248Y-88458882D01*
X120788747Y-88571134D01*
X120784326Y-88576044D01*
X120784325Y-88576045D01*
X120735395Y-88630388D01*
X120660960Y-88713056D01*
X120565473Y-88878444D01*
X120544525Y-88942916D01*
X120516598Y-89028866D01*
X120506458Y-89060072D01*
X120505768Y-89066635D01*
X120505768Y-89066636D01*
X120497709Y-89143310D01*
X120470695Y-89208967D01*
X120412474Y-89249596D01*
X120398603Y-89253384D01*
X120267712Y-89281206D01*
X120261682Y-89283891D01*
X120261681Y-89283891D01*
X120099278Y-89356197D01*
X120099276Y-89356198D01*
X120093248Y-89358882D01*
X120087907Y-89362762D01*
X120087906Y-89362763D01*
X120073746Y-89373051D01*
X119938747Y-89471134D01*
X119810960Y-89613056D01*
X119715473Y-89778444D01*
X119656458Y-89960072D01*
X119655768Y-89966633D01*
X119655768Y-89966635D01*
X119638471Y-90131206D01*
X119636496Y-90150000D01*
X118224501Y-90150000D01*
X118188319Y-90133891D01*
X118188318Y-90133891D01*
X118182288Y-90131206D01*
X118080617Y-90109595D01*
X118001944Y-90092872D01*
X118001939Y-90092872D01*
X117995487Y-90091500D01*
X117804513Y-90091500D01*
X117798061Y-90092872D01*
X117798056Y-90092872D01*
X117719383Y-90109595D01*
X117617712Y-90131206D01*
X117611682Y-90133891D01*
X117611681Y-90133891D01*
X117449278Y-90206197D01*
X117449276Y-90206198D01*
X117443248Y-90208882D01*
X117288747Y-90321134D01*
X117284326Y-90326044D01*
X117284325Y-90326045D01*
X117181803Y-90439908D01*
X117160960Y-90463056D01*
X117065473Y-90628444D01*
X117006458Y-90810072D01*
X117005768Y-90816633D01*
X117005768Y-90816635D01*
X117000490Y-90866857D01*
X116986496Y-91000000D01*
X112563504Y-91000000D01*
X112549510Y-90866857D01*
X112544232Y-90816635D01*
X112544232Y-90816633D01*
X112543542Y-90810072D01*
X112484527Y-90628444D01*
X112389040Y-90463056D01*
X112368198Y-90439908D01*
X112265675Y-90326045D01*
X112265674Y-90326044D01*
X112261253Y-90321134D01*
X112106752Y-90208882D01*
X112100724Y-90206198D01*
X112100722Y-90206197D01*
X111938319Y-90133891D01*
X111938318Y-90133891D01*
X111932288Y-90131206D01*
X111830617Y-90109595D01*
X111751944Y-90092872D01*
X111751939Y-90092872D01*
X111745487Y-90091500D01*
X111554513Y-90091500D01*
X111548061Y-90092872D01*
X111548056Y-90092872D01*
X111469383Y-90109595D01*
X111367712Y-90131206D01*
X111361682Y-90133891D01*
X111361681Y-90133891D01*
X111199278Y-90206197D01*
X111199276Y-90206198D01*
X111193248Y-90208882D01*
X111038747Y-90321134D01*
X111034326Y-90326044D01*
X111034325Y-90326045D01*
X110931803Y-90439908D01*
X110910960Y-90463056D01*
X110815473Y-90628444D01*
X110756458Y-90810072D01*
X110755768Y-90816633D01*
X110755768Y-90816635D01*
X110750490Y-90866857D01*
X110736496Y-91000000D01*
X99758500Y-91000000D01*
X99758500Y-87150000D01*
X104336496Y-87150000D01*
X104356458Y-87339928D01*
X104415473Y-87521556D01*
X104418776Y-87527278D01*
X104418777Y-87527279D01*
X104444947Y-87572607D01*
X104510960Y-87686944D01*
X104515378Y-87691851D01*
X104515379Y-87691852D01*
X104620092Y-87808148D01*
X104638747Y-87828866D01*
X104793248Y-87941118D01*
X104799276Y-87943802D01*
X104799278Y-87943803D01*
X104891200Y-87984729D01*
X104967712Y-88018794D01*
X105053101Y-88036944D01*
X105148056Y-88057128D01*
X105148061Y-88057128D01*
X105154513Y-88058500D01*
X105345487Y-88058500D01*
X105351939Y-88057128D01*
X105351944Y-88057128D01*
X105446899Y-88036944D01*
X105532288Y-88018794D01*
X105608800Y-87984729D01*
X105700722Y-87943803D01*
X105700724Y-87943802D01*
X105706752Y-87941118D01*
X105861253Y-87828866D01*
X105879908Y-87808148D01*
X105984621Y-87691852D01*
X105984622Y-87691851D01*
X105989040Y-87686944D01*
X106055053Y-87572607D01*
X106081223Y-87527279D01*
X106081224Y-87527278D01*
X106084527Y-87521556D01*
X106091531Y-87500000D01*
X113786496Y-87500000D01*
X113787186Y-87506565D01*
X113804483Y-87671134D01*
X113806458Y-87689928D01*
X113865473Y-87871556D01*
X113960960Y-88036944D01*
X113965378Y-88041851D01*
X113965379Y-88041852D01*
X114043884Y-88129041D01*
X114088747Y-88178866D01*
X114243248Y-88291118D01*
X114249276Y-88293802D01*
X114249278Y-88293803D01*
X114390245Y-88356565D01*
X114417712Y-88368794D01*
X114511113Y-88388647D01*
X114598056Y-88407128D01*
X114598061Y-88407128D01*
X114604513Y-88408500D01*
X114795487Y-88408500D01*
X114801939Y-88407128D01*
X114801944Y-88407128D01*
X114888887Y-88388647D01*
X114982288Y-88368794D01*
X115009755Y-88356565D01*
X115150722Y-88293803D01*
X115150724Y-88293802D01*
X115156752Y-88291118D01*
X115311253Y-88178866D01*
X115356117Y-88129039D01*
X115416562Y-88091801D01*
X115487546Y-88093153D01*
X115543385Y-88129039D01*
X115588250Y-88178866D01*
X115742751Y-88291118D01*
X115748779Y-88293802D01*
X115748781Y-88293803D01*
X115889748Y-88356565D01*
X115917215Y-88368794D01*
X116010616Y-88388647D01*
X116097559Y-88407128D01*
X116097564Y-88407128D01*
X116104016Y-88408500D01*
X116294990Y-88408500D01*
X116301442Y-88407128D01*
X116301447Y-88407128D01*
X116388390Y-88388647D01*
X116481791Y-88368794D01*
X116509258Y-88356565D01*
X116524003Y-88350000D01*
X118036496Y-88350000D01*
X118037186Y-88356565D01*
X118046880Y-88448794D01*
X118056458Y-88539928D01*
X118115473Y-88721556D01*
X118210960Y-88886944D01*
X118215378Y-88891851D01*
X118215379Y-88891852D01*
X118324366Y-89012894D01*
X118338747Y-89028866D01*
X118493248Y-89141118D01*
X118499276Y-89143802D01*
X118499278Y-89143803D01*
X118651394Y-89211529D01*
X118667712Y-89218794D01*
X118742064Y-89234598D01*
X118848056Y-89257128D01*
X118848061Y-89257128D01*
X118854513Y-89258500D01*
X119045487Y-89258500D01*
X119051939Y-89257128D01*
X119051944Y-89257128D01*
X119157936Y-89234598D01*
X119232288Y-89218794D01*
X119248606Y-89211529D01*
X119400722Y-89143803D01*
X119400724Y-89143802D01*
X119406752Y-89141118D01*
X119561253Y-89028866D01*
X119575634Y-89012894D01*
X119684621Y-88891852D01*
X119684622Y-88891851D01*
X119689040Y-88886944D01*
X119784527Y-88721556D01*
X119843542Y-88539928D01*
X119853121Y-88448794D01*
X119862814Y-88356565D01*
X119863504Y-88350000D01*
X119851149Y-88232446D01*
X119844232Y-88166635D01*
X119844232Y-88166633D01*
X119843542Y-88160072D01*
X119784527Y-87978444D01*
X119689040Y-87813056D01*
X119561253Y-87671134D01*
X119425643Y-87572607D01*
X119412094Y-87562763D01*
X119412093Y-87562762D01*
X119406752Y-87558882D01*
X119400724Y-87556198D01*
X119400722Y-87556197D01*
X119238319Y-87483891D01*
X119238318Y-87483891D01*
X119232288Y-87481206D01*
X119138888Y-87461353D01*
X119051944Y-87442872D01*
X119051939Y-87442872D01*
X119045487Y-87441500D01*
X118854513Y-87441500D01*
X118848061Y-87442872D01*
X118848056Y-87442872D01*
X118761112Y-87461353D01*
X118667712Y-87481206D01*
X118661682Y-87483891D01*
X118661681Y-87483891D01*
X118499278Y-87556197D01*
X118499276Y-87556198D01*
X118493248Y-87558882D01*
X118487907Y-87562762D01*
X118487906Y-87562763D01*
X118474357Y-87572607D01*
X118338747Y-87671134D01*
X118210960Y-87813056D01*
X118115473Y-87978444D01*
X118056458Y-88160072D01*
X118055768Y-88166633D01*
X118055768Y-88166635D01*
X118048851Y-88232446D01*
X118036496Y-88350000D01*
X116524003Y-88350000D01*
X116650225Y-88293803D01*
X116650227Y-88293802D01*
X116656255Y-88291118D01*
X116810756Y-88178866D01*
X116855619Y-88129041D01*
X116934124Y-88041852D01*
X116934125Y-88041851D01*
X116938543Y-88036944D01*
X117034030Y-87871556D01*
X117093045Y-87689928D01*
X117095021Y-87671134D01*
X117112317Y-87506565D01*
X117113007Y-87500000D01*
X117111032Y-87481206D01*
X117093735Y-87316635D01*
X117093735Y-87316633D01*
X117093045Y-87310072D01*
X117034030Y-87128444D01*
X116938543Y-86963056D01*
X116930204Y-86953794D01*
X116815178Y-86826045D01*
X116815174Y-86826041D01*
X116810756Y-86821134D01*
X116656255Y-86708882D01*
X116650227Y-86706198D01*
X116650225Y-86706197D01*
X116487822Y-86633891D01*
X116487821Y-86633891D01*
X116481791Y-86631206D01*
X116388390Y-86611353D01*
X116301447Y-86592872D01*
X116301442Y-86592872D01*
X116294990Y-86591500D01*
X116104016Y-86591500D01*
X116097564Y-86592872D01*
X116097559Y-86592872D01*
X116010616Y-86611353D01*
X115917215Y-86631206D01*
X115911185Y-86633891D01*
X115911184Y-86633891D01*
X115748781Y-86706197D01*
X115748779Y-86706198D01*
X115742751Y-86708882D01*
X115588250Y-86821134D01*
X115543387Y-86870960D01*
X115482943Y-86908199D01*
X115411959Y-86906848D01*
X115356116Y-86870960D01*
X115311253Y-86821134D01*
X115156752Y-86708882D01*
X115150724Y-86706198D01*
X115150722Y-86706197D01*
X114988319Y-86633891D01*
X114988318Y-86633891D01*
X114982288Y-86631206D01*
X114888887Y-86611353D01*
X114801944Y-86592872D01*
X114801939Y-86592872D01*
X114795487Y-86591500D01*
X114604513Y-86591500D01*
X114598061Y-86592872D01*
X114598056Y-86592872D01*
X114511113Y-86611353D01*
X114417712Y-86631206D01*
X114411682Y-86633891D01*
X114411681Y-86633891D01*
X114249278Y-86706197D01*
X114249276Y-86706198D01*
X114243248Y-86708882D01*
X114088747Y-86821134D01*
X114084329Y-86826041D01*
X114084325Y-86826045D01*
X113969300Y-86953794D01*
X113960960Y-86963056D01*
X113865473Y-87128444D01*
X113806458Y-87310072D01*
X113805768Y-87316633D01*
X113805768Y-87316635D01*
X113788471Y-87481206D01*
X113786496Y-87500000D01*
X106091531Y-87500000D01*
X106143542Y-87339928D01*
X106163504Y-87150000D01*
X106148046Y-87002926D01*
X106144232Y-86966635D01*
X106144232Y-86966633D01*
X106143542Y-86960072D01*
X106084527Y-86778444D01*
X105989040Y-86613056D01*
X105940525Y-86559174D01*
X105865675Y-86476045D01*
X105865674Y-86476044D01*
X105861253Y-86471134D01*
X105706752Y-86358882D01*
X105700724Y-86356198D01*
X105700722Y-86356197D01*
X105538319Y-86283891D01*
X105538318Y-86283891D01*
X105532288Y-86281206D01*
X105432640Y-86260025D01*
X105351944Y-86242872D01*
X105351939Y-86242872D01*
X105345487Y-86241500D01*
X105154513Y-86241500D01*
X105148061Y-86242872D01*
X105148056Y-86242872D01*
X105067360Y-86260025D01*
X104967712Y-86281206D01*
X104961682Y-86283891D01*
X104961681Y-86283891D01*
X104799278Y-86356197D01*
X104799276Y-86356198D01*
X104793248Y-86358882D01*
X104638747Y-86471134D01*
X104634326Y-86476044D01*
X104634325Y-86476045D01*
X104559476Y-86559174D01*
X104510960Y-86613056D01*
X104415473Y-86778444D01*
X104356458Y-86960072D01*
X104355768Y-86966633D01*
X104355768Y-86966635D01*
X104351954Y-87002926D01*
X104336496Y-87150000D01*
X99758500Y-87150000D01*
X99758500Y-84000000D01*
X100750000Y-84000000D01*
X101124000Y-84000000D01*
X101192121Y-84020002D01*
X101238614Y-84073658D01*
X101250000Y-84126000D01*
X101250000Y-85500000D01*
X103750000Y-85500000D01*
X103750000Y-85300000D01*
X120886496Y-85300000D01*
X120887186Y-85306565D01*
X120905613Y-85481885D01*
X120906458Y-85489928D01*
X120965473Y-85671556D01*
X121060960Y-85836944D01*
X121188747Y-85978866D01*
X121343248Y-86091118D01*
X121349276Y-86093802D01*
X121349278Y-86093803D01*
X121397856Y-86115431D01*
X121517712Y-86168794D01*
X121611112Y-86188647D01*
X121698056Y-86207128D01*
X121698061Y-86207128D01*
X121704513Y-86208500D01*
X121895487Y-86208500D01*
X121901939Y-86207128D01*
X121901944Y-86207128D01*
X121988888Y-86188647D01*
X122082288Y-86168794D01*
X122247382Y-86095290D01*
X122250717Y-86093805D01*
X122256752Y-86091118D01*
X122260210Y-86088606D01*
X122328363Y-86072071D01*
X122395456Y-86095290D01*
X122417608Y-86115431D01*
X122528002Y-86242872D01*
X122546250Y-86263938D01*
X122718126Y-86406632D01*
X122791955Y-86449774D01*
X122840679Y-86501412D01*
X122853750Y-86571195D01*
X122827019Y-86636967D01*
X122786562Y-86670327D01*
X122778457Y-86674546D01*
X122769738Y-86680036D01*
X122599433Y-86807905D01*
X122591726Y-86814748D01*
X122444590Y-86968717D01*
X122438104Y-86976727D01*
X122318098Y-87152649D01*
X122313000Y-87161623D01*
X122223338Y-87354783D01*
X122219775Y-87364470D01*
X122164389Y-87564183D01*
X122165912Y-87572607D01*
X122178292Y-87576000D01*
X124818344Y-87576000D01*
X124831875Y-87572027D01*
X124833180Y-87562947D01*
X124791214Y-87395875D01*
X124787894Y-87386124D01*
X124702972Y-87190814D01*
X124698105Y-87181739D01*
X124582426Y-87002926D01*
X124576136Y-86994757D01*
X124432806Y-86837240D01*
X124425273Y-86830215D01*
X124258139Y-86698222D01*
X124249556Y-86692520D01*
X124212602Y-86672120D01*
X124162631Y-86621687D01*
X124147859Y-86552245D01*
X124172975Y-86485839D01*
X124200327Y-86459232D01*
X124223797Y-86442491D01*
X124379860Y-86331173D01*
X124538096Y-86173489D01*
X124595355Y-86093805D01*
X124665435Y-85996277D01*
X124668453Y-85992077D01*
X124674983Y-85978866D01*
X124765136Y-85796453D01*
X124765137Y-85796451D01*
X124767430Y-85791811D01*
X124832370Y-85578069D01*
X124861529Y-85356590D01*
X124863156Y-85290000D01*
X124844852Y-85067361D01*
X124790431Y-84850702D01*
X124701354Y-84645840D01*
X124615263Y-84512763D01*
X124582822Y-84462617D01*
X124582820Y-84462614D01*
X124580014Y-84458277D01*
X124576532Y-84454450D01*
X124432798Y-84296488D01*
X124401746Y-84232642D01*
X124410141Y-84162143D01*
X124455317Y-84107375D01*
X124481761Y-84093706D01*
X124588297Y-84053767D01*
X124596705Y-84050615D01*
X124713261Y-83963261D01*
X124800615Y-83846705D01*
X124851745Y-83710316D01*
X124858500Y-83648134D01*
X124858500Y-81851866D01*
X124851745Y-81789684D01*
X124800615Y-81653295D01*
X124713261Y-81536739D01*
X124596705Y-81449385D01*
X124460316Y-81398255D01*
X124398134Y-81391500D01*
X122601866Y-81391500D01*
X122539684Y-81398255D01*
X122403295Y-81449385D01*
X122286739Y-81536739D01*
X122199385Y-81653295D01*
X122148255Y-81789684D01*
X122141500Y-81851866D01*
X122141500Y-83648134D01*
X122148255Y-83710316D01*
X122199385Y-83846705D01*
X122286739Y-83963261D01*
X122403295Y-84050615D01*
X122411704Y-84053767D01*
X122411705Y-84053768D01*
X122520451Y-84094535D01*
X122577216Y-84137176D01*
X122601916Y-84203738D01*
X122586709Y-84273087D01*
X122567316Y-84299568D01*
X122440629Y-84432138D01*
X122416589Y-84467380D01*
X122361679Y-84512381D01*
X122291154Y-84520552D01*
X122257047Y-84508220D01*
X122256752Y-84508882D01*
X122088319Y-84433891D01*
X122088318Y-84433891D01*
X122082288Y-84431206D01*
X121988887Y-84411353D01*
X121901944Y-84392872D01*
X121901939Y-84392872D01*
X121895487Y-84391500D01*
X121704513Y-84391500D01*
X121698061Y-84392872D01*
X121698056Y-84392872D01*
X121611113Y-84411353D01*
X121517712Y-84431206D01*
X121511682Y-84433891D01*
X121511681Y-84433891D01*
X121349278Y-84506197D01*
X121349276Y-84506198D01*
X121343248Y-84508882D01*
X121337907Y-84512762D01*
X121337906Y-84512763D01*
X121287843Y-84549136D01*
X121188747Y-84621134D01*
X121184326Y-84626044D01*
X121184325Y-84626045D01*
X121170417Y-84641492D01*
X121060960Y-84763056D01*
X120965473Y-84928444D01*
X120906458Y-85110072D01*
X120886496Y-85300000D01*
X103750000Y-85300000D01*
X103750000Y-84126000D01*
X103770002Y-84057879D01*
X103823658Y-84011386D01*
X103876000Y-84000000D01*
X104250000Y-84000000D01*
X104250000Y-83626000D01*
X104270002Y-83557879D01*
X104323658Y-83511386D01*
X104376000Y-83500000D01*
X106500000Y-83500000D01*
X106500000Y-82376000D01*
X106520002Y-82307879D01*
X106573658Y-82261386D01*
X106626000Y-82250000D01*
X108250000Y-82250000D01*
X108250000Y-82242206D01*
X108265358Y-82224483D01*
X108278189Y-82200986D01*
X108340502Y-82166963D01*
X108411317Y-82172030D01*
X108468152Y-82214578D01*
X108476398Y-82227081D01*
X108510960Y-82286944D01*
X108638747Y-82428866D01*
X108793248Y-82541118D01*
X108799276Y-82543802D01*
X108799278Y-82543803D01*
X108961681Y-82616109D01*
X108967712Y-82618794D01*
X109061112Y-82638647D01*
X109148056Y-82657128D01*
X109148061Y-82657128D01*
X109154513Y-82658500D01*
X109345487Y-82658500D01*
X109351939Y-82657128D01*
X109351944Y-82657128D01*
X109438888Y-82638647D01*
X109532288Y-82618794D01*
X109538319Y-82616109D01*
X109700722Y-82543803D01*
X109700724Y-82543802D01*
X109706752Y-82541118D01*
X109861253Y-82428866D01*
X109989040Y-82286944D01*
X110084527Y-82121556D01*
X110135422Y-81964917D01*
X110175496Y-81906313D01*
X110229059Y-81880608D01*
X110275830Y-81870667D01*
X110275833Y-81870666D01*
X110282288Y-81869294D01*
X110288319Y-81866609D01*
X110450722Y-81794303D01*
X110450724Y-81794302D01*
X110456752Y-81791618D01*
X110611253Y-81679366D01*
X110627157Y-81661703D01*
X110734621Y-81542352D01*
X110734622Y-81542351D01*
X110739040Y-81537444D01*
X110797314Y-81436510D01*
X110831223Y-81377779D01*
X110831224Y-81377778D01*
X110834527Y-81372056D01*
X110893542Y-81190428D01*
X110895023Y-81176342D01*
X110912814Y-81007065D01*
X110913504Y-81000500D01*
X110893542Y-80810572D01*
X110834527Y-80628944D01*
X110739040Y-80463556D01*
X110611253Y-80321634D01*
X110512157Y-80249636D01*
X110462094Y-80213263D01*
X110462093Y-80213262D01*
X110456752Y-80209382D01*
X110450724Y-80206698D01*
X110450722Y-80206697D01*
X110323378Y-80150000D01*
X121836496Y-80150000D01*
X121837186Y-80156565D01*
X121847309Y-80252876D01*
X121856458Y-80339928D01*
X121915473Y-80521556D01*
X122010960Y-80686944D01*
X122138747Y-80828866D01*
X122293248Y-80941118D01*
X122299276Y-80943802D01*
X122299278Y-80943803D01*
X122441368Y-81007065D01*
X122467712Y-81018794D01*
X122561112Y-81038647D01*
X122648056Y-81057128D01*
X122648061Y-81057128D01*
X122654513Y-81058500D01*
X122845487Y-81058500D01*
X122851939Y-81057128D01*
X122851944Y-81057128D01*
X122938888Y-81038647D01*
X123032288Y-81018794D01*
X123058632Y-81007065D01*
X123200722Y-80943803D01*
X123200724Y-80943802D01*
X123206752Y-80941118D01*
X123361253Y-80828866D01*
X123489040Y-80686944D01*
X123584527Y-80521556D01*
X123643542Y-80339928D01*
X123645779Y-80318642D01*
X123672790Y-80252984D01*
X123731011Y-80212353D01*
X123745631Y-80209179D01*
X123745487Y-80208500D01*
X123932288Y-80168794D01*
X123959755Y-80156565D01*
X124100722Y-80093803D01*
X124100724Y-80093802D01*
X124106752Y-80091118D01*
X124261253Y-79978866D01*
X124389040Y-79836944D01*
X124484527Y-79671556D01*
X124543542Y-79489928D01*
X124545518Y-79471134D01*
X124562814Y-79306565D01*
X124563504Y-79300000D01*
X124561529Y-79281206D01*
X124544232Y-79116635D01*
X124544232Y-79116633D01*
X124543542Y-79110072D01*
X124484527Y-78928444D01*
X124389040Y-78763056D01*
X124261253Y-78621134D01*
X124106752Y-78508882D01*
X124100724Y-78506198D01*
X124100722Y-78506197D01*
X123938319Y-78433891D01*
X123938318Y-78433891D01*
X123932288Y-78431206D01*
X123838888Y-78411353D01*
X123751944Y-78392872D01*
X123751939Y-78392872D01*
X123745487Y-78391500D01*
X123554513Y-78391500D01*
X123548061Y-78392872D01*
X123548056Y-78392872D01*
X123461112Y-78411353D01*
X123367712Y-78431206D01*
X123361682Y-78433891D01*
X123361681Y-78433891D01*
X123199278Y-78506197D01*
X123199276Y-78506198D01*
X123193248Y-78508882D01*
X123038747Y-78621134D01*
X122910960Y-78763056D01*
X122815473Y-78928444D01*
X122756458Y-79110072D01*
X122755768Y-79116635D01*
X122755768Y-79116637D01*
X122754221Y-79131358D01*
X122727210Y-79197016D01*
X122668989Y-79237647D01*
X122654369Y-79240821D01*
X122654513Y-79241500D01*
X122467712Y-79281206D01*
X122461682Y-79283891D01*
X122461681Y-79283891D01*
X122299278Y-79356197D01*
X122299276Y-79356198D01*
X122293248Y-79358882D01*
X122138747Y-79471134D01*
X122010960Y-79613056D01*
X121915473Y-79778444D01*
X121856458Y-79960072D01*
X121855768Y-79966633D01*
X121855768Y-79966635D01*
X121843093Y-80087237D01*
X121836496Y-80150000D01*
X110323378Y-80150000D01*
X110288319Y-80134391D01*
X110288318Y-80134391D01*
X110282288Y-80131706D01*
X110188887Y-80111853D01*
X110101944Y-80093372D01*
X110101939Y-80093372D01*
X110095487Y-80092000D01*
X109904513Y-80092000D01*
X109898061Y-80093372D01*
X109898056Y-80093372D01*
X109811113Y-80111853D01*
X109717712Y-80131706D01*
X109711682Y-80134391D01*
X109711681Y-80134391D01*
X109549278Y-80206697D01*
X109549276Y-80206698D01*
X109543248Y-80209382D01*
X109537907Y-80213262D01*
X109537906Y-80213263D01*
X109487843Y-80249636D01*
X109388747Y-80321634D01*
X109260960Y-80463556D01*
X109165473Y-80628944D01*
X109148486Y-80681226D01*
X109114578Y-80785582D01*
X109074504Y-80844187D01*
X109020941Y-80869892D01*
X108974170Y-80879833D01*
X108974167Y-80879834D01*
X108967712Y-80881206D01*
X108961682Y-80883891D01*
X108961681Y-80883891D01*
X108799278Y-80956197D01*
X108799276Y-80956198D01*
X108793248Y-80958882D01*
X108638747Y-81071134D01*
X108634326Y-81076044D01*
X108634325Y-81076045D01*
X108525682Y-81196706D01*
X108510960Y-81213056D01*
X108474378Y-81276418D01*
X108422996Y-81325411D01*
X108353282Y-81338847D01*
X108287371Y-81312461D01*
X108250000Y-81257246D01*
X108250000Y-81250000D01*
X106626000Y-81250000D01*
X106557879Y-81229998D01*
X106511386Y-81176342D01*
X106500000Y-81124000D01*
X106500000Y-80250000D01*
X104376000Y-80250000D01*
X104307879Y-80229998D01*
X104261386Y-80176342D01*
X104250000Y-80124000D01*
X104250000Y-79500000D01*
X103876000Y-79500000D01*
X103807879Y-79479998D01*
X103761386Y-79426342D01*
X103750000Y-79374000D01*
X103750000Y-79000000D01*
X115286496Y-79000000D01*
X115306458Y-79189928D01*
X115365473Y-79371556D01*
X115460960Y-79536944D01*
X115465378Y-79541851D01*
X115465379Y-79541852D01*
X115557176Y-79643803D01*
X115588747Y-79678866D01*
X115743248Y-79791118D01*
X115749276Y-79793802D01*
X115749278Y-79793803D01*
X115833332Y-79831226D01*
X115917712Y-79868794D01*
X116011113Y-79888647D01*
X116098056Y-79907128D01*
X116098061Y-79907128D01*
X116104513Y-79908500D01*
X116295487Y-79908500D01*
X116301939Y-79907128D01*
X116301944Y-79907128D01*
X116388887Y-79888647D01*
X116482288Y-79868794D01*
X116566668Y-79831226D01*
X116650722Y-79793803D01*
X116650724Y-79793802D01*
X116656752Y-79791118D01*
X116811253Y-79678866D01*
X116842824Y-79643803D01*
X116934621Y-79541852D01*
X116934622Y-79541851D01*
X116939040Y-79536944D01*
X117034527Y-79371556D01*
X117093542Y-79189928D01*
X117113504Y-79000000D01*
X117097739Y-78850000D01*
X118936496Y-78850000D01*
X118937186Y-78856565D01*
X118942645Y-78908500D01*
X118956458Y-79039928D01*
X119015473Y-79221556D01*
X119110960Y-79386944D01*
X119115378Y-79391851D01*
X119115379Y-79391852D01*
X119216785Y-79504475D01*
X119238747Y-79528866D01*
X119393248Y-79641118D01*
X119399276Y-79643802D01*
X119399278Y-79643803D01*
X119486753Y-79682749D01*
X119567712Y-79718794D01*
X119661113Y-79738647D01*
X119748056Y-79757128D01*
X119748061Y-79757128D01*
X119754513Y-79758500D01*
X119945487Y-79758500D01*
X119951939Y-79757128D01*
X119951944Y-79757128D01*
X120038887Y-79738647D01*
X120132288Y-79718794D01*
X120213247Y-79682749D01*
X120300722Y-79643803D01*
X120300724Y-79643802D01*
X120306752Y-79641118D01*
X120461253Y-79528866D01*
X120483215Y-79504475D01*
X120584621Y-79391852D01*
X120584622Y-79391851D01*
X120589040Y-79386944D01*
X120684527Y-79221556D01*
X120743542Y-79039928D01*
X120757356Y-78908500D01*
X120762814Y-78856565D01*
X120763504Y-78850000D01*
X120753850Y-78758148D01*
X120744232Y-78666635D01*
X120744232Y-78666633D01*
X120743542Y-78660072D01*
X120684527Y-78478444D01*
X120589040Y-78313056D01*
X120495242Y-78208882D01*
X120465675Y-78176045D01*
X120465674Y-78176044D01*
X120461253Y-78171134D01*
X120306752Y-78058882D01*
X120300724Y-78056198D01*
X120300722Y-78056197D01*
X120138319Y-77983891D01*
X120138318Y-77983891D01*
X120132288Y-77981206D01*
X120038887Y-77961353D01*
X119951944Y-77942872D01*
X119951939Y-77942872D01*
X119945487Y-77941500D01*
X119754513Y-77941500D01*
X119748061Y-77942872D01*
X119748056Y-77942872D01*
X119661113Y-77961353D01*
X119567712Y-77981206D01*
X119561682Y-77983891D01*
X119561681Y-77983891D01*
X119399278Y-78056197D01*
X119399276Y-78056198D01*
X119393248Y-78058882D01*
X119238747Y-78171134D01*
X119234326Y-78176044D01*
X119234325Y-78176045D01*
X119204759Y-78208882D01*
X119110960Y-78313056D01*
X119015473Y-78478444D01*
X118956458Y-78660072D01*
X118955768Y-78666633D01*
X118955768Y-78666635D01*
X118946150Y-78758148D01*
X118936496Y-78850000D01*
X117097739Y-78850000D01*
X117093542Y-78810072D01*
X117034527Y-78628444D01*
X116939040Y-78463056D01*
X116811253Y-78321134D01*
X116656752Y-78208882D01*
X116650724Y-78206198D01*
X116650722Y-78206197D01*
X116488319Y-78133891D01*
X116488318Y-78133891D01*
X116482288Y-78131206D01*
X116388888Y-78111353D01*
X116301944Y-78092872D01*
X116301939Y-78092872D01*
X116295487Y-78091500D01*
X116104513Y-78091500D01*
X116098061Y-78092872D01*
X116098056Y-78092872D01*
X116011112Y-78111353D01*
X115917712Y-78131206D01*
X115911682Y-78133891D01*
X115911681Y-78133891D01*
X115749278Y-78206197D01*
X115749276Y-78206198D01*
X115743248Y-78208882D01*
X115588747Y-78321134D01*
X115460960Y-78463056D01*
X115365473Y-78628444D01*
X115306458Y-78810072D01*
X115286496Y-79000000D01*
X103750000Y-79000000D01*
X103750000Y-78000000D01*
X104936496Y-78000000D01*
X104937186Y-78006565D01*
X104954483Y-78171134D01*
X104956458Y-78189928D01*
X105015473Y-78371556D01*
X105110960Y-78536944D01*
X105238747Y-78678866D01*
X105393248Y-78791118D01*
X105399276Y-78793802D01*
X105399278Y-78793803D01*
X105540245Y-78856565D01*
X105567712Y-78868794D01*
X105661112Y-78888647D01*
X105748056Y-78907128D01*
X105748061Y-78907128D01*
X105754513Y-78908500D01*
X105945487Y-78908500D01*
X105951939Y-78907128D01*
X105951944Y-78907128D01*
X106038888Y-78888647D01*
X106132288Y-78868794D01*
X106159755Y-78856565D01*
X106300722Y-78793803D01*
X106300724Y-78793802D01*
X106306752Y-78791118D01*
X106461253Y-78678866D01*
X106589040Y-78536944D01*
X106684527Y-78371556D01*
X106743542Y-78189928D01*
X106745518Y-78171134D01*
X106762814Y-78006565D01*
X106763504Y-78000000D01*
X106761529Y-77981206D01*
X106744232Y-77816635D01*
X106744232Y-77816633D01*
X106743542Y-77810072D01*
X106684527Y-77628444D01*
X106589040Y-77463056D01*
X106461253Y-77321134D01*
X106306752Y-77208882D01*
X106300724Y-77206198D01*
X106300722Y-77206197D01*
X106138319Y-77133891D01*
X106138318Y-77133891D01*
X106132288Y-77131206D01*
X106038888Y-77111353D01*
X105951944Y-77092872D01*
X105951939Y-77092872D01*
X105945487Y-77091500D01*
X105754513Y-77091500D01*
X105748061Y-77092872D01*
X105748056Y-77092872D01*
X105661112Y-77111353D01*
X105567712Y-77131206D01*
X105561682Y-77133891D01*
X105561681Y-77133891D01*
X105399278Y-77206197D01*
X105399276Y-77206198D01*
X105393248Y-77208882D01*
X105238747Y-77321134D01*
X105110960Y-77463056D01*
X105015473Y-77628444D01*
X104956458Y-77810072D01*
X104955768Y-77816633D01*
X104955768Y-77816635D01*
X104938471Y-77981206D01*
X104936496Y-78000000D01*
X103750000Y-78000000D01*
X101250000Y-78000000D01*
X101250000Y-79374000D01*
X101229998Y-79442121D01*
X101176342Y-79488614D01*
X101124000Y-79500000D01*
X100750000Y-79500000D01*
X100750000Y-84000000D01*
X99758500Y-84000000D01*
X99758500Y-75650000D01*
X104286496Y-75650000D01*
X104306458Y-75839928D01*
X104365473Y-76021556D01*
X104460960Y-76186944D01*
X104588747Y-76328866D01*
X104743248Y-76441118D01*
X104749276Y-76443802D01*
X104749278Y-76443803D01*
X104911681Y-76516109D01*
X104917712Y-76518794D01*
X105011113Y-76538647D01*
X105098056Y-76557128D01*
X105098061Y-76557128D01*
X105104513Y-76558500D01*
X105295487Y-76558500D01*
X105301939Y-76557128D01*
X105301944Y-76557128D01*
X105388887Y-76538647D01*
X105482288Y-76518794D01*
X105488319Y-76516109D01*
X105650722Y-76443803D01*
X105650724Y-76443802D01*
X105656752Y-76441118D01*
X105811253Y-76328866D01*
X105939040Y-76186944D01*
X106034527Y-76021556D01*
X106093542Y-75839928D01*
X106113504Y-75650000D01*
X106093542Y-75460072D01*
X106034527Y-75278444D01*
X105939040Y-75113056D01*
X105811253Y-74971134D01*
X105656752Y-74858882D01*
X105650724Y-74856198D01*
X105650722Y-74856197D01*
X105488319Y-74783891D01*
X105488318Y-74783891D01*
X105482288Y-74781206D01*
X105388887Y-74761353D01*
X105301944Y-74742872D01*
X105301939Y-74742872D01*
X105295487Y-74741500D01*
X105104513Y-74741500D01*
X105098061Y-74742872D01*
X105098056Y-74742872D01*
X105011113Y-74761353D01*
X104917712Y-74781206D01*
X104911682Y-74783891D01*
X104911681Y-74783891D01*
X104749278Y-74856197D01*
X104749276Y-74856198D01*
X104743248Y-74858882D01*
X104588747Y-74971134D01*
X104460960Y-75113056D01*
X104365473Y-75278444D01*
X104306458Y-75460072D01*
X104286496Y-75650000D01*
X99758500Y-75650000D01*
X99758500Y-74600000D01*
X107786496Y-74600000D01*
X107806458Y-74789928D01*
X107865473Y-74971556D01*
X107960960Y-75136944D01*
X108088747Y-75278866D01*
X108243248Y-75391118D01*
X108249276Y-75393802D01*
X108249278Y-75393803D01*
X108384021Y-75453794D01*
X108417712Y-75468794D01*
X108511112Y-75488647D01*
X108598056Y-75507128D01*
X108598061Y-75507128D01*
X108604513Y-75508500D01*
X108795487Y-75508500D01*
X108801939Y-75507128D01*
X108801944Y-75507128D01*
X108888888Y-75488647D01*
X108982288Y-75468794D01*
X109015979Y-75453794D01*
X109150722Y-75393803D01*
X109150724Y-75393802D01*
X109156752Y-75391118D01*
X109311253Y-75278866D01*
X109439040Y-75136944D01*
X109534527Y-74971556D01*
X109593542Y-74789928D01*
X109613504Y-74600000D01*
X109593542Y-74410072D01*
X109534527Y-74228444D01*
X109439040Y-74063056D01*
X109311253Y-73921134D01*
X109156752Y-73808882D01*
X109150724Y-73806198D01*
X109150722Y-73806197D01*
X108988319Y-73733891D01*
X108988318Y-73733891D01*
X108982288Y-73731206D01*
X108888888Y-73711353D01*
X108801944Y-73692872D01*
X108801939Y-73692872D01*
X108795487Y-73691500D01*
X108604513Y-73691500D01*
X108598061Y-73692872D01*
X108598056Y-73692872D01*
X108511112Y-73711353D01*
X108417712Y-73731206D01*
X108411682Y-73733891D01*
X108411681Y-73733891D01*
X108249278Y-73806197D01*
X108249276Y-73806198D01*
X108243248Y-73808882D01*
X108088747Y-73921134D01*
X107960960Y-74063056D01*
X107865473Y-74228444D01*
X107806458Y-74410072D01*
X107786496Y-74600000D01*
X99758500Y-74600000D01*
X99758500Y-72267016D01*
X109845098Y-72267016D01*
X109858374Y-72469574D01*
X109859795Y-72475170D01*
X109859796Y-72475175D01*
X109880069Y-72554997D01*
X109908342Y-72666321D01*
X109910759Y-72671564D01*
X109947960Y-72752260D01*
X109993327Y-72850668D01*
X110110483Y-73016441D01*
X110255888Y-73158087D01*
X110424670Y-73270864D01*
X110429973Y-73273142D01*
X110429976Y-73273144D01*
X110518657Y-73311244D01*
X110611178Y-73350994D01*
X110684194Y-73367516D01*
X110803529Y-73394519D01*
X110803534Y-73394520D01*
X110809166Y-73395794D01*
X110814937Y-73396021D01*
X110814939Y-73396021D01*
X110874706Y-73398369D01*
X111012003Y-73403764D01*
X111112449Y-73389200D01*
X111207181Y-73375465D01*
X111207186Y-73375464D01*
X111212895Y-73374636D01*
X111218359Y-73372781D01*
X111218364Y-73372780D01*
X111399643Y-73311244D01*
X111399648Y-73311242D01*
X111405115Y-73309386D01*
X111582226Y-73210199D01*
X111644884Y-73158087D01*
X111733863Y-73084083D01*
X111738295Y-73080397D01*
X111868097Y-72924328D01*
X111967284Y-72747217D01*
X111969140Y-72741750D01*
X111969142Y-72741745D01*
X112030678Y-72560466D01*
X112030679Y-72560461D01*
X112032534Y-72554997D01*
X112033362Y-72549288D01*
X112033363Y-72549283D01*
X112061129Y-72357779D01*
X112061662Y-72354105D01*
X112063182Y-72296052D01*
X112044608Y-72093911D01*
X112038980Y-72073955D01*
X111991075Y-71904098D01*
X111991074Y-71904096D01*
X111989507Y-71898539D01*
X111978928Y-71877085D01*
X111902281Y-71721661D01*
X111899726Y-71716480D01*
X111811589Y-71598450D01*
X111786857Y-71531900D01*
X111802031Y-71462544D01*
X111852293Y-71412402D01*
X111886348Y-71399815D01*
X112032288Y-71368794D01*
X112038319Y-71366109D01*
X112200722Y-71293803D01*
X112200724Y-71293802D01*
X112206752Y-71291118D01*
X112361253Y-71178866D01*
X112373478Y-71165289D01*
X112484621Y-71041852D01*
X112484622Y-71041851D01*
X112489040Y-71036944D01*
X112584527Y-70871556D01*
X112641641Y-70695777D01*
X112681715Y-70637172D01*
X112747111Y-70609535D01*
X112817068Y-70621642D01*
X112869374Y-70669648D01*
X112884720Y-70708515D01*
X112885746Y-70713343D01*
X112886436Y-70719906D01*
X112888476Y-70726183D01*
X112888476Y-70726185D01*
X112920212Y-70823858D01*
X112945451Y-70901534D01*
X113040938Y-71066922D01*
X113045356Y-71071829D01*
X113045357Y-71071830D01*
X113164178Y-71203794D01*
X113168725Y-71208844D01*
X113267821Y-71280842D01*
X113285661Y-71293803D01*
X113323226Y-71321096D01*
X113329254Y-71323780D01*
X113329256Y-71323781D01*
X113490810Y-71395709D01*
X113497690Y-71398772D01*
X113584163Y-71417153D01*
X113598561Y-71420213D01*
X113661035Y-71453942D01*
X113695356Y-71516091D01*
X113690628Y-71586930D01*
X113671314Y-71621466D01*
X113615772Y-71691921D01*
X113613083Y-71697032D01*
X113613081Y-71697035D01*
X113600125Y-71721661D01*
X113521255Y-71871567D01*
X113461059Y-72065430D01*
X113437200Y-72267016D01*
X113450476Y-72469574D01*
X113451897Y-72475170D01*
X113451898Y-72475175D01*
X113472171Y-72554997D01*
X113500444Y-72666321D01*
X113502861Y-72671564D01*
X113540062Y-72752260D01*
X113585429Y-72850668D01*
X113702585Y-73016441D01*
X113847990Y-73158087D01*
X114016772Y-73270864D01*
X114022075Y-73273142D01*
X114022078Y-73273144D01*
X114110759Y-73311244D01*
X114203280Y-73350994D01*
X114276296Y-73367516D01*
X114395631Y-73394519D01*
X114395636Y-73394520D01*
X114401268Y-73395794D01*
X114407039Y-73396021D01*
X114407041Y-73396021D01*
X114466808Y-73398369D01*
X114604105Y-73403764D01*
X114704551Y-73389200D01*
X114799283Y-73375465D01*
X114799288Y-73375464D01*
X114804997Y-73374636D01*
X114810461Y-73372781D01*
X114810466Y-73372780D01*
X114991745Y-73311244D01*
X114991750Y-73311242D01*
X114997217Y-73309386D01*
X115174328Y-73210199D01*
X115236986Y-73158087D01*
X115325965Y-73084083D01*
X115330397Y-73080397D01*
X115460199Y-72924328D01*
X115559386Y-72747217D01*
X115561242Y-72741750D01*
X115561244Y-72741745D01*
X115622780Y-72560466D01*
X115622781Y-72560461D01*
X115624636Y-72554997D01*
X115625464Y-72549288D01*
X115625465Y-72549283D01*
X115653231Y-72357779D01*
X115653764Y-72354105D01*
X115655284Y-72296052D01*
X115636710Y-72093911D01*
X115631082Y-72073955D01*
X115583177Y-71904098D01*
X115583176Y-71904096D01*
X115581609Y-71898539D01*
X115571030Y-71877085D01*
X115494383Y-71721661D01*
X115491828Y-71716480D01*
X115370372Y-71553831D01*
X115221310Y-71416039D01*
X115216427Y-71412958D01*
X115216423Y-71412955D01*
X115195890Y-71400000D01*
X116736496Y-71400000D01*
X116737186Y-71406565D01*
X116750900Y-71537043D01*
X116756458Y-71589928D01*
X116815473Y-71771556D01*
X116910960Y-71936944D01*
X117038747Y-72078866D01*
X117193248Y-72191118D01*
X117199276Y-72193802D01*
X117199278Y-72193803D01*
X117350837Y-72261281D01*
X117367712Y-72268794D01*
X117461113Y-72288647D01*
X117548056Y-72307128D01*
X117548061Y-72307128D01*
X117554513Y-72308500D01*
X117745487Y-72308500D01*
X117751939Y-72307128D01*
X117751944Y-72307128D01*
X117838887Y-72288647D01*
X117932288Y-72268794D01*
X117949163Y-72261281D01*
X118100722Y-72193803D01*
X118100724Y-72193802D01*
X118106752Y-72191118D01*
X118261253Y-72078866D01*
X118389040Y-71936944D01*
X118484527Y-71771556D01*
X118543542Y-71589928D01*
X118549101Y-71537043D01*
X118562814Y-71406565D01*
X118563504Y-71400000D01*
X118553580Y-71305579D01*
X118544232Y-71216635D01*
X118544232Y-71216633D01*
X118543542Y-71210072D01*
X118484527Y-71028444D01*
X118389040Y-70863056D01*
X118270005Y-70730854D01*
X118239290Y-70666850D01*
X118248054Y-70596397D01*
X118289582Y-70544611D01*
X118290882Y-70543666D01*
X118311253Y-70528866D01*
X118343155Y-70493435D01*
X118434621Y-70391852D01*
X118434625Y-70391847D01*
X118439040Y-70386944D01*
X118534527Y-70221556D01*
X118593542Y-70039928D01*
X118601021Y-69968774D01*
X118612814Y-69856565D01*
X118613504Y-69850000D01*
X118605598Y-69774776D01*
X118594232Y-69666635D01*
X118594232Y-69666633D01*
X118593542Y-69660072D01*
X118581166Y-69621982D01*
X120493142Y-69621982D01*
X120500668Y-69632415D01*
X120646463Y-69749848D01*
X120652648Y-69754244D01*
X120928363Y-69926195D01*
X120935034Y-69929817D01*
X121229414Y-70067402D01*
X121236468Y-70070195D01*
X121545257Y-70171420D01*
X121552570Y-70173339D01*
X121871298Y-70236738D01*
X121878789Y-70237764D01*
X122202823Y-70262413D01*
X122210386Y-70262531D01*
X122535021Y-70248074D01*
X122542562Y-70247282D01*
X122863115Y-70193926D01*
X122870479Y-70192240D01*
X123182315Y-70100757D01*
X123189424Y-70098198D01*
X123488003Y-69969919D01*
X123494770Y-69966515D01*
X123775764Y-69803301D01*
X123782071Y-69799111D01*
X124000005Y-69634588D01*
X124008461Y-69623197D01*
X124001743Y-69610953D01*
X122262812Y-67872022D01*
X122248868Y-67864408D01*
X122247035Y-67864539D01*
X122240420Y-67868790D01*
X120500257Y-69608953D01*
X120493142Y-69621982D01*
X118581166Y-69621982D01*
X118534527Y-69478444D01*
X118439040Y-69313056D01*
X118385029Y-69253070D01*
X118315675Y-69176045D01*
X118315674Y-69176044D01*
X118311253Y-69171134D01*
X118156752Y-69058882D01*
X118150724Y-69056198D01*
X118150722Y-69056197D01*
X117988319Y-68983891D01*
X117988318Y-68983891D01*
X117982288Y-68981206D01*
X117872878Y-68957950D01*
X117801944Y-68942872D01*
X117801939Y-68942872D01*
X117795487Y-68941500D01*
X117604513Y-68941500D01*
X117598061Y-68942872D01*
X117598056Y-68942872D01*
X117527122Y-68957950D01*
X117417712Y-68981206D01*
X117411682Y-68983891D01*
X117411681Y-68983891D01*
X117249278Y-69056197D01*
X117249276Y-69056198D01*
X117243248Y-69058882D01*
X117088747Y-69171134D01*
X117084326Y-69176044D01*
X117084325Y-69176045D01*
X117014972Y-69253070D01*
X116960960Y-69313056D01*
X116865473Y-69478444D01*
X116806458Y-69660072D01*
X116805768Y-69666633D01*
X116805768Y-69666635D01*
X116794402Y-69774776D01*
X116786496Y-69850000D01*
X116787186Y-69856565D01*
X116798980Y-69968774D01*
X116806458Y-70039928D01*
X116865473Y-70221556D01*
X116960960Y-70386944D01*
X117079995Y-70519146D01*
X117110710Y-70583150D01*
X117101946Y-70653603D01*
X117060418Y-70705389D01*
X117038747Y-70721134D01*
X116910960Y-70863056D01*
X116815473Y-71028444D01*
X116756458Y-71210072D01*
X116755768Y-71216633D01*
X116755768Y-71216635D01*
X116746420Y-71305579D01*
X116736496Y-71400000D01*
X115195890Y-71400000D01*
X115054516Y-71310800D01*
X115049633Y-71307719D01*
X114861091Y-71232498D01*
X114855431Y-71231372D01*
X114855427Y-71231371D01*
X114667666Y-71194023D01*
X114667661Y-71194023D01*
X114661998Y-71192896D01*
X114656222Y-71192820D01*
X114651298Y-71192303D01*
X114585641Y-71165289D01*
X114545012Y-71107067D01*
X114542309Y-71036122D01*
X114555350Y-71003993D01*
X114611201Y-70907257D01*
X114611202Y-70907256D01*
X114614505Y-70901534D01*
X114673520Y-70719906D01*
X114681638Y-70642673D01*
X114692792Y-70536543D01*
X114693482Y-70529978D01*
X114677848Y-70381226D01*
X114674210Y-70346613D01*
X114674210Y-70346611D01*
X114673520Y-70340050D01*
X114661532Y-70303154D01*
X114625483Y-70192207D01*
X114623456Y-70121239D01*
X114660118Y-70060442D01*
X114693165Y-70038570D01*
X114780742Y-69998752D01*
X114822834Y-69979614D01*
X114828987Y-69974667D01*
X114828990Y-69974665D01*
X114868918Y-69942561D01*
X114871580Y-69940421D01*
X115782523Y-69029478D01*
X115795979Y-69012742D01*
X115816767Y-68986888D01*
X115816769Y-68986885D01*
X115821716Y-68980732D01*
X115882003Y-68848136D01*
X115895927Y-68750913D01*
X115901379Y-68712839D01*
X115902652Y-68703950D01*
X115882003Y-68559764D01*
X115821716Y-68427168D01*
X115816769Y-68421015D01*
X115816767Y-68421012D01*
X115784663Y-68381084D01*
X115782523Y-68378422D01*
X114878959Y-67474858D01*
X119487299Y-67474858D01*
X119503456Y-67799410D01*
X119504287Y-67806939D01*
X119559318Y-68127198D01*
X119561051Y-68134585D01*
X119654156Y-68445909D01*
X119656759Y-68453022D01*
X119786595Y-68750913D01*
X119790037Y-68757669D01*
X119954720Y-69037803D01*
X119958943Y-69044088D01*
X120115792Y-69249608D01*
X120127316Y-69258069D01*
X120139382Y-69251408D01*
X121877978Y-67512812D01*
X121884356Y-67501132D01*
X122614408Y-67501132D01*
X122614539Y-67502965D01*
X122618790Y-67509580D01*
X124358825Y-69249615D01*
X124371948Y-69256781D01*
X124382250Y-69249391D01*
X124491429Y-69115285D01*
X124495842Y-69109144D01*
X124669248Y-68834312D01*
X124672895Y-68827677D01*
X124812025Y-68534011D01*
X124814850Y-68526984D01*
X124917696Y-68218715D01*
X124919650Y-68211424D01*
X124984716Y-67893033D01*
X124985784Y-67885529D01*
X125012253Y-67560100D01*
X125012458Y-67555625D01*
X125013018Y-67502221D01*
X125012908Y-67497789D01*
X124993257Y-67171835D01*
X124992349Y-67164333D01*
X124933967Y-66844663D01*
X124932154Y-66837284D01*
X124835797Y-66526966D01*
X124833116Y-66519869D01*
X124700172Y-66223363D01*
X124696655Y-66216636D01*
X124529054Y-65938252D01*
X124524757Y-65931999D01*
X124383617Y-65751022D01*
X124371823Y-65742551D01*
X124360113Y-65749097D01*
X122622022Y-67487188D01*
X122614408Y-67501132D01*
X121884356Y-67501132D01*
X121885592Y-67498868D01*
X121885461Y-67497035D01*
X121881210Y-67490420D01*
X120140864Y-65750074D01*
X120127929Y-65743011D01*
X120117367Y-65750671D01*
X119991785Y-65908268D01*
X119987428Y-65914467D01*
X119816913Y-66191094D01*
X119813333Y-66197770D01*
X119677287Y-66492878D01*
X119674537Y-66499929D01*
X119574927Y-66809251D01*
X119573044Y-66816584D01*
X119511316Y-67135632D01*
X119510329Y-67143132D01*
X119487378Y-67467277D01*
X119487299Y-67474858D01*
X114878959Y-67474858D01*
X114871580Y-67467479D01*
X114854844Y-67454023D01*
X114828990Y-67433235D01*
X114828987Y-67433233D01*
X114822834Y-67428286D01*
X114690238Y-67367999D01*
X114681355Y-67366727D01*
X114681352Y-67366726D01*
X114554941Y-67348623D01*
X114546052Y-67347350D01*
X114537163Y-67348623D01*
X114410752Y-67366726D01*
X114410749Y-67366727D01*
X114401866Y-67367999D01*
X114269270Y-67428286D01*
X114263117Y-67433233D01*
X114263114Y-67433235D01*
X114237260Y-67454023D01*
X114220524Y-67467479D01*
X113309581Y-68378422D01*
X113307441Y-68381084D01*
X113275337Y-68421012D01*
X113275335Y-68421015D01*
X113270388Y-68427168D01*
X113210101Y-68559764D01*
X113189452Y-68703950D01*
X113190725Y-68712839D01*
X113196178Y-68750913D01*
X113210101Y-68848136D01*
X113270388Y-68980732D01*
X113275335Y-68986885D01*
X113275337Y-68986888D01*
X113296125Y-69012742D01*
X113309581Y-69029478D01*
X113699433Y-69419330D01*
X113733459Y-69481642D01*
X113728394Y-69552457D01*
X113685847Y-69609293D01*
X113636537Y-69631671D01*
X113497690Y-69661184D01*
X113491660Y-69663869D01*
X113491659Y-69663869D01*
X113329256Y-69736175D01*
X113329254Y-69736176D01*
X113323226Y-69738860D01*
X113168725Y-69851112D01*
X113164304Y-69856022D01*
X113164303Y-69856023D01*
X113057478Y-69974665D01*
X113040938Y-69993034D01*
X112945451Y-70158422D01*
X112892476Y-70321463D01*
X112888337Y-70334200D01*
X112848263Y-70392806D01*
X112782867Y-70420443D01*
X112712910Y-70408336D01*
X112660604Y-70360330D01*
X112645258Y-70321463D01*
X112644232Y-70316635D01*
X112643542Y-70310072D01*
X112623398Y-70248074D01*
X112596310Y-70164707D01*
X112584527Y-70128444D01*
X112567065Y-70098198D01*
X112533422Y-70039928D01*
X112489040Y-69963056D01*
X112468660Y-69940421D01*
X112365675Y-69826045D01*
X112365674Y-69826044D01*
X112361253Y-69821134D01*
X112248013Y-69738860D01*
X112212094Y-69712763D01*
X112212093Y-69712762D01*
X112206752Y-69708882D01*
X112200724Y-69706198D01*
X112200722Y-69706197D01*
X112038319Y-69633891D01*
X112038318Y-69633891D01*
X112032288Y-69631206D01*
X111885012Y-69599901D01*
X111822540Y-69566174D01*
X111788218Y-69504024D01*
X111792946Y-69433185D01*
X111814335Y-69396087D01*
X111863993Y-69336379D01*
X111870502Y-69326908D01*
X111964006Y-69159944D01*
X111968680Y-69149447D01*
X112029393Y-68970594D01*
X112028160Y-68961943D01*
X112014592Y-68957950D01*
X111226065Y-68957950D01*
X111210826Y-68962425D01*
X111209621Y-68963815D01*
X111207950Y-68971498D01*
X111207950Y-69706655D01*
X111187948Y-69774776D01*
X111156011Y-69808591D01*
X111138747Y-69821134D01*
X111134326Y-69826044D01*
X111134325Y-69826045D01*
X111031341Y-69940421D01*
X111010960Y-69963056D01*
X110966578Y-70039928D01*
X110932936Y-70098198D01*
X110915473Y-70128444D01*
X110856458Y-70310072D01*
X110855768Y-70316633D01*
X110855768Y-70316635D01*
X110847863Y-70391847D01*
X110836496Y-70500000D01*
X110837186Y-70506565D01*
X110854327Y-70669648D01*
X110856458Y-70689928D01*
X110915473Y-70871556D01*
X110918776Y-70877278D01*
X110918777Y-70877279D01*
X110990448Y-71001417D01*
X111007186Y-71070413D01*
X110983965Y-71137504D01*
X110928158Y-71181391D01*
X110879680Y-71190406D01*
X110879281Y-71190401D01*
X110866921Y-71190239D01*
X110861224Y-71191218D01*
X110861223Y-71191218D01*
X110736049Y-71212727D01*
X110666860Y-71224616D01*
X110476413Y-71294876D01*
X110301960Y-71398664D01*
X110297620Y-71402470D01*
X110297616Y-71402473D01*
X110229119Y-71462544D01*
X110149342Y-71532507D01*
X110023670Y-71691921D01*
X110020981Y-71697032D01*
X110020979Y-71697035D01*
X110008023Y-71721661D01*
X109929153Y-71871567D01*
X109868957Y-72065430D01*
X109845098Y-72267016D01*
X99758500Y-72267016D01*
X99758500Y-69621982D01*
X101493142Y-69621982D01*
X101500668Y-69632415D01*
X101646463Y-69749848D01*
X101652648Y-69754244D01*
X101928363Y-69926195D01*
X101935034Y-69929817D01*
X102229414Y-70067402D01*
X102236468Y-70070195D01*
X102545257Y-70171420D01*
X102552570Y-70173339D01*
X102871298Y-70236738D01*
X102878789Y-70237764D01*
X103202823Y-70262413D01*
X103210386Y-70262531D01*
X103535021Y-70248074D01*
X103542562Y-70247282D01*
X103863115Y-70193926D01*
X103870479Y-70192240D01*
X104182315Y-70100757D01*
X104189424Y-70098198D01*
X104488003Y-69969919D01*
X104494770Y-69966515D01*
X104775764Y-69803301D01*
X104782071Y-69799111D01*
X105000005Y-69634588D01*
X105008461Y-69623197D01*
X105001743Y-69610953D01*
X103262812Y-67872022D01*
X103248868Y-67864408D01*
X103247035Y-67864539D01*
X103240420Y-67868790D01*
X101500257Y-69608953D01*
X101493142Y-69621982D01*
X99758500Y-69621982D01*
X99758500Y-67553250D01*
X99760246Y-67532345D01*
X99762770Y-67517344D01*
X99762770Y-67517341D01*
X99763576Y-67512552D01*
X99763729Y-67500000D01*
X99763040Y-67495185D01*
X99763039Y-67495177D01*
X99761550Y-67484781D01*
X99761087Y-67474858D01*
X100487299Y-67474858D01*
X100503456Y-67799410D01*
X100504287Y-67806939D01*
X100559318Y-68127198D01*
X100561051Y-68134585D01*
X100654156Y-68445909D01*
X100656759Y-68453022D01*
X100786595Y-68750913D01*
X100790037Y-68757669D01*
X100954720Y-69037803D01*
X100958943Y-69044088D01*
X101115792Y-69249608D01*
X101127316Y-69258069D01*
X101139382Y-69251408D01*
X102877978Y-67512812D01*
X102884356Y-67501132D01*
X103614408Y-67501132D01*
X103614539Y-67502965D01*
X103618790Y-67509580D01*
X105358825Y-69249615D01*
X105371948Y-69256781D01*
X105382250Y-69249391D01*
X105491429Y-69115285D01*
X105495842Y-69109144D01*
X105583060Y-68970912D01*
X109882621Y-68970912D01*
X109907393Y-69068452D01*
X109911234Y-69079298D01*
X109991344Y-69253070D01*
X109997095Y-69263031D01*
X110107529Y-69419293D01*
X110115007Y-69428048D01*
X110252064Y-69561562D01*
X110261008Y-69568805D01*
X110420106Y-69675111D01*
X110430216Y-69680601D01*
X110606027Y-69756135D01*
X110616970Y-69759690D01*
X110682282Y-69774469D01*
X110696355Y-69773580D01*
X110699950Y-69764182D01*
X110699950Y-68976065D01*
X110695475Y-68960826D01*
X110694085Y-68959621D01*
X110686402Y-68957950D01*
X109897444Y-68957950D01*
X109883913Y-68961923D01*
X109882621Y-68970912D01*
X105583060Y-68970912D01*
X105669248Y-68834312D01*
X105672895Y-68827677D01*
X105812025Y-68534011D01*
X105814850Y-68526984D01*
X105841618Y-68446749D01*
X109881893Y-68446749D01*
X109888625Y-68449950D01*
X110681835Y-68449950D01*
X110697074Y-68445475D01*
X110698279Y-68444085D01*
X110699950Y-68436402D01*
X110699950Y-68431835D01*
X111207950Y-68431835D01*
X111212425Y-68447074D01*
X111213815Y-68448279D01*
X111221498Y-68449950D01*
X112011348Y-68449950D01*
X112024879Y-68445977D01*
X112026048Y-68437842D01*
X111990608Y-68312181D01*
X111986483Y-68301434D01*
X111901853Y-68129821D01*
X111895843Y-68120013D01*
X111781350Y-67966689D01*
X111773660Y-67958149D01*
X111633142Y-67828254D01*
X111624017Y-67821253D01*
X111462186Y-67719145D01*
X111451939Y-67713924D01*
X111274210Y-67643018D01*
X111263182Y-67639751D01*
X111225719Y-67632300D01*
X111212844Y-67633452D01*
X111207950Y-67648608D01*
X111207950Y-68431835D01*
X110699950Y-68431835D01*
X110699950Y-67645450D01*
X110696144Y-67632488D01*
X110681229Y-67630552D01*
X110672682Y-67632021D01*
X110661570Y-67634998D01*
X110482045Y-67701229D01*
X110471667Y-67706179D01*
X110307223Y-67804013D01*
X110297911Y-67810779D01*
X110154047Y-67936944D01*
X110146130Y-67945287D01*
X110027668Y-68095555D01*
X110021400Y-68105206D01*
X109932308Y-68274542D01*
X109927903Y-68285177D01*
X109882112Y-68432648D01*
X109881893Y-68446749D01*
X105841618Y-68446749D01*
X105917696Y-68218715D01*
X105919650Y-68211424D01*
X105984716Y-67893033D01*
X105985784Y-67885529D01*
X106012253Y-67560100D01*
X106012458Y-67555625D01*
X106013018Y-67502221D01*
X106012908Y-67497789D01*
X105993257Y-67171835D01*
X105992349Y-67164333D01*
X105933967Y-66844663D01*
X105932154Y-66837284D01*
X105835797Y-66526966D01*
X105833116Y-66519869D01*
X105700172Y-66223363D01*
X105696655Y-66216636D01*
X105529054Y-65938252D01*
X105524757Y-65931999D01*
X105383617Y-65751022D01*
X105371823Y-65742551D01*
X105360113Y-65749097D01*
X103622022Y-67487188D01*
X103614408Y-67501132D01*
X102884356Y-67501132D01*
X102885592Y-67498868D01*
X102885461Y-67497035D01*
X102881210Y-67490420D01*
X101140864Y-65750074D01*
X101127929Y-65743011D01*
X101117367Y-65750671D01*
X100991785Y-65908268D01*
X100987428Y-65914467D01*
X100816913Y-66191094D01*
X100813333Y-66197770D01*
X100677287Y-66492878D01*
X100674537Y-66499929D01*
X100574927Y-66809251D01*
X100573044Y-66816584D01*
X100511316Y-67135632D01*
X100510329Y-67143132D01*
X100487378Y-67467277D01*
X100487299Y-67474858D01*
X99761087Y-67474858D01*
X99760429Y-67460735D01*
X99764803Y-67371713D01*
X99775010Y-67163949D01*
X99776221Y-67151650D01*
X99778623Y-67135461D01*
X99824680Y-66824966D01*
X99827091Y-66812841D01*
X99907339Y-66492477D01*
X99910928Y-66480645D01*
X100022190Y-66169689D01*
X100026922Y-66158265D01*
X100168126Y-65859712D01*
X100173955Y-65848807D01*
X100232566Y-65751022D01*
X100258412Y-65707899D01*
X100343744Y-65565533D01*
X100350614Y-65555252D01*
X100482230Y-65377787D01*
X100482240Y-65377773D01*
X101492267Y-65377773D01*
X101498871Y-65389661D01*
X103237188Y-67127978D01*
X103251132Y-67135592D01*
X103252965Y-67135461D01*
X103259580Y-67131210D01*
X105000162Y-65390628D01*
X105007174Y-65377787D01*
X105007164Y-65377773D01*
X120492267Y-65377773D01*
X120498871Y-65389661D01*
X122237188Y-67127978D01*
X122251132Y-67135592D01*
X122252965Y-67135461D01*
X122259580Y-67131210D01*
X124000162Y-65390628D01*
X124007174Y-65377787D01*
X123999379Y-65367098D01*
X123829886Y-65233481D01*
X123823663Y-65229156D01*
X123546140Y-65060088D01*
X123539465Y-65056553D01*
X123243637Y-64922049D01*
X123236567Y-64919335D01*
X122926740Y-64821350D01*
X122919389Y-64819503D01*
X122600024Y-64759446D01*
X122592515Y-64758498D01*
X122268251Y-64737245D01*
X122260686Y-64737205D01*
X121936207Y-64755062D01*
X121928693Y-64755931D01*
X121608713Y-64812641D01*
X121601357Y-64814406D01*
X121290503Y-64909147D01*
X121283409Y-64911786D01*
X120986207Y-65043178D01*
X120979470Y-65046655D01*
X120700196Y-65212805D01*
X120693945Y-65217053D01*
X120500733Y-65366115D01*
X120492267Y-65377773D01*
X105007164Y-65377773D01*
X104999379Y-65367098D01*
X104829886Y-65233481D01*
X104823663Y-65229156D01*
X104546140Y-65060088D01*
X104539465Y-65056553D01*
X104243637Y-64922049D01*
X104236567Y-64919335D01*
X103926740Y-64821350D01*
X103919389Y-64819503D01*
X103600024Y-64759446D01*
X103592515Y-64758498D01*
X103268251Y-64737245D01*
X103260686Y-64737205D01*
X102936207Y-64755062D01*
X102928693Y-64755931D01*
X102608713Y-64812641D01*
X102601357Y-64814406D01*
X102290503Y-64909147D01*
X102283409Y-64911786D01*
X101986207Y-65043178D01*
X101979470Y-65046655D01*
X101700196Y-65212805D01*
X101693945Y-65217053D01*
X101500733Y-65366115D01*
X101492267Y-65377773D01*
X100482240Y-65377773D01*
X100547350Y-65289983D01*
X100555177Y-65280444D01*
X100776985Y-65035718D01*
X100785718Y-65026985D01*
X101030444Y-64805177D01*
X101039983Y-64797350D01*
X101305252Y-64600614D01*
X101315533Y-64593744D01*
X101457899Y-64508412D01*
X101598812Y-64423953D01*
X101609708Y-64418128D01*
X101840500Y-64308972D01*
X101908265Y-64276922D01*
X101919689Y-64272190D01*
X102230645Y-64160928D01*
X102242477Y-64157339D01*
X102468804Y-64100646D01*
X102562844Y-64077090D01*
X102574966Y-64074680D01*
X102901655Y-64026221D01*
X102913949Y-64025010D01*
X103207039Y-64010610D01*
X103232598Y-64011958D01*
X103243724Y-64013691D01*
X103275286Y-64009564D01*
X103291621Y-64008500D01*
X122200633Y-64008500D01*
X122220018Y-64010000D01*
G37*
%TD.AperFunction*%
%TD*%
M02*
