M48
; DRILL file {KiCad 6.0.8-f2edbf62ab~116~ubuntu20.04.1} date Sun 23 Oct 2022 05:17:58 PM CEST
; FORMAT={-:-/ absolute / metric / decimal}
; #@! TF.CreationDate,2022-10-23T17:17:58+02:00
; #@! TF.GenerationSoftware,Kicad,Pcbnew,6.0.8-f2edbf62ab~116~ubuntu20.04.1
; #@! TF.FileFunction,MixedPlating,1,4
FMAT,2
METRIC
; #@! TA.AperFunction,Plated,PTH,ViaDrill
T1C0.400
; #@! TA.AperFunction,Plated,PTH,ComponentDrill
T2C0.600
; #@! TA.AperFunction,Plated,PTH,ComponentDrill
T3C0.650
; #@! TA.AperFunction,Plated,PTH,ComponentDrill
T4C1.000
; #@! TA.AperFunction,Plated,PTH,ComponentDrill
T5C2.700
; #@! TA.AperFunction,NonPlated,NPTH,ComponentDrill
T6C1.500
%
G90
G05
T1
X100.3Y-79.65
X100.3Y-81.75
X100.3Y-83.85
X100.75Y-84.85
X100.75Y-86.75
X100.75Y-88.5
X100.75Y-90.25
X100.75Y-92.0
X100.75Y-93.75
X100.85Y-95.5
X101.9Y-96.7
X103.3Y-77.5
X103.75Y-106.4
X104.2Y-78.6
X104.35Y-85.5
X104.4Y-96.85
X104.4Y-99.7
X105.2Y-75.65
X105.25Y-87.15
X105.7Y-96.7
X105.8Y-76.5
X105.85Y-78.0
X106.8Y-73.8
X107.7Y-76.5
X107.8Y-68.3
X107.85Y-104.25
X107.85Y-105.35
X107.85Y-106.45
X108.25Y-95.5
X108.35Y-91.0
X108.7Y-74.6
X108.95Y-103.75
X108.95Y-106.95
X109.25Y-81.75
X110.0Y-81.001
X110.3Y-74.6
X110.5Y-95.3
X110.5Y-96.85
X111.65Y-91.0
X111.75Y-70.5
X113.78Y-70.53
X114.4Y-75.5
X114.7Y-87.5
X115.0Y-95.3
X115.0Y-96.85
X115.5Y-91.9
X116.2Y-87.5
X116.2Y-79.0
X116.3Y-106.05
X117.0Y-106.55
X117.45Y-93.5
X117.65Y-71.4
X117.7Y-69.85
X117.9Y-91.0
X118.25Y-104.05
X118.5Y-73.6
X118.95Y-88.35
X119.4Y-75.0
X119.8Y-97.65
X119.85Y-78.85
X120.45Y-106.65
X120.45Y-107.5
X120.55Y-90.15
X120.75Y-81.4
X120.75Y-96.75
X121.4Y-89.25
X121.5Y-75.0
X121.8Y-85.3
X122.75Y-80.15
X123.65Y-79.3
X123.95Y-100.0
X123.95Y-101.0
X123.95Y-102.0
X123.95Y-103.0
X124.5Y-77.7
X124.75Y-100.0
X124.75Y-101.0
X124.75Y-102.0
X124.75Y-103.0
T2
X108.625Y-115.5
X111.375Y-115.5
X114.125Y-115.5
X116.875Y-115.5
T3
X110.954Y-68.704
X110.954Y-72.296
X114.546Y-68.704
X114.546Y-72.296
T4
X123.5Y-82.75
X123.5Y-85.29
X123.5Y-87.83
X123.5Y-90.37
X123.5Y-92.91
X123.5Y-95.45
T5
X103.25Y-67.5
X103.25Y-113.5
X122.25Y-67.5
X122.25Y-113.5
T6
X108.625Y-111.5
X111.375Y-111.5
X114.125Y-111.5
X116.875Y-111.5
T0
M30
